<?xml version="1.0" standalone="no"?>
<!DOCTYPE svg PUBLIC "-//W3C//DTD SVG 1.1//EN" "http://www.w3.org/Graphics/SVG/1.1/DTD/svg11.dtd" >
<svg xmlns="http://www.w3.org/2000/svg" xmlns:xlink="http://www.w3.org/1999/xlink" version="1.1">
<metadata>
Created by FontForge 20161116 at Sat Mar 24 14:07:32 2007
 By Jimmy Warting
Copyright (c) 2007 by Tippawan Sumnavong. All rights reserved.
</metadata>
<defs>
<font id="TPTankhun-Bold" horiz-adv-x="0" >
  <font-face 
    font-family="TP Tankhun"
    font-weight="700"
    font-stretch="normal"
    units-per-em="2048"
    panose-1="2 0 0 0 0 0 0 0 0 0"
    ascent="1638"
    descent="-410"
    x-height="700"
    cap-height="910"
    bbox="-779 -606 2047 1532"
    underline-thickness="86"
    underline-position="-263"
    unicode-range="U+0020-25CC"
  />
<missing-glyph horiz-adv-x="801" 
d="M696 -1h-591v906h591v-906zM174 68h453v768h-453v-768z" />
    <glyph glyph-name="quotedblleft" unicode="&#x91;&#x91;" horiz-adv-x="540" 
d="M90 912h130l-15 -271h-100zM320 912h130l-15 -271h-100z" />
    <glyph glyph-name="quotedblright" unicode="&#x92;&#x92;" horiz-adv-x="540" 
d="M90 912h130l-15 -271h-100zM320 912h130l-15 -271h-100z" />
    <glyph glyph-name="rulakkhangyao" unicode="&#xc4;&#xd2;" horiz-adv-x="1168" 
d="M322 0h-61q-33 0 -62 12.5t-50.5 34t-34.5 51t-13 62.5v300h32q15 0 24.5 9.5t12.5 20.5v18q-3 11 -13.5 19.5t-23.5 8.5h-61q5 60 31.5 112t68 90t95 60t113.5 22q71 0 129.5 -27t100.5 -77q34 47 85.5 75.5t114.5 28.5q50 0 94.5 -19.5t77.5 -52.5t52 -77.5t19 -94.5
v-774h-121v774q0 25 -9.5 47.5t-26 39t-39 26t-47.5 9.5t-47.5 -9.5t-39 -26t-26 -39t-9.5 -47.5v-774h-122v710q0 38 -14.5 72t-40 59.5t-59.5 40t-72 14.5q-42 0 -81.5 -21.5t-66.5 -53.5q28 -23 44.5 -56t16.5 -68q0 -39 -18.5 -73.5t-51.5 -58.5v-207q0 -16 11 -27
t26 -11h62v-122z" />
    <glyph glyph-name="lulakkhangyao" unicode="&#xc6;&#xd2;" horiz-adv-x="1184" 
d="M948 -198v767q0 25 -9.5 47.5t-26 39t-39 26t-47.5 9.5q-26 0 -48 -9.5t-38.5 -26t-26 -39t-9.5 -47.5v-69v-698h-124v699q0 37 -16.5 71.5t-44.5 60t-64.5 41t-76.5 15.5q-23 0 -47 -6t-45.5 -16t-40.5 -24t-32 -30q27 -20 44.5 -51.5t17.5 -73.5v-326q-1 -33 -14 -62
t-34.5 -50.5t-50.5 -35t-62 -14.5h-63v124h62q16 0 27 11t11 27v333q0 11 -12 20.5t-26 9.5h-62q4 62 32 115t72.5 91.5t102 60t120.5 21.5q72 0 136 -29.5t109 -80.5q33 49 86 79.5t117 30.5q50 0 94.5 -19.5t77.5 -52.5t52 -77.5t19 -94.5v-767h-121z" />
    <glyph glyph-name="copyright2" unicode="&#x3b;&#x3b;For&#x20;Education&#x20;Used&#x20;Only&#x3b;&#x3b;" horiz-adv-x="1122" 
d="M100 455q0 95 36 179.5t98.5 147.5t146.5 99.5t179 36.5q96 0 180 -36.5t146.5 -99.5t99 -147.5t36.5 -179.5q0 -96 -36.5 -180t-99 -147t-146.5 -99.5t-180 -36.5q-95 0 -179 36.5t-146.5 99.5t-98.5 147t-36 180zM198 455q0 -75 28.5 -141t78 -115.5t115 -78
t140.5 -28.5t141.5 28.5t115.5 78t77.5 115.5t28.5 141t-28.5 141t-77.5 116t-115.5 79t-141.5 29t-140.5 -29t-115 -79t-78 -116t-28.5 -141zM356 519q0 42 16 79t43.5 64.5t65 43.5t79.5 16q41 0 77 -14t63.5 -40.5t44.5 -64t20 -84.5h-96q-4 54 -35.5 81t-73.5 27
q-22 0 -41.5 -8.5t-34.5 -23t-23.5 -34.5t-8.5 -42v-127q0 -22 8.5 -41.5t23.5 -34.5t34.5 -23.5t41.5 -8.5q42 0 73.5 27t35.5 81h96q-3 -47 -20 -84.5t-44.5 -64t-63.5 -40.5t-77 -14q-42 0 -79.5 16t-65 43.5t-43.5 64.5t-16 79v127z" />
    <glyph glyph-name="registered2" unicode="&#x3b;&#x3b;Registered&#x3b;&#x3b;" horiz-adv-x="1122" 
d="M100 455q0 95 36 179.5t98.5 147.5t146.5 99.5t179 36.5q96 0 180 -36.5t146.5 -99.5t99 -147.5t36.5 -179.5q0 -96 -36.5 -180t-99 -147t-146.5 -99.5t-180 -36.5q-95 0 -179 36.5t-146.5 99.5t-98.5 147t-36 180zM198 455q0 -75 28.5 -141t78 -115.5t115 -78
t140.5 -28.5t141.5 28.5t115.5 78t77.5 115.5t28.5 141t-28.5 141t-77.5 116t-115.5 79t-141.5 29t-140.5 -29t-115 -79t-78 -116t-28.5 -141zM592 717q37 0 70 -12t57.5 -34.5t39 -53.5t14.5 -69q0 -60 -37 -100t-91 -59q17 -21 39 -44t42.5 -42.5t35.5 -33.5t18 -18
q-17 -17 -36.5 -31t-36.5 -31q-5 7 -22 26t-42 45.5t-54.5 57.5t-58.5 62h-56v-187h-96v415q0 23 8.5 43t23.5 34.5t34.5 23t42.5 8.5h105zM474 476h118q35 0 59.5 18.5t24.5 53.5q0 36 -24.5 54.5t-59.5 18.5h-105q-13 0 -13 -13v-132z" />
    <glyph glyph-name="trademark2" unicode="&#x3b;&#x3b;Trademark&#x3b;&#x3b;" horiz-adv-x="937" 
d="M565 911q37 0 69 -24q28 24 70 24q24 0 44.5 -9t35.5 -24t24 -35.5t9 -44.5v-293h-88v293q0 11 -7 18.5t-18 7.5t-18.5 -7.5t-7.5 -18.5v-293h-88v293q0 11 -7 18.5t-18 7.5t-18.5 -7.5t-7.5 -18.5v-293h-88v293q0 24 9 44.5t24 35.5t36 24t45 9zM385 821h-108v-316h-89
v316h-108v89h305v-89z" />
    <glyph glyph-name="multiply2" unicode="&#x3b;&#x3b;Multiply&#x3b;&#x3b;" horiz-adv-x="648" 
d="M181 658l142 -142l142 142l83 -79l-144 -144l144 -140l-84 -83l-141 143l-140 -142l-81 82l140 140l-142 144z" />
    <glyph glyph-name="divide2" unicode="&#x3b;&#x3b;Divide&#x3b;&#x3b;" horiz-adv-x="668" 
d="M568 485v-99h-468v99h468zM273 604q0 25 18 43t44 18t43 -18t17 -43q0 -26 -17 -43.5t-43 -17.5t-44 17.5t-18 43.5zM273 266q0 26 18 44t44 18t43 -18t17 -44t-17 -43t-43 -17t-44 17t-18 43z" />
    <glyph glyph-name=".notdef" horiz-adv-x="801" 
d="M696 -1h-591v906h591v-906zM174 68h453v768h-453v-768z" />
    <glyph glyph-name=".null" 
 />
    <glyph glyph-name="nonmarkingreturn" horiz-adv-x="579" 
 />
    <glyph glyph-name="space" unicode=" " horiz-adv-x="620" 
 />
    <glyph glyph-name="exclam" unicode="!" horiz-adv-x="377" 
d="M132 910h118v-710h-100zM120 61q0 29 20 49t49 20q28 0 48 -20t20 -49t-20 -49t-48 -20q-29 0 -49 20t-20 49z" />
    <glyph glyph-name="quotedbl" unicode="&#x22;" horiz-adv-x="540" 
d="M90 910h130l-15 -271h-100zM320 910h130l-15 -271h-100z" />
    <glyph glyph-name="numbersign" unicode="#" horiz-adv-x="972" 
d="M787 910l-66 -246h166v-122h-198l-47 -174h196v-122h-229l-65 -246h-127l67 246h-121l-65 -246h-127l64 246h-165v122h199l46 174h-196v122h230l66 246h125l-66 -246h121l66 246h126zM395 368h121l46 174h-121z" />
    <glyph glyph-name="dollar" unicode="$" horiz-adv-x="826" 
d="M474 1000v-84q50 -5 92.5 -26t74 -55t49 -79t17.5 -98h-123q0 55 -30.5 89.5t-79.5 43.5v-270q52 -2 98 -23t80 -56.5t54 -82t20 -99.5t-19.5 -99.5t-53.5 -81.5t-80 -56t-98 -23v-90h-122v91q-57 4 -103.5 23.5t-80 52.5t-51.5 79t-18 103h122q0 -64 34 -96t97 -38
l-1 272q-53 2 -98.5 23t-79.5 56t-53.5 81.5t-19.5 99.5t19.5 99.5t53.5 82t79.5 56.5t98.5 23v82h122zM225 657q0 -27 10 -51t27 -42t40 -29.5t50 -13.5v272q-27 -2 -50 -13.5t-40 -29.5t-27 -42t-10 -51zM602 260q0 27 -10 51t-27.5 42t-40.5 29t-50 13l1 -271
q26 2 49 13.5t40.5 29.5t27.5 42t10 51z" />
    <glyph glyph-name="percent" unicode="%" horiz-adv-x="837" 
d="M592 734h130l-470 -734h-132zM155 629q0 24 9 44.5t24.5 35.5t36 24t44.5 9t44 -9t35 -24t23.5 -35.5t8.5 -44.5q0 -48 -31.5 -80t-79.5 -32q-24 0 -44.5 8.5t-36 23.5t-24.5 35.5t-9 44.5zM462 105q0 24 8.5 44.5t23.5 35.5t35.5 23.5t44.5 8.5t44.5 -8.5t35.5 -23.5
t24 -35.5t9 -44.5t-8.5 -44.5t-23.5 -35.5t-35.5 -24t-44.5 -9t-44.5 9t-35.5 24t-24 35.5t-9 44.5zM232 629q0 -16 10.5 -26.5t26.5 -10.5t27 10.5t11 26.5t-11 27t-27 11t-26.5 -11t-10.5 -27zM537 105q0 -16 10.5 -26.5t26.5 -10.5t27 10.5t11 26.5t-11 27t-27 11
t-26.5 -11t-10.5 -27z" />
    <glyph glyph-name="ampersand" unicode="&#x26;" horiz-adv-x="855" 
d="M237 847q26 35 67.5 53t84.5 18q41 0 74.5 -16t57.5 -42t37 -61t13 -72q0 -69 -32 -129t-83 -109q35 -43 69.5 -90.5t79.5 -105.5l1 -1q6 9 15 23.5t18 29.5l16.5 27.5t10.5 18.5q25 -15 50.5 -30t53.5 -30q-6 -10 -15.5 -26t-21.5 -35.5t-25 -41t-26 -42.5
q19 -25 43.5 -56t49.5 -62q-24 -21 -48.5 -40.5t-50.5 -38.5q-3 5 -11 16.5t-18.5 25t-21.5 28t-20 26.5q-46 -45 -108.5 -69t-129.5 -24q-50 0 -96 17t-82 48t-57.5 75t-21.5 98q0 45 14.5 83t39.5 71t57 62.5t67 58.5q-45 60 -68.5 115.5t-23.5 103.5q0 67 41 123z
M320 722q0 -33 19 -68.5t42 -67.5q28 29 48.5 64t20.5 77q0 25 -18 47t-47 22q-31 0 -48 -21t-17 -53zM232 230q0 -28 12 -49.5t31.5 -36.5t45 -22.5t52.5 -7.5q45 0 86.5 19t73.5 52q-36 50 -76 102.5t-94 123.5q-24 -19 -47.5 -40t-42 -43.5t-30 -47t-11.5 -50.5z" />
    <glyph glyph-name="quotesingle" unicode="'" horiz-adv-x="310" 
d="M90 910h130l-15 -271h-100z" />
    <glyph glyph-name="parenleft" unicode="(" horiz-adv-x="513" 
d="M120 356q0 118 28 212t65.5 163.5t75.5 114t58 64.5q20 -26 38 -48.5t38 -45.5q-17 -17 -47 -53.5t-60 -94t-52 -135.5t-22 -177q0 -100 21.5 -178.5t50.5 -136t58.5 -93.5t46.5 -52q-15 -18 -35.5 -41.5t-45.5 -49.5q-19 19 -55.5 63t-72.5 113t-63 162.5t-27 212.5z
" />
    <glyph glyph-name="parenright" unicode=")" horiz-adv-x="513" 
d="M393 356q0 -119 -27 -212.5t-63 -162.5t-72.5 -113t-55.5 -63q-25 26 -45.5 49.5t-35.5 41.5q16 16 46 52.5t59 93.5t50.5 135t21.5 179q0 99 -22 177t-52 135t-60.5 94t-46.5 54q20 23 38 45.5t38 48.5q20 -20 58 -64.5t75.5 -114t65.5 -163.5t28 -212z" />
    <glyph glyph-name="asterisk" unicode="*" horiz-adv-x="698" 
d="M409 910v-175q20 6 45.5 14.5t50 16.5t44 14t26.5 8q10 -28 19 -57t19 -60q-20 -7 -66.5 -21.5t-99.5 -30.5q12 -17 27.5 -39t30.5 -43t27 -38t16 -23q-50 -38 -99 -69q-13 17 -41.5 56.5t-58.5 84.5q-12 -17 -28 -39t-31.5 -42.5t-27.5 -36.5t-16 -22q-6 4 -20 14
t-30 21t-29.5 21.5t-19.5 15.5q6 8 17 23t25.5 33.5t30.5 40t32 43.5q-20 6 -46 14.5t-50.5 16.5t-44 14t-26.5 8q17 52 26 81.5t11 37.5q19 -8 65.5 -24t100.5 -34v176h121z" />
    <glyph glyph-name="plus" unicode="+" horiz-adv-x="667" 
d="M391 670v-177h176v-115h-176v-177h-115v177h-176v115h176v177h115z" />
    <glyph glyph-name="comma" unicode="," horiz-adv-x="368" 
d="M268 132l-117 -269h-91l75 269h133z" />
    <glyph glyph-name="hyphen" unicode="-" horiz-adv-x="618" 
d="M518 493v-115h-418v115h418z" />
    <glyph glyph-name="period" unicode="." horiz-adv-x="347" 
d="M100 66q0 30 22 51.5t52 21.5q31 0 52 -21.5t21 -51.5q0 -32 -21 -53t-52 -21q-30 0 -52 21t-22 53z" />
    <glyph glyph-name="slash" unicode="/" horiz-adv-x="512" 
d="M442 960l-257 -960h-115l256 960h116z" />
    <glyph glyph-name="zero" unicode="0" horiz-adv-x="835" 
d="M110 610q0 64 24 120t65.5 98t97.5 66t120 24t120 -24t98 -66t66 -98t24 -120v-310q0 -64 -24 -120t-66 -98t-98 -66t-120 -24t-120 24t-97.5 66t-65.5 98t-24 120v310zM232 300q0 -38 14.5 -72t39.5 -59.5t59 -40t72 -14.5t72 14.5t59.5 40t40 59.5t14.5 72v310
q0 38 -14.5 72t-40 59.5t-59 40t-72.5 14.5q-38 0 -72 -14.5t-59 -40t-39.5 -59.5t-14.5 -72v-310z" />
    <glyph glyph-name="one" unicode="1" horiz-adv-x="583" 
d="M432 910v-910h-121v730l-144 -145l-87 87l238 238h114z" />
    <glyph glyph-name="two" unicode="2" horiz-adv-x="791" 
d="M100 611q0 64 23.5 120.5t64 97.5t95.5 65t118 24q61 0 113.5 -23t90.5 -61.5t60 -88.5t22 -104q0 -48 -15 -94.5t-46 -88.5q-11 -15 -47 -52.5t-84 -86t-101 -101t-98 -96.5h404v-122h-582l-1 115q10 10 41 40.5t72.5 71.5t89 88t90 90.5t75 77.5t44.5 49
q16 23 26.5 51.5t10.5 56.5q0 34 -12.5 62.5t-34 49.5t-52 32.5t-66.5 11.5q-38 0 -70.5 -14.5t-56.5 -39t-38 -58.5t-14 -73v-68h-122v68z" />
    <glyph glyph-name="three" unicode="3" horiz-adv-x="731" 
d="M369 910q49 0 91.5 -18.5t74.5 -50.5t50.5 -75t18.5 -92q0 -48 -18 -91t-52 -77q57 -42 87 -100.5t30 -125.5q0 -59 -22 -110t-59.5 -88.5t-89 -59.5t-109.5 -22h-300v122h299q33 0 62 12.5t50.5 33.5t34 50t12.5 62q0 32 -12.5 61t-34 50.5t-50.5 34.5t-62 13h-221v122
h222q22 0 42.5 9t35.5 24.5t24 36t9 43.5q0 24 -9 44.5t-24.5 36t-36 24.5t-43.5 9h-280v122h280z" />
    <glyph glyph-name="four" unicode="4" horiz-adv-x="722" 
d="M564 910v-591h118v-122h-118v-197h-121v197h-220q-37 0 -68.5 10.5t-55 31t-36.5 49.5t-13 65q0 26 12 65t41 79q13 18 38 48.5t56 67.5t66 78t69 81t64 75.5t52 62.5h116zM200 426q-12 -17 -20.5 -35t-8.5 -34t11.5 -26.5t40.5 -11.5h219v392q-42 -51 -82 -98t-73 -85.5
t-56 -65.5t-31 -37v1z" />
    <glyph glyph-name="five" unicode="5" horiz-adv-x="745" 
d="M630 910v-122h-408v-178h155q64 0 120 -24t98 -65t66 -96.5t24 -119.5t-24 -119.5t-65.5 -97t-97.5 -65t-120 -23.5h-277v122h276q38 0 72 14t59.5 39t40 58.5t14.5 71.5t-14.5 71.5t-40 58t-59.5 39t-72 14.5h-277v422h530z" />
    <glyph glyph-name="six" unicode="6" horiz-adv-x="758" 
d="M493 910q-49 -88 -98 -174t-100 -180h151q57 0 107 -22.5t86.5 -61.5t57.5 -91t21 -111q0 -58 -20.5 -108.5t-57 -88t-86.5 -59.5t-108 -22h-83q-21 0 -50.5 5t-61 18t-62 35t-55 56.5t-39.5 82.5t-15 112q0 28 5.5 58t14 59t19 55.5t20.5 48.5q16 31 43 81t58 105.5
t61.5 109t53.5 92.5h138zM202 301q0 -65 18.5 -102t44 -55.5t53 -23.5t45.5 -5h83q33 0 60.5 12t47.5 33t31 49t11 61q0 34 -11.5 64t-31.5 52.5t-47.5 35t-59.5 12.5h-213q-31 -77 -31 -133z" />
    <glyph glyph-name="seven" unicode="7" horiz-adv-x="665" 
d="M605 910v-155q0 -48 -21 -98t-57 -117q-26 -49 -52.5 -98.5t-58.5 -111t-72.5 -141.5t-94.5 -189h-138q77 150 154 295.5t155 301.5q26 54 44.5 95t18.5 63v33h-443v122h565z" />
    <glyph glyph-name="eight" unicode="8" horiz-adv-x="810" 
d="M437 918q50 0 93.5 -19t76 -51.5t51 -75.5t18.5 -92q0 -46 -19.5 -90t-52.5 -79q58 -42 89.5 -102.5t31.5 -129.5q0 -59 -22.5 -111t-61 -91t-90.5 -62t-112 -23h-63q-59 0 -111 23t-91 62t-61.5 91t-22.5 111q0 69 31 129.5t88 102.5q-34 34 -51.5 77.5t-17.5 91.5
q0 49 19 92t51 75.5t75.5 51.5t92.5 19h59zM263 680q0 -24 9 -44.5t24.5 -36.5t36.5 -25t45 -9h59q24 0 45 9t36.5 25t24.5 36.5t9 44.5q0 23 -9 43.5t-24.5 36t-36.5 24.5t-45 9h-59q-24 0 -45 -9t-36.5 -24.5t-24.5 -36t-9 -43.5zM213 279q0 -34 13 -63.5t35 -51.5
t51.5 -35t63.5 -13h63q34 0 63.5 13t51.5 35t35 51.5t13 63.5q0 33 -12.5 62.5t-34.5 51.5t-51 35.5t-62 14.5h-69q-33 -1 -62 -14.5t-51 -35.5t-34.5 -51.5t-12.5 -62.5z" />
    <glyph glyph-name="nine" unicode="9" horiz-adv-x="748" 
d="M385 918q20 0 49 -4.5t60.5 -17t62.5 -34t55.5 -56t40 -83.5t15.5 -115q0 -60 -19 -118.5t-41 -103.5q-15 -31 -42 -80.5t-58 -104t-61.5 -108.5t-52.5 -93h-143q15 26 38.5 66.5t51.5 88t57 99t55 99.5h-151q-57 0 -107 22.5t-86.5 61.5t-57.5 91t-21 111q0 58 20.5 109
t57 89t86 59.5t108.5 21.5h83zM152 639q0 -34 11.5 -64t31.5 -52.5t47.5 -35.5t59.5 -13h213q31 75 31 134q0 64 -18.5 101.5t-44 56.5t-53 24.5t-45.5 5.5h-83q-33 0 -60.5 -12t-47.5 -33.5t-31 -50t-11 -61.5z" />
    <glyph glyph-name="colon" unicode=":" horiz-adv-x="427" 
d="M140 66q0 30 22 51.5t52 21.5q31 0 52 -21.5t21 -51.5q0 -32 -21 -53t-52 -21q-30 0 -52 21t-22 53zM140 569q0 30 22 51.5t52 21.5q31 0 52 -21.5t21 -51.5q0 -32 -21 -53t-52 -21q-30 0 -52 21t-22 53z" />
    <glyph glyph-name="semicolon" unicode=";" horiz-adv-x="435" 
d="M288 132l-117 -269h-91l75 269h133zM148 569q0 30 22 51.5t52 21.5q31 0 52 -21.5t21 -51.5q0 -32 -21 -53t-52 -21q-30 0 -52 21t-22 53z" />
    <glyph glyph-name="less" unicode="&#x3c;" horiz-adv-x="813" 
d="M90 492l540 251l53 -109l-423 -199l423 -199l-54 -108l-539 252v112z" />
    <glyph glyph-name="equal" unicode="=" horiz-adv-x="741" 
d="M621 589v-105h-501v105h501zM621 387v-105h-501v105h501z" />
    <glyph glyph-name="greater" unicode="&#x3e;" horiz-adv-x="813" 
d="M723 380l-539 -252l-54 108l423 199l-423 199l53 109l540 -251v-112z" />
    <glyph glyph-name="question" unicode="?" horiz-adv-x="671" 
d="M100 660q0 53 18.5 100t50.5 82t75 55.5t92 20.5q48 0 91 -20.5t75 -55.5t50.5 -82t18.5 -100q0 -70 -32.5 -128.5t-95.5 -100.5h1q-68 -44 -68 -79v-152h-121v152q0 41 14.5 69.5t36 50.5t46.5 40.5t46.5 39t36 46t14.5 62.5q0 28 -9 53t-24.5 43.5t-36 29t-43.5 10.5
t-43.5 -10.5t-36 -29t-24.5 -43.5t-9 -53q0 -23 10 -59q-29 -14 -52.5 -24t-59.5 -24q-10 33 -15.5 60t-5.5 47zM246 61q0 29 20 49t49 20q28 0 48 -20t20 -49t-20 -49t-48 -20q-29 0 -49 20t-20 49z" />
    <glyph glyph-name="at" unicode="@" horiz-adv-x="1043" 
d="M100 444q0 93 33 175.5t90 144t134 97t165 35.5q87 0 164 -36t134 -97.5t90 -144t33 -175.5q-2 -41 -14 -82.5t-36 -75t-59.5 -55t-84.5 -21.5q-39 0 -77 17.5t-60 45.5q-23 -25 -54.5 -41.5t-66.5 -16.5q-37 0 -69.5 17t-57 46.5t-39 69.5t-14.5 86q0 49 16.5 92.5
t43.5 75.5t62 50.5t72 18.5q31 0 57 -12.5t52 -34.5l6 34h96l-43 -269v-8q0 -12 6.5 -23.5t17 -21t24 -15.5t28.5 -6q20 0 36.5 12.5t28 32t18 42.5t6.5 43q0 70 -25 132t-68.5 109t-101 74.5t-121.5 27.5q-65 0 -122.5 -27.5t-100.5 -74.5t-68.5 -109t-25.5 -132t25.5 -132
t68.5 -109t100.5 -74.5t122.5 -27.5q22 0 37 1.5t27 5t24.5 9.5t29.5 15l53 -100q-35 -17 -73.5 -28.5t-97.5 -11.5q-88 0 -165 35.5t-134 97t-90 144t-33 175.5zM412 456q-1 -5 -1 -18q0 -19 4 -38t12.5 -35.5t21.5 -28.5t32 -17l-1 1q1 -1 9 -1q18 0 33.5 10t27 25.5
t19.5 35t11 38.5v-1q1 7 1.5 13t0.5 11q0 24 -6 44.5t-16.5 36.5t-25 25t-30.5 9q-32 0 -58 -31t-34 -79z" />
    <glyph glyph-name="A" unicode="A" horiz-adv-x="861" 
d="M430 918q67 0 118.5 -36t72.5 -97q3 -10 12.5 -47t23 -94t31.5 -130.5t37.5 -157.5t40 -174.5t40.5 -181.5h-127q-3 12 -11 45t-19.5 80.5t-24 104.5t-24.5 116h-342q-5 -20 -12.5 -52t-15.5 -69t-16.5 -74.5t-15.5 -69.5t-11.5 -54t-5.5 -27h-126l40 182t39 174.5
t36 157.5t30.5 130.5t23 93.5t13.5 47q23 61 74 97t117 36h2zM428 794q-28 0 -46.5 -13.5t-27.5 -37.5q-2 -5 -7.5 -23t-14 -51t-20 -82t-26.5 -117h287q-32 137 -48 201t-20 73v-1q-9 24 -28.5 37.5t-46.5 13.5h-2z" />
    <glyph glyph-name="B" unicode="B" horiz-adv-x="815" 
d="M438 910q54 0 102 -20t83.5 -55t56 -82t20.5 -102q0 -100 -72 -176q54 -37 88 -94t34 -123q0 -54 -20.5 -101.5t-56 -82t-83.5 -54.5t-102 -20h-198q-34 0 -64 13t-52.5 35t-35.5 52t-13 64v581q0 34 13 64t35 52.5t52 35.5t64 13h149zM249 517h189q28 0 53 10t44 28
t30 42.5t11 53.5q0 28 -11 53t-30 43t-44 28.5t-53 10.5h-149q-17 0 -28.5 -12t-11.5 -29v-228zM487 124q28 0 53.5 10t44.5 28t30 42.5t11 53.5q0 28 -11 53t-30 43t-44.5 28.5t-53.5 10.5h-238v-229q0 -17 11.5 -28.5t28.5 -11.5h198z" />
    <glyph glyph-name="C" unicode="C" horiz-adv-x="877" 
d="M115 591q0 67 26 126.5t70.5 104t104 70.5t127.5 26q65 0 123 -21t102 -60t71.5 -95.5t32.5 -126.5h-124q-4 45 -21.5 79t-45 56t-63 33t-75.5 11q-42 0 -79.5 -16t-65 -43.5t-43.5 -64.5t-16 -79v-270q0 -42 16 -79.5t43.5 -65.5t65 -44t79.5 -16q40 0 75.5 12.5
t63 36.5t45 59t21.5 80h124q-5 -71 -32.5 -128.5t-71.5 -98.5t-102 -63t-123 -22q-68 0 -127.5 26t-104 70.5t-70.5 104.5t-26 128v270z" />
    <glyph glyph-name="D" unicode="D" horiz-adv-x="871" 
d="M405 910q82 0 154 -35.5t126 -97t85 -145t31 -179.5t-31 -178.5t-84.5 -143.5t-125.5 -96t-154 -35h-116q-34 0 -64 13t-52.5 35t-35.5 52t-13 64v581q0 34 13 64t35 52.5t52 35.5t64 13h116zM405 124q56 0 105.5 25t86 69.5t58 104.5t21.5 130t-21.5 130.5t-58 105.5
t-86 70.5t-105.5 25.5h-116q-17 0 -28.5 -11.5t-11.5 -28.5v-581q0 -17 11.5 -28.5t28.5 -11.5h116z" />
    <glyph glyph-name="E" unicode="E" horiz-adv-x="770" 
d="M684 910v-125h-309q-29 0 -54.5 -11t-45 -30.5t-31 -45.5t-11.5 -55v-126h431v-124h-431v-127q0 -29 11.5 -55t31 -45.5t45 -30.5t54.5 -11h309v-124h-308q-55 0 -103.5 21t-84.5 57t-57 84.5t-21 103.5v377q0 55 21 103.5t57 85t84 57.5t103 21h309z" />
    <glyph glyph-name="F" unicode="F" horiz-adv-x="776" 
d="M701 910v-125h-309q-29 0 -55 -11t-45.5 -30.5t-30.5 -45.5t-11 -55v-126h400v-124h-400v-393h-124l-1 643q0 55 21 104t57.5 85t85 57t103.5 21h309z" />
    <glyph glyph-name="G" unicode="G" horiz-adv-x="866" 
d="M95 581q0 70 26.5 131t72 107t107 72.5t131.5 26.5q65 0 123 -21t103.5 -60.5t75 -95.5t37.5 -126h-125q-6 44 -25.5 77.5t-48.5 56t-65 34t-75 11.5q-44 0 -82.5 -17t-67.5 -46t-46 -68t-17 -82v-252q0 -44 17 -82.5t46 -67.5t67.5 -45.5t82.5 -16.5q43 0 82 16.5
t68 45.5t46 67.5t17 82.5v57h-250v124h374v-181q0 -70 -26.5 -131.5t-72.5 -107t-107 -72t-131 -26.5t-131.5 26.5t-107 72t-72 107t-26.5 131.5v252z" />
    <glyph glyph-name="H" unicode="H" horiz-adv-x="876" 
d="M750 910v-910h-123v393h-378v-393h-123v910h123v-393h377v393h124z" />
    <glyph glyph-name="I" unicode="I" horiz-adv-x="405" 
d="M269 910v-910h-123v910h123z" />
    <glyph glyph-name="J" unicode="J" horiz-adv-x="745" 
d="M456 910q34 0 64 -13t52 -35.5t35 -52.5t13 -64v-465q0 -60 -22.5 -112.5t-61.5 -91.5t-91.5 -61.5t-111.5 -22.5q-60 0 -112.5 22.5t-91.5 61.5t-61.5 91.5t-22.5 112.5v44h124v-45q0 -34 13 -63.5t35.5 -51.5t52 -35t63.5 -13t63.5 13t51.5 35t35 51.5t13 63.5v466
q0 17 -11.5 29t-28.5 12h-161v124h161z" />
    <glyph glyph-name="K" unicode="K" horiz-adv-x="830" 
d="M249 910v-393h83l327 398l96 -78l-274 -333q59 -16 108.5 -49.5t85 -79.5t55.5 -102t20 -117l1 -156h-124l-1 156q0 49 -19 92t-51 75.5t-75 51t-92 18.5h-140v-393h-123v910h123z" />
    <glyph glyph-name="L" unicode="L" horiz-adv-x="678" 
d="M250 910v-643q0 -30 11 -56t30.5 -45.5t45.5 -30.5t55 -11h270v-124h-269q-55 0 -103.5 21t-85 57t-58 84.5t-21.5 104.5v643h125z" />
    <glyph glyph-name="M" unicode="M" horiz-adv-x="1041" 
d="M343 918q52 0 98 -20.5t79 -58.5q35 38 80.5 58.5t96.5 20.5q49 0 92.5 -19t76 -51t51 -75.5t18.5 -92.5l1 -680h-124l-1 680q0 23 -9 44t-24.5 36.5t-36.5 24.5t-44 9q-24 0 -44.5 -9t-36.5 -24.5t-25 -36.5t-9 -44l1 -680h-124l-1 680q0 23 -9 44t-24.5 36.5
t-36.5 24.5t-45 9q-23 0 -44 -9t-36.5 -24.5t-24.5 -36.5t-9 -44l1 -680h-124l-1 680q0 49 19 92.5t51 75.5t75.5 51t92.5 19z" />
    <glyph glyph-name="N" unicode="N" horiz-adv-x="925" 
d="M116 718q0 97 44 148.5t137 51.5q33 0 63 -13.5t55 -38t42.5 -57.5t24.5 -72q26 -141 49 -275.5t50 -279.5q4 -22 10.5 -35t13 -20t13.5 -9t13 -2q7 0 16.5 1t18 8.5t14.5 22.5t6 44v718h124v-718q0 -97 -45.5 -148.5t-136.5 -51.5q-23 0 -48.5 6.5t-48.5 24.5t-42 50.5
t-29 84.5q-14 71 -26.5 139.5t-24.5 137t-24 138t-26 142.5q-6 32 -24.5 55.5t-40.5 23.5q-7 0 -16.5 -1t-18 -8.5t-14.5 -23t-6 -43.5l1 -718h-124v718z" />
    <glyph glyph-name="O" unicode="O" horiz-adv-x="868" 
d="M85 569q0 72 27.5 136t75 111t111.5 74.5t136 27.5t135 -27.5t110.5 -74.5t75 -111t27.5 -136v-228q0 -72 -27.5 -136t-75 -111t-110.5 -74.5t-135 -27.5t-136 27.5t-111.5 74.5t-75 111t-27.5 136v228zM209 341q0 -47 18 -87.5t48.5 -71.5t71.5 -48.5t88 -17.5
q46 0 87 17.5t71.5 48.5t48 71.5t17.5 87.5v228q0 46 -17.5 87t-48 71.5t-71.5 48.5t-87 18q-47 0 -88 -18t-71.5 -48.5t-48.5 -71.5t-18 -87v-228z" />
    <glyph glyph-name="P" unicode="P" horiz-adv-x="825" 
d="M464 910q59 0 111 -22t91 -60t61.5 -89.5t22.5 -110.5t-22.5 -110.5t-61.5 -89.5t-91 -60t-111 -22h-215v-346h-123l-1 745q0 34 13 64t35 52.5t52 35.5t64 13h175zM249 470h215q33 0 62.5 12t51.5 33.5t35 50.5t13 62t-13 62t-35 50.5t-51.5 33.5t-62.5 12h-175
q-17 0 -28.5 -12t-11.5 -29v-275z" />
    <glyph glyph-name="Q" unicode="Q" horiz-adv-x="913" 
d="M105 570q0 72 27.5 135t74.5 110.5t111 75t136 27.5t136 -27.5t111.5 -75t75 -110.5t27.5 -135v-228q0 -60 -20 -116.5t-58 -102.5l82 -103l-95 -77l-80 99q-92 -50 -179 -50q-72 0 -136 27.5t-111 75t-74.5 111.5t-27.5 136v228zM230 342q0 -47 17.5 -87.5t48 -71.5
t71 -48.5t87.5 -17.5q23 0 47.5 5t51.5 18l-88 111l97 76l83 -103q34 52 34 118v228q0 46 -17.5 87t-48.5 71.5t-72 48t-87 17.5q-47 0 -87.5 -17.5t-71 -48t-48 -71.5t-17.5 -87v-228z" />
    <glyph glyph-name="R" unicode="R" horiz-adv-x="830" 
d="M465 910q58 0 110 -21.5t91 -59.5t62 -89.5t23 -111.5q0 -51 -17 -96t-47.5 -81.5t-72 -62t-90.5 -36.5l231 -281l-95 -77l-290 352h-121v-346h-123l-1 745q0 34 13 64t35.5 52.5t52.5 35.5t63 13h176zM249 470h216q33 0 62.5 12t51 33.5t34.5 50.5t13 62t-13 62
t-34.5 50.5t-51 33.5t-62.5 12h-176q-17 0 -28.5 -12t-11.5 -29v-275z" />
    <glyph glyph-name="S" unicode="S" horiz-adv-x="776" 
d="M423 918q55 0 103.5 -19.5t84 -54t56 -82t20.5 -104.5h-123q0 63 -39 99.5t-102 36.5h-79q-29 0 -54 -10.5t-44 -29t-30 -43.5t-11 -54t11 -53.5t30 -43t44 -29t54 -10.5h99q54 0 102 -20.5t83.5 -55.5t56.5 -82.5t21 -102.5q0 -54 -20.5 -101.5t-56.5 -83t-83.5 -55.5
t-101.5 -20h-79q-63 0 -115.5 17.5t-90 51t-58.5 81.5t-21 109h122q0 -72 42 -103.5t120 -31.5h79q28 0 53.5 10.5t44.5 29t30 43t11 53.5q0 28 -11 52.5t-30 43t-44.5 29.5t-53.5 11l-99 1q-54 0 -102 20t-83.5 55.5t-56.5 83t-21 101.5q0 55 21 102.5t56.5 82.5t83.5 55.5
t102 20.5h79z" />
    <glyph glyph-name="T" unicode="T" horiz-adv-x="760" 
d="M720 910v-124h-276v-786h-123v786h-276v124h675z" />
    <glyph glyph-name="U" unicode="U" horiz-adv-x="865" 
d="M229 910v-590q0 -42 16 -79.5t43.5 -65t65 -43.5t79.5 -16t79 16t64.5 43.5t43.5 65t16 79.5v590h124v-590q0 -68 -26 -127.5t-70.5 -104t-104 -70.5t-126.5 -26q-68 0 -128 26t-104.5 70.5t-70 104t-25.5 127.5v590h124z" />
    <glyph glyph-name="V" unicode="V" horiz-adv-x="841" 
d="M796 910q-42 -177 -71.5 -299.5t-49.5 -204.5t-32.5 -130t-20.5 -75.5t-13 -41.5t-10 -27q-17 -44 -40 -71.5t-47.5 -42.5t-48.5 -20.5t-43 -5.5q-17 0 -41 5.5t-48.5 20.5t-48 42.5t-39.5 71.5q-5 14 -9.5 28t-12.5 41t-20 75t-32.5 129.5t-50.5 204.5t-73 300h127
q40 -166 68 -282t47.5 -193.5t31.5 -123t19.5 -72t12 -39.5t9.5 -26q14 -38 31 -48t31 -10t30 10t30 48q5 12 10 25t12.5 39.5t19 72.5t31 123.5t47.5 193.5t68 282h126z" />
    <glyph glyph-name="W" unicode="W" horiz-adv-x="1051" 
d="M976 910q-15 -137 -31 -271t-29.5 -244t-23.5 -184t-13 -91q-7 -42 -22.5 -67t-34.5 -38.5t-39 -18t-35 -4.5t-34.5 4.5t-38.5 18.5t-35 39t-24 66q-2 12 -11.5 82t-26.5 188q-11 75 -18.5 126.5t-12.5 84t-7 49t-2 21.5q0 6 -3 18t-8 12h-1q-5 0 -8 -12t-4 -18
q-1 -8 -3.5 -26t-7 -51t-11.5 -83t-17 -121q-11 -69 -19.5 -135t-19.5 -135q-8 -42 -23.5 -67t-34.5 -38.5t-38.5 -18t-35.5 -4.5q-15 0 -34 4.5t-38 18t-35 38.5t-24 67q-3 15 -10 65.5t-15.5 121.5t-19 154.5t-20 166t-18.5 157t-15 125.5h126q5 -39 11.5 -94t14 -118
t16 -131t16 -132.5t15 -122.5t13.5 -101.5t10.5 -69t6.5 -25.5q3 0 6.5 12.5t9 45t13 88t18.5 142.5q11 77 18 128t11.5 82.5t6.5 47t3 22.5l1 8q9 43 25 69t35 40t38.5 18.5t34.5 4.5h5q16 0 35.5 -4.5t38 -18t34 -38.5t23.5 -67q0 -2 1.5 -13.5t6 -43t12.5 -88t21 -147.5
q12 -85 19.5 -140.5t12.5 -88.5t8.5 -46t6.5 -13t9.5 40t15 105t18.5 149t20.5 172.5t20.5 173.5t19 154h125z" />
    <glyph glyph-name="X" unicode="X" horiz-adv-x="788" 
d="M198 910l195 -332l196 332h143l-267 -455l268 -455h-143l-197 331l-193 -331h-145l266 456l-266 454h143z" />
    <glyph glyph-name="Y" unicode="Y" horiz-adv-x="767" 
d="M742 910q-14 -31 -33.5 -72.5t-41 -86.5l-43 -90t-39.5 -81.5t-30.5 -61.5t-16.5 -31q-5 -8 -12.5 -19.5t-18.5 -23.5t-26 -23t-36 -19l1 -402h-123l-1 402q-20 7 -35.5 18.5t-26.5 23.5t-18.5 23.5t-12.5 19.5t-25 47.5t-48.5 98t-62.5 130.5t-68 147h136
q9 -19 24.5 -51.5t34 -70.5t37.5 -77.5t35.5 -73t28 -57t14.5 -29.5q9 -17 20 -26t32 -9q17 0 25.5 10t18.5 25q4 6 15.5 29.5t28 56.5t35 72t37 76.5t34 70.5t25.5 54h136z" />
    <glyph glyph-name="Z" unicode="Z" horiz-adv-x="764" 
d="M541 910q69 0 108.5 -38t39.5 -104q0 -46 -25 -85t-61 -84l-15.5 -16.5t-40.5 -43t-57 -60.5t-65 -69.5t-64.5 -69.5t-56.5 -60t-40 -42l-15 -16q-24 -32 -37 -50.5t-13 -30.5q0 -8 3.5 -12.5t20.5 -4.5h456v-124h-455q-69 0 -109 37t-40 104q0 23 6 43.5t16.5 39
t24.5 37t30 38.5q6 10 40 47t85.5 90.5t114 119t125.5 132.5l-2 -1q25 32 37.5 50.5t12.5 30.5q0 8 -4 12.5t-20 4.5h-456v125h456z" />
    <glyph glyph-name="bracketleft" unicode="[" horiz-adv-x="468" 
d="M388 910v-122h-127q-11 0 -15 -4t-4 -15v-826q0 -11 4 -14.5t15 -3.5h122v-121h-122q-69 0 -105 36t-36 103v826q0 69 36 105t105 36h127z" />
    <glyph glyph-name="backslash" unicode="\" horiz-adv-x="514" 
d="M186 960l258 -960h-115l-259 960h116z" />
    <glyph glyph-name="bracketright" unicode="]" horiz-adv-x="468" 
d="M207 910q69 0 105 -36t36 -105v-826q0 -67 -36 -103t-105 -36h-127v121h127q11 0 15 3.5t4 14.5v826q0 11 -4 15t-15 4h-122v122h122z" />
    <glyph glyph-name="asciicircum" unicode="^" horiz-adv-x="838" 
d="M365 980h115l268 -486l-102 -61l-224 402l-223 -402l-109 61z" />
    <glyph glyph-name="underscore" unicode="_" horiz-adv-x="715" 
d="M665 -100v-105h-615v105h615z" />
    <glyph glyph-name="grave" unicode="`" horiz-adv-x="310" 
d="M105 910h115v-271h-115v271z" />
    <glyph glyph-name="a" unicode="a" horiz-adv-x="663" 
d="M91 500q7 47 29.5 85.5t55.5 65.5t74 42t86 15q51 0 95.5 -19.5t78 -53t53 -78t19.5 -94.5l1 -463h-94l-10 29q-50 -29 -107 -29h-95q-44 0 -82.5 16t-67.5 44t-45.5 65.5t-16.5 81.5q0 43 16.5 80.5t45 65.5t67 44t82.5 16h184v50q0 25 -10 47.5t-26.5 39.5t-39.5 26.5
t-48 9.5q-20 0 -39 -3t-35.5 -12.5t-29 -26.5t-19.5 -44h-122zM188 207q0 -37 25.5 -61t62.5 -24h95q37 0 63 24t26 61v84h-184q-37 0 -62.5 -23.5t-25.5 -60.5z" />
    <glyph glyph-name="b" unicode="b" horiz-adv-x="748" 
d="M237 910v-249q68 47 152 47q56 0 106 -21.5t87.5 -59t59 -87.5t21.5 -106v-168q0 -57 -21.5 -107t-59 -87t-87.5 -58.5t-106 -21.5q-45 0 -87 14.5t-79 40.5l-13 -47h-94v910h121zM237 266q0 -32 12 -59.5t32.5 -48t48 -32.5t59.5 -12q31 0 59 12t48.5 32.5t32.5 48
t12 59.5v168q0 31 -12 59t-32.5 48.5t-48.5 32.5t-59 12q-32 0 -59.5 -12t-48 -32.5t-32.5 -48.5t-12 -59v-168z" />
    <glyph glyph-name="c" unicode="c" horiz-adv-x="708" 
d="M85 434q0 56 21.5 106t58.5 87.5t86.5 59t106.5 21.5q54 0 102.5 -19t85.5 -54t60 -84t27 -109h-121q-7 69 -50.5 106t-103.5 37q-31 0 -58.5 -12t-48 -32.5t-32.5 -48t-12 -58.5v-168q0 -32 12 -59.5t32.5 -48t48 -32.5t58.5 -12q30 0 56.5 9.5t47 28t34 45t16.5 61.5
h121q-4 -60 -27 -109t-60 -84t-85.5 -54t-102.5 -19q-57 0 -106.5 21.5t-86.5 58.5t-58.5 87t-21.5 107v168z" />
    <glyph glyph-name="d" unicode="d" horiz-adv-x="749" 
d="M633 910v-910h-94l-15 48q-36 -27 -78 -41.5t-87 -14.5q-57 0 -107 21.5t-87 58.5t-58.5 87t-21.5 107v168q0 56 21.5 106t58.5 87.5t87 59t107 21.5q81 0 152 -47v249h122zM207 266q0 -32 12 -59.5t32.5 -48t48 -32.5t59.5 -12q31 0 59 12t48.5 32.5t32.5 48t12 59.5
v168q0 31 -12 59t-32.5 48.5t-48.5 32.5t-59 12q-32 0 -59.5 -12t-48 -32.5t-32.5 -48.5t-12 -59v-168z" />
    <glyph glyph-name="e" unicode="e" horiz-adv-x="686" 
d="M75 447q0 56 21.5 104t58.5 83t87 54.5t107 19.5q49 0 97 -18t85.5 -50.5t61 -77.5t23.5 -99q0 -33 -12.5 -63.5t-34.5 -53.5t-51.5 -37t-63.5 -14h-257v-29q0 -32 12 -59.5t32.5 -48t48 -32.5t59.5 -12q19 0 36.5 2.5t33 10.5t28.5 23t24 40h129q-20 -100 -85.5 -149
t-165.5 -49q-57 0 -107 21.5t-87 58.5t-58.5 87t-21.5 107v181zM197 418h257q20 0 30 16t10 35q0 26 -12.5 47.5t-33 36.5t-46.5 23.5t-53 8.5q-32 0 -59.5 -10t-48 -28t-32.5 -43.5t-12 -56.5v-29z" />
    <glyph glyph-name="f" unicode="f" horiz-adv-x="483" 
d="M463 910v-122h-139q-24 0 -41 -14.5t-17 -37.5v-36h150v-122h-150v-578h-121v578h-100v122h99v36q0 37 14 69t38.5 55.5t57 36.5t70.5 13h139z" />
    <glyph glyph-name="g" unicode="g" horiz-adv-x="753" 
d="M90 434q0 57 21.5 107t59 87t87 58.5t106.5 21.5q91 0 166 -57l13 49h95v-790q0 -44 -20.5 -83t-55.5 -68t-82.5 -45.5t-101.5 -16.5q-51 0 -96 17.5t-80 47.5t-57.5 71t-27.5 89h121q4 -22 16.5 -40.5t31.5 -32.5t42.5 -22t49.5 -8q28 0 53.5 7t44 19.5t29.5 29t11 35.5
v128q-34 -22 -72 -34t-80 -12q-57 0 -106.5 21.5t-87 59t-59 87t-21.5 106.5v168zM212 266q0 -32 12 -59.5t32.5 -48t48 -32.5t59.5 -12q31 0 59 12t48.5 32.5t32.5 48t12 59.5v168q0 31 -12 59t-32.5 48.5t-48.5 32.5t-59 12q-32 0 -59.5 -12t-48 -32.5t-32.5 -48.5
t-12 -59v-168z" />
    <glyph glyph-name="h" unicode="h" horiz-adv-x="736" 
d="M236 910v-244q63 42 141 42q55 0 103 -20.5t83.5 -56t56 -83.5t20.5 -103l1 -445h-122l-1 445q0 29 -11 55t-30 45t-45 30t-55 11q-28 0 -53.5 -11t-45 -30t-31 -45t-11.5 -55l1 -445h-121v910h120z" />
    <glyph glyph-name="i" unicode="i" horiz-adv-x="367" 
d="M110 845q0 30 22 51.5t52 21.5q31 0 52 -21.5t21 -51.5q0 -32 -21 -53t-52 -21q-30 0 -52 21t-22 53zM245 700v-700h-121v700h121z" />
    <glyph glyph-name="j" unicode="j" horiz-adv-x="465" 
d="M354 700v-795q0 -43 -16.5 -80.5t-45 -66t-66.5 -45t-81 -16.5q-40 0 -76.5 17t-64.5 46.5t-46.5 69.5t-22.5 87h120q7 -42 31.5 -70t58.5 -28q36 0 61.5 25t25.5 61v795h122zM218 845q0 30 22 51.5t52 21.5q31 0 52 -21.5t21 -51.5q0 -32 -21 -53t-52 -21q-30 0 -52 21
t-22 53z" />
    <glyph glyph-name="k" unicode="k" horiz-adv-x="712" 
d="M237 910v-492h54l253 287l93 -77l-196 -221q42 -12 77 -36.5t60.5 -57.5t39.5 -73.5t14 -84.5l1 -155h-123v155q0 29 -11 54.5t-30 45t-44.5 30.5t-54.5 11h-133v-296h-121v910h121z" />
    <glyph glyph-name="l" unicode="l" horiz-adv-x="435" 
d="M227 910v-750q0 -16 11 -27t27 -11h109v-122h-108q-33 0 -62.5 12.5t-51.5 34t-34.5 51t-12.5 62.5v750h122z" />
    <glyph glyph-name="m" unicode="m" horiz-adv-x="842" 
d="M289 708q78 0 132 -51q54 51 132 51q40 0 75 -15t61.5 -41.5t41.5 -61.5t15 -75l1 -515h-123v515q0 29 -21 50t-50 21t-49 -19t-22 -46v-521h-123v521q-2 27 -22.5 46t-47.5 19q-29 0 -50 -21t-21 -50v-515h-123v515q0 40 15.5 75t42 61.5t61.5 41.5t75 15z" />
    <glyph glyph-name="n" unicode="n" horiz-adv-x="736" 
d="M222 658q68 50 156 50q54 0 102 -20.5t83.5 -56t56 -83t20.5 -102.5v-446h-121l-1 446q0 29 -11 54.5t-30 44.5t-44.5 30t-54.5 11t-54.5 -11t-45 -30t-30.5 -44.5t-11 -54.5l1 -446h-122v700h94z" />
    <glyph glyph-name="o" unicode="o" horiz-adv-x="698" 
d="M75 434q0 56 21.5 106t58.5 87.5t87 59t107 21.5q56 0 106 -21.5t87.5 -59t59 -87.5t21.5 -106v-168q0 -57 -21.5 -107t-59 -87t-87.5 -58.5t-106 -21.5q-57 0 -107 21.5t-87 58.5t-58.5 87t-21.5 107v168zM197 266q0 -32 12 -59.5t32.5 -48t48 -32.5t59.5 -12
q31 0 59 12t48.5 32.5t32.5 48t12 59.5v168q0 31 -12 59t-32.5 48.5t-48.5 32.5t-59 12q-32 0 -59.5 -12t-48 -32.5t-32.5 -48.5t-12 -59v-168z" />
    <glyph glyph-name="p" unicode="p" horiz-adv-x="738" 
d="M214 652q35 27 77.5 41.5t87.5 14.5q56 0 106 -21.5t87.5 -58.5t59 -86.5t21.5 -106.5v-169q0 -57 -21.5 -106.5t-59 -87t-87.5 -59t-106 -21.5q-42 0 -80 12t-71 34v-333h-123v995h96zM228 266q0 -31 12 -58.5t32.5 -48t48 -32.5t58.5 -12t59 12t48.5 32.5t32.5 48
t12 58.5v169q0 31 -12 58.5t-32.5 48t-48.5 32.5t-59 12t-58.5 -12t-48 -32.5t-32.5 -48t-12 -58.5v-169z" />
    <glyph glyph-name="q" unicode="q" horiz-adv-x="738" 
d="M85 435q0 57 21.5 106.5t58.5 86.5t87 58.5t107 21.5q45 0 87 -14.5t77 -41.5l15 48h95v-995h-122v333q-35 -22 -73.5 -34t-78.5 -12q-57 0 -107 21.5t-87 59t-58.5 87t-21.5 106.5v169zM207 266q0 -31 12 -58.5t32.5 -48t48 -32.5t59.5 -12q31 0 59 12t48.5 32.5
t32.5 48t12 58.5v169q0 31 -12 58.5t-32.5 48t-48.5 32.5t-59 12q-32 0 -59.5 -12t-48 -32.5t-32.5 -48t-12 -58.5v-169z" />
    <glyph glyph-name="r" unicode="r" horiz-adv-x="614" 
d="M219 669q28 20 60 29.5t67 9.5q46 0 86.5 -19t71.5 -51.5t51 -77t24 -95.5h-122q-3 25 -13 47.5t-25 38.5t-33.5 25.5t-39.5 9.5q-23 0 -42.5 -8.5t-34.5 -23.5t-23.5 -35t-8.5 -43l1 -476h-122v700h95z" />
    <glyph glyph-name="s" unicode="s" horiz-adv-x="677" 
d="M391 708q41 0 77 -15t64.5 -42.5t46.5 -65.5t23 -84h-123q-6 42 -31 63.5t-57 21.5h-100q-35 0 -60.5 -24t-25.5 -61q0 -36 25.5 -60.5t60.5 -24.5h100q43 0 81 -16t66.5 -44.5t45 -66.5t16.5 -81t-16.5 -81t-45 -66t-66 -44.5t-80.5 -16.5h-100q-41 0 -77.5 15t-65 42
t-47 65.5t-22.5 85.5h124q5 -43 30 -64t57 -21h100q35 0 60.5 24.5t25.5 60.5q0 18 -7 33.5t-18.5 27.5t-27 18.5t-33.5 6.5h-100q-43 0 -81 16t-66.5 44t-45 65.5t-16.5 81.5t16.5 82t45 65.5t66.5 43.5t81 16h100z" />
    <glyph glyph-name="t" unicode="t" horiz-adv-x="517" 
d="M319 910v-210h148v-123h-148v-577h-120v577h-149v123h148v210h121z" />
    <glyph glyph-name="u" unicode="u" horiz-adv-x="715" 
d="M620 700v-445q0 -54 -20.5 -102t-56 -84t-83.5 -56.5t-102 -20.5t-102 20.5t-83.5 56.5t-56.5 84t-21 102v445h123v-445q0 -29 11 -54.5t30 -44.5t44.5 -30t54.5 -11t54.5 11t44.5 30t30 44.5t11 54.5v445h122z" />
    <glyph glyph-name="v" unicode="v" horiz-adv-x="693" 
d="M633 700q-24 -107 -48 -210t-44.5 -187t-34.5 -141t-18 -72q-17 -45 -52.5 -71.5t-89.5 -26.5t-89.5 26.5t-52.5 71.5q-2 6 -9.5 34t-18.5 73t-24.5 103t-29 123.5t-31.5 136t-31 140.5h124q11 -50 24.5 -109.5t27.5 -120.5t28 -119.5t25.5 -105t19.5 -77.5t11 -38
q2 -6 10.5 -10.5t16.5 -4.5q7 0 15.5 4t10.5 10q3 10 11 43t19.5 80t25 105t27.5 118t27.5 118.5t24.5 106.5h125z" />
    <glyph glyph-name="w" unicode="w" horiz-adv-x="872" 
d="M797 700q-8 -67 -17 -135.5t-17.5 -134t-16 -123.5t-14 -103t-10.5 -74t-5 -35q-9 -49 -39.5 -76t-75.5 -27q-90 0 -113 104q-7 36 -12.5 78t-10.5 83.5t-9 80t-7 68t-6 47.5t-6 18q-1 0 -4.5 -19.5t-7.5 -50.5t-9.5 -71.5t-11.5 -81.5t-11.5 -80.5t-10.5 -69.5
q-11 -51 -40.5 -78.5t-74.5 -27.5q-42 0 -72 28.5t-41 74.5q-3 15 -11 74.5t-19 144.5t-24 186t-26 200h124q22 -181 34.5 -294.5t19 -178t9 -88t5.5 -23.5t6 23t8.5 70t15.5 119.5t27 171.5q10 48 39.5 70.5t75.5 24.5q45 0 71 -22t37 -73q16 -99 26 -171.5t16 -119.5
t9 -70t5 -23q3 0 5.5 23.5t9 87.5t19.5 178t37 295h123z" />
    <glyph glyph-name="x" unicode="x" horiz-adv-x="684" 
d="M618 700l-205 -351l206 -349h-140l-137 227l-135 -227h-139l203 351l-206 349h142l135 -228l137 228h139z" />
    <glyph glyph-name="y" unicode="y" horiz-adv-x="702" 
d="M637 700q-24 -107 -48.5 -213t-50 -213t-52 -218t-54.5 -228q-15 -57 -63.5 -91t-120.5 -34h-129v122h129q29 0 46.5 10.5t23.5 36.5l27 120q-19 1 -39.5 8t-39.5 19.5t-34 30t-23 40.5v-1q-1 2 -9 34.5t-20.5 83.5t-28 115.5t-31 131.5t-30 131t-25.5 115h124
q11 -49 24.5 -108t27.5 -120t28 -119t25.5 -105t19.5 -79t11 -40h-1q2 -6 11 -10.5t17 -4.5q7 0 15 3.5t10 10.5q16 64 33.5 136.5t35.5 147.5t35 148.5t32 139.5h124z" />
    <glyph glyph-name="z" unicode="z" horiz-adv-x="657" 
d="M458 700q36 0 60.5 -10.5t39.5 -27.5t22 -38.5t7 -42.5q0 -39 -18.5 -68t-46.5 -59q-34 -40 -71 -75t-74 -68.5t-74 -68.5t-71 -75q-8 -10 -14.5 -17.5t-6.5 -14.5q0 -13 30 -13h328v-122h-363q-26 0 -49 7.5t-41 22.5t-29 36.5t-12 49.5v4q0 39 19 67.5t47 60.5
q36 36 71.5 69t71 66.5t71.5 70t74 79.5q9 10 15 18.5t6 14.5q0 12 -31 12h-326v122h365z" />
    <glyph glyph-name="braceleft" unicode="{" horiz-adv-x="536" 
d="M456 910v-122h-127q-11 0 -15 -4t-4 -15v-284q0 -34 -18.5 -68t-51.5 -61q33 -27 51.5 -60.5t18.5 -67.5v-285q0 -11 4 -14.5t15 -3.5h123v-121h-123q-69 0 -104.5 36t-35.5 103v285q0 17 -27 35.5t-72 35.5v117q43 11 71 32.5t28 36.5v284q0 69 35.5 105t104.5 36h127z
" />
    <glyph glyph-name="bar" unicode="|" horiz-adv-x="323" 
d="M222 960v-960h-121v960h121z" />
    <glyph glyph-name="braceright" unicode="}" horiz-adv-x="536" 
d="M207 910q67 0 103.5 -36t36.5 -105v-284q0 -18 25.5 -35t73.5 -37v-114q-6 -4 -17.5 -8.5t-19.5 -7.5q-29 -12 -45.5 -28t-16.5 -27v-285q0 -67 -36.5 -103t-103.5 -36h-122v121h122q11 0 15 3.5t4 14.5v285q0 34 18.5 67.5t50.5 60.5q-32 27 -50.5 61t-18.5 68v284
q0 11 -4 15t-15 4h-127v122h127z" />
    <glyph glyph-name="asciitilde" unicode="~" horiz-adv-x="697" 
d="M90 433q0 32 12 59t33 47t50.5 31t64.5 11q34 0 62.5 -11t48.5 -31t31.5 -47t11.5 -59q0 -14 14.5 -23t28.5 -9t28.5 9t14.5 23v54h117v-54q0 -32 -12 -59.5t-33 -47.5t-50.5 -31.5t-64.5 -11.5q-34 0 -62.5 11.5t-48.5 31.5t-31.5 47.5t-11.5 59.5q0 14 -14.5 22.5
t-28.5 8.5t-28.5 -8.5t-14.5 -22.5v-55h-117v55z" />
    <glyph glyph-name="thothannobasethai" horiz-adv-x="761" 
d="M726 730l-169 -167q-24 39 -46 64t-46 39.5t-53 19.5t-67 5q-49 0 -85.5 -14.5t-62.5 -40.5q-1 -1 -3 -3.5t-2 -5.5q0 2 7.5 1t9.5 -1q45 -6 77.5 -11t59.5 -11t52.5 -15.5t57.5 -24.5q40 -21 64 -49t36.5 -59t16 -62.5t3.5 -58.5v-336h-121l-1 111q-1 35 -16.5 66.5
t-42 55.5t-62 39.5t-76.5 18.5v121q58 -4 108 -19.5t88 -43.5q-2 45 -14.5 69t-38.5 38h2q-29 12 -53 19t-48 12t-50.5 9t-59.5 10h1q-93 12 -116 83h1q-3 9 -5 18t-2 17q0 16 4.5 31.5t10.5 28t13 22.5t13 16q45 45 102 68t135 23q63 0 118.5 -18t97.5 -50l1 -2l75 74z" />
    <glyph glyph-name="thothannobasethai" unicode="&#xf700;" horiz-adv-x="761" 
d="M726 730l-169 -167q-24 39 -46 64t-46 39.5t-53 19.5t-67 5q-49 0 -85.5 -14.5t-62.5 -40.5q-1 -1 -3 -3.5t-2 -5.5q0 2 7.5 1t9.5 -1q45 -6 77.5 -11t59.5 -11t52.5 -15.5t57.5 -24.5q40 -21 64 -49t36.5 -59t16 -62.5t3.5 -58.5v-336h-121l-1 111q-1 35 -16.5 66.5
t-42 55.5t-62 39.5t-76.5 18.5v121q58 -4 108 -19.5t88 -43.5q-2 45 -14.5 69t-38.5 38h2q-29 12 -53 19t-48 12t-50.5 9t-59.5 10h1q-93 12 -116 83h1q-3 9 -5 18t-2 17q0 16 4.5 31.5t10.5 28t13 22.5t13 16q45 45 102 68t135 23q63 0 118.5 -18t97.5 -50l1 -2l75 74z" />
    <glyph glyph-name="thothannobasethai" unicode="&#x20ac;" horiz-adv-x="761" 
d="M726 730l-169 -167q-24 39 -46 64t-46 39.5t-53 19.5t-67 5q-49 0 -85.5 -14.5t-62.5 -40.5q-1 -1 -3 -3.5t-2 -5.5q0 2 7.5 1t9.5 -1q45 -6 77.5 -11t59.5 -11t52.5 -15.5t57.5 -24.5q40 -21 64 -49t36.5 -59t16 -62.5t3.5 -58.5v-336h-121l-1 111q-1 35 -16.5 66.5
t-42 55.5t-62 39.5t-76.5 18.5v121q58 -4 108 -19.5t88 -43.5q-2 45 -14.5 69t-38.5 38h2q-29 12 -53 19t-48 12t-50.5 9t-59.5 10h1q-93 12 -116 83h1q-3 9 -5 18t-2 17q0 16 4.5 31.5t10.5 28t13 22.5t13 16q45 45 102 68t135 23q63 0 118.5 -18t97.5 -50l1 -2l75 74z" />
    <glyph glyph-name="saraileftthai" 
d="M-731 1051h422v-121h-422v121z" />
    <glyph glyph-name="saraileftthai" unicode="&#xf701;" 
d="M-731 1051h422v-121h-422v121z" />
    <glyph glyph-name="saraiileftthai" 
d="M-309 1155v-66q0 -33 -12.5 -62t-34 -50.5t-51 -34t-62.5 -12.5h-262v121h262q16 0 27 11t11 27v66h122z" />
    <glyph glyph-name="saraiileftthai" unicode="&#xf702;" 
d="M-309 1155v-66q0 -33 -12.5 -62t-34 -50.5t-51 -34t-62.5 -12.5h-262v121h262q16 0 27 11t11 27v66h122z" />
    <glyph glyph-name="saraiileftthai" unicode="&#x201a;" 
d="M-309 1155v-66q0 -33 -12.5 -62t-34 -50.5t-51 -34t-62.5 -12.5h-262v121h262q16 0 27 11t11 27v66h122z" />
    <glyph glyph-name="saraueleftthai" 
d="M-731 1051h184v2q0 25 10 48t26.5 39.5t39 26.5t48.5 10q25 0 48 -10t39.5 -26.5t26.5 -39.5t10 -48q0 -28 -11 -51t-29 -39t-42.5 -25t-51.5 -9q-2 0 -2.5 0.5t-2.5 0.5h-293v121zM-427 1008q20 0 32.5 12.5t12.5 32.5q0 18 -12.5 31.5t-32.5 13.5t-32 -13.5t-12 -31.5
q0 -20 12 -32.5t32 -12.5z" />
    <glyph glyph-name="saraueleftthai" unicode="&#xf703;" 
d="M-731 1051h184v2q0 25 10 48t26.5 39.5t39 26.5t48.5 10q25 0 48 -10t39.5 -26.5t26.5 -39.5t10 -48q0 -28 -11 -51t-29 -39t-42.5 -25t-51.5 -9q-2 0 -2.5 0.5t-2.5 0.5h-293v121zM-427 1008q20 0 32.5 12.5t12.5 32.5q0 18 -12.5 31.5t-32.5 13.5t-32 -13.5t-12 -31.5
q0 -20 12 -32.5t32 -12.5z" />
    <glyph glyph-name="saraueleftthai" unicode="&#x192;" 
d="M-731 1051h184v2q0 25 10 48t26.5 39.5t39 26.5t48.5 10q25 0 48 -10t39.5 -26.5t26.5 -39.5t10 -48q0 -28 -11 -51t-29 -39t-42.5 -25t-51.5 -9q-2 0 -2.5 0.5t-2.5 0.5h-293v121zM-427 1008q20 0 32.5 12.5t12.5 32.5q0 18 -12.5 31.5t-32.5 13.5t-32 -13.5t-12 -31.5
q0 -20 12 -32.5t32 -12.5z" />
    <glyph glyph-name="saraueeleftthai" 
d="M-309 1155v-66q0 -33 -12.5 -62t-34 -50.5t-50.5 -34t-62 -12.5h-263v121h105v104h122v-104h36q15 0 26 11t11 27v66h122z" />
    <glyph glyph-name="saraueeleftthai" unicode="&#xf704;" 
d="M-309 1155v-66q0 -33 -12.5 -62t-34 -50.5t-50.5 -34t-62 -12.5h-263v121h105v104h122v-104h36q15 0 26 11t11 27v66h122z" />
    <glyph glyph-name="saraueeleftthai" unicode="&#x201e;" 
d="M-309 1155v-66q0 -33 -12.5 -62t-34 -50.5t-50.5 -34t-62 -12.5h-263v121h105v104h122v-104h36q15 0 26 11t11 27v66h122z" />
    <glyph glyph-name="ellipsis" unicode="&#x85;" horiz-adv-x="779" 
d="M90 59q0 27 20 46.5t47 19.5q28 0 47 -19.5t19 -46.5q0 -29 -19 -48t-47 -19q-27 0 -47 19t-20 48zM323 59q0 27 20 46.5t47 19.5q28 0 47 -19.5t19 -46.5q0 -29 -19 -48t-47 -19q-27 0 -47 19t-20 48zM556 59q0 27 20 46.5t47 19.5q28 0 47 -19.5t19 -46.5
q0 -29 -19 -48t-47 -19q-27 0 -47 19t-20 48z" />
    <glyph glyph-name="ellipsis" unicode="&#x2026;" horiz-adv-x="779" 
d="M90 59q0 27 20 46.5t47 19.5q28 0 47 -19.5t19 -46.5q0 -29 -19 -48t-47 -19q-27 0 -47 19t-20 48zM323 59q0 27 20 46.5t47 19.5q28 0 47 -19.5t19 -46.5q0 -29 -19 -48t-47 -19q-27 0 -47 19t-20 48zM556 59q0 27 20 46.5t47 19.5q28 0 47 -19.5t19 -46.5
q0 -29 -19 -48t-47 -19q-27 0 -47 19t-20 48z" />
    <glyph glyph-name="maieklowleftthai" 
d="M-369 1169v-239h-115v239h115z" />
    <glyph glyph-name="maieklowleftthai" unicode="&#xf705;" 
d="M-369 1169v-239h-115v239h115z" />
    <glyph glyph-name="maieklowleftthai" unicode="&#x2020;" 
d="M-369 1169v-239h-115v239h115z" />
    <glyph glyph-name="maitholowleftthai" 
d="M-639 1175q21 0 40.5 -7.5t34.5 -21t24 -32t9 -40.5v-43q25 0 51.5 7.5t48.5 23.5t36.5 42t14.5 62h101q-5 -63 -27.5 -108t-56.5 -73.5t-77.5 -41.5t-90.5 -13h-101v150h-67v95h60z" />
    <glyph glyph-name="maitholowleftthai" unicode="&#xf706;" 
d="M-639 1175q21 0 40.5 -7.5t34.5 -21t24 -32t9 -40.5v-43q25 0 51.5 7.5t48.5 23.5t36.5 42t14.5 62h101q-5 -63 -27.5 -108t-56.5 -73.5t-77.5 -41.5t-90.5 -13h-101v150h-67v95h60z" />
    <glyph glyph-name="maitholowleftthai" unicode="&#x2021;" 
d="M-639 1175q21 0 40.5 -7.5t34.5 -21t24 -32t9 -40.5v-43q25 0 51.5 7.5t48.5 23.5t36.5 42t14.5 62h101q-5 -63 -27.5 -108t-56.5 -73.5t-77.5 -41.5t-90.5 -13h-101v150h-67v95h60z" />
    <glyph glyph-name="maitrilowleftthai" 
d="M-660 1188q11 0 23.5 -3t24 -8t20 -12t11.5 -15q3 8 11.5 15t19.5 12t23.5 8t23.5 3q52 0 86.5 -33t34.5 -111q17 32 23 64t8 67h97q-5 -53 -17.5 -97t-37.5 -76t-65 -51t-100 -21v149q0 5 -10.5 10.5t-20.5 5.5q-9 0 -19.5 -5.5t-10.5 -10.5v-69h-91v69q0 5 -10.5 10.5
t-20.5 5.5q-9 0 -19.5 -5.5t-10.5 -10.5v-149h-92v137q0 57 32.5 89t86.5 32z" />
    <glyph glyph-name="maitrilowleftthai" unicode="&#xf707;" 
d="M-660 1188q11 0 23.5 -3t24 -8t20 -12t11.5 -15q3 8 11.5 15t19.5 12t23.5 8t23.5 3q52 0 86.5 -33t34.5 -111q17 32 23 64t8 67h97q-5 -53 -17.5 -97t-37.5 -76t-65 -51t-100 -21v149q0 5 -10.5 10.5t-20.5 5.5q-9 0 -19.5 -5.5t-10.5 -10.5v-69h-91v69q0 5 -10.5 10.5
t-20.5 5.5q-9 0 -19.5 -5.5t-10.5 -10.5v-149h-92v137q0 57 32.5 89t86.5 32z" />
    <glyph glyph-name="maitrilowleftthai" unicode="&#x2c6;" 
d="M-660 1188q11 0 23.5 -3t24 -8t20 -12t11.5 -15q3 8 11.5 15t19.5 12t23.5 8t23.5 3q52 0 86.5 -33t34.5 -111q17 32 23 64t8 67h97q-5 -53 -17.5 -97t-37.5 -76t-65 -51t-100 -21v149q0 5 -10.5 10.5t-20.5 5.5q-9 0 -19.5 -5.5t-10.5 -10.5v-69h-91v69q0 5 -10.5 10.5
t-20.5 5.5q-9 0 -19.5 -5.5t-10.5 -10.5v-149h-92v137q0 57 32.5 89t86.5 32z" />
    <glyph glyph-name="maichattawalowleftthai" 
d="M-400 1208v-85h88v-109h-88v-84h-119v84h-88v109h88v85h119z" />
    <glyph glyph-name="maichattawalowleftthai" unicode="&#xf708;" 
d="M-400 1208v-85h88v-109h-88v-84h-119v84h-88v109h88v85h119z" />
    <glyph glyph-name="maichattawalowleftthai" unicode="&#x2030;" 
d="M-400 1208v-85h88v-109h-88v-84h-119v84h-88v109h88v85h119z" />
    <glyph glyph-name="thanthakhatlowleftthai" 
d="M-529 1062q1 34 17.5 59t44.5 47.5t67 44.5t85 49l56 -97q-42 -25 -71 -41.5t-48 -28t-27.5 -19t-8.5 -14.5q0 -17 17 -17h38v-115h-38q-27 0 -51 10t-42 27.5t-28.5 41t-10.5 49.5v4z" />
    <glyph glyph-name="thanthakhatlowleftthai" unicode="&#xf709;" 
d="M-529 1062q1 34 17.5 59t44.5 47.5t67 44.5t85 49l56 -97q-42 -25 -71 -41.5t-48 -28t-27.5 -19t-8.5 -14.5q0 -17 17 -17h38v-115h-38q-27 0 -51 10t-42 27.5t-28.5 41t-10.5 49.5v4z" />
    <glyph glyph-name="thanthakhatlowleftthai" unicode="&#x160;" 
d="M-529 1062q1 34 17.5 59t44.5 47.5t67 44.5t85 49l56 -97q-42 -25 -71 -41.5t-48 -28t-27.5 -19t-8.5 -14.5q0 -17 17 -17h38v-115h-38q-27 0 -51 10t-42 27.5t-28.5 41t-10.5 49.5v4z" />
    <glyph glyph-name="maieklowrightthai" 
d="M-117 1169v-239h-114v239h114z" />
    <glyph glyph-name="maieklowrightthai" unicode="&#xf70a;" 
d="M-117 1169v-239h-114v239h114z" />
    <glyph glyph-name="maieklowrightthai" unicode="&#x2039;" 
d="M-117 1169v-239h-114v239h114z" />
    <glyph glyph-name="maitholowrightthai" 
d="M-359 1175q21 0 40.5 -7.5t34.5 -21t24 -32t9 -40.5v-43q24 0 50.5 7.5t48.5 23.5t36.5 42t14.5 62h101q-5 -63 -27.5 -108t-56.5 -73.5t-77.5 -41.5t-89.5 -13h-101v150h-67v95h60z" />
    <glyph glyph-name="maitholowrightthai" unicode="&#xf70b;" 
d="M-359 1175q21 0 40.5 -7.5t34.5 -21t24 -32t9 -40.5v-43q24 0 50.5 7.5t48.5 23.5t36.5 42t14.5 62h101q-5 -63 -27.5 -108t-56.5 -73.5t-77.5 -41.5t-89.5 -13h-101v150h-67v95h60z" />
    <glyph glyph-name="maitholowrightthai" unicode="&#x152;" 
d="M-359 1175q21 0 40.5 -7.5t34.5 -21t24 -32t9 -40.5v-43q24 0 50.5 7.5t48.5 23.5t36.5 42t14.5 62h101q-5 -63 -27.5 -108t-56.5 -73.5t-77.5 -41.5t-89.5 -13h-101v150h-67v95h60z" />
    <glyph glyph-name="maitrilowrightthai" 
d="M-292 1188q11 0 23.5 -3t23.5 -8t19.5 -12t11.5 -15q3 8 11.5 15t19.5 12t23.5 8t23.5 3q52 0 86.5 -33t34.5 -111q17 32 22.5 64t7.5 67h97q-5 -53 -17.5 -97t-37.5 -76t-65 -51t-99 -21v149q0 5 -10.5 10.5t-20.5 5.5q-9 0 -19.5 -5.5t-10.5 -10.5v-69h-90v69
q0 5 -10.5 10.5t-20.5 5.5q-9 0 -19.5 -5.5t-10.5 -10.5v-149h-92v137q0 57 32.5 89t86.5 32z" />
    <glyph glyph-name="maitrilowrightthai" unicode="&#xf70c;" 
d="M-292 1188q11 0 23.5 -3t23.5 -8t19.5 -12t11.5 -15q3 8 11.5 15t19.5 12t23.5 8t23.5 3q52 0 86.5 -33t34.5 -111q17 32 22.5 64t7.5 67h97q-5 -53 -17.5 -97t-37.5 -76t-65 -51t-99 -21v149q0 5 -10.5 10.5t-20.5 5.5q-9 0 -19.5 -5.5t-10.5 -10.5v-69h-90v69
q0 5 -10.5 10.5t-20.5 5.5q-9 0 -19.5 -5.5t-10.5 -10.5v-149h-92v137q0 57 32.5 89t86.5 32z" />
    <glyph glyph-name="maichattawalowrightthai" 
d="M-116 1208v-85h88v-109h-88v-84h-118v84h-88v109h87v85h119z" />
    <glyph glyph-name="maichattawalowrightthai" unicode="&#xf70d;" 
d="M-116 1208v-85h88v-109h-88v-84h-118v84h-88v109h87v85h119z" />
    <glyph glyph-name="maichattawalowrightthai" unicode="&#x17d;" 
d="M-116 1208v-85h88v-109h-88v-84h-118v84h-88v109h87v85h119z" />
    <glyph glyph-name="thanthakhatlowrightthai" 
d="M-305 1062q1 34 17.5 59t44.5 47.5t67 44.5t85 49l56 -97q-42 -25 -71 -41.5t-48 -28t-27.5 -19t-8.5 -14.5q0 -17 17 -17h38v-115h-38q-27 0 -51 10t-42 27.5t-28.5 41t-10.5 49.5v4z" />
    <glyph glyph-name="thanthakhatlowrightthai" unicode="&#xf70e;" 
d="M-305 1062q1 34 17.5 59t44.5 47.5t67 44.5t85 49l56 -97q-42 -25 -71 -41.5t-48 -28t-27.5 -19t-8.5 -14.5q0 -17 17 -17h38v-115h-38q-27 0 -51 10t-42 27.5t-28.5 41t-10.5 49.5v4z" />
    <glyph glyph-name="yoyingnobasethai" horiz-adv-x="1184" 
d="M128 646q19 39 48 69.5t65 52.5t77 33.5t84 11.5q64 0 120 -24t98 -66t66 -98t24 -120v-283q3 -23 13.5 -42.5t26.5 -34.5t37 -23.5t44 -8.5q24 0 46 9.5t38.5 26t26.5 38t10 46.5v572h122v-569q0 -60 -26.5 -112.5t-77.5 -87.5v1q-62 -45 -139 -45q-78 0 -139 45v-1
q-48 33 -75 84t-29 109v276q0 38 -14.5 72t-40 59.5t-59.5 40t-72 14.5q-42 0 -82 -21.5t-67 -53.5q29 -23 45.5 -55t16.5 -69q0 -39 -19 -73.5t-51 -58.5v-200q0 -16 11 -27t27 -11h61v-122h-60q-33 0 -62 12.5t-51 34t-34.5 51t-12.5 62.5v293h32q14 0 24.5 10t12.5 21v15
q-4 12 -14.5 21.5t-22.5 9.5h-61q14 78 33 115v1z" />
    <glyph glyph-name="yoyingnobasethai" unicode="&#xf70f;" horiz-adv-x="1184" 
d="M128 646q19 39 48 69.5t65 52.5t77 33.5t84 11.5q64 0 120 -24t98 -66t66 -98t24 -120v-283q3 -23 13.5 -42.5t26.5 -34.5t37 -23.5t44 -8.5q24 0 46 9.5t38.5 26t26.5 38t10 46.5v572h122v-569q0 -60 -26.5 -112.5t-77.5 -87.5v1q-62 -45 -139 -45q-78 0 -139 45v-1
q-48 33 -75 84t-29 109v276q0 38 -14.5 72t-40 59.5t-59.5 40t-72 14.5q-42 0 -82 -21.5t-67 -53.5q29 -23 45.5 -55t16.5 -69q0 -39 -19 -73.5t-51 -58.5v-200q0 -16 11 -27t27 -11h61v-122h-60q-33 0 -62 12.5t-51 34t-34.5 51t-12.5 62.5v293h32q14 0 24.5 10t12.5 21v15
q-4 12 -14.5 21.5t-22.5 9.5h-61q14 78 33 115v1z" />
    <glyph glyph-name="quoteleft" horiz-adv-x="310" 
d="M105 912h115v-271h-115v271z" />
    <glyph glyph-name="quoteleft" unicode="&#x2018;" horiz-adv-x="310" 
d="M105 912h115v-271h-115v271z" />
    <glyph glyph-name="quoteright" horiz-adv-x="310" 
d="M105 912h115v-271h-115v271z" />
    <glyph glyph-name="quoteright" unicode="&#x2019;" horiz-adv-x="310" 
d="M105 912h115v-271h-115v271z" />
    <glyph glyph-name="bullet" horiz-adv-x="648" 
d="M90 423q0 49 18.5 91.5t50 74t74.5 50t91 18.5t90.5 -18.5t74.5 -50t50.5 -74t18.5 -91.5q0 -48 -18.5 -91t-50.5 -74.5t-74.5 -50t-90.5 -18.5t-91 18.5t-74.5 50t-50 74.5t-18.5 91z" />
    <glyph glyph-name="bullet" unicode="&#x2022;" horiz-adv-x="648" 
d="M90 423q0 49 18.5 91.5t50 74t74.5 50t91 18.5t90.5 -18.5t74.5 -50t50.5 -74t18.5 -91.5q0 -48 -18.5 -91t-50.5 -74.5t-74.5 -50t-90.5 -18.5t-91 18.5t-74.5 50t-50 74.5t-18.5 91z" />
    <glyph glyph-name="endash" horiz-adv-x="577" 
d="M497 493v-115h-417v115h417z" />
    <glyph glyph-name="endash" unicode="&#x2013;" horiz-adv-x="577" 
d="M497 493v-115h-417v115h417z" />
    <glyph glyph-name="emdash" horiz-adv-x="661" 
d="M581 493v-115h-501v115h501z" />
    <glyph glyph-name="emdash" unicode="&#x2014;" horiz-adv-x="661" 
d="M581 493v-115h-501v115h501z" />
    <glyph glyph-name="maihanakatleftthai" 
d="M-357 1151q-5 -18 -7.5 -29t-2.5 -21q0 -29 17 -44.5t46 -15.5h325v-111h-325q-36 0 -67.5 13t-55.5 36.5t-37.5 55t-13.5 67.5q0 9 2 20.5t8 28.5h111z" />
    <glyph glyph-name="maihanakatleftthai" unicode="&#xf710;" 
d="M-357 1151q-5 -18 -7.5 -29t-2.5 -21q0 -29 17 -44.5t46 -15.5h325v-111h-325q-36 0 -67.5 13t-55.5 36.5t-37.5 55t-13.5 67.5q0 9 2 20.5t8 28.5h111z" />
    <glyph glyph-name="maihanakatleftthai" unicode="&#x2dc;" 
d="M-357 1151q-5 -18 -7.5 -29t-2.5 -21q0 -29 17 -44.5t46 -15.5h325v-111h-325q-36 0 -67.5 13t-55.5 36.5t-37.5 55t-13.5 67.5q0 9 2 20.5t8 28.5h111z" />
    <glyph glyph-name="nikhahitleftthai" 
d="M-564 1056q0 27 10.5 51t28.5 42t42 28t51 10t50.5 -10t41.5 -28t28.5 -42t10.5 -51t-10.5 -51t-28.5 -42t-41.5 -28t-50.5 -10t-51 10t-42 28t-28.5 42t-10.5 51zM-472 1056q0 -17 11.5 -28.5t28.5 -11.5q16 0 27.5 11.5t11.5 28.5q0 16 -11.5 28t-27.5 12
q-17 0 -28.5 -12t-11.5 -28z" />
    <glyph glyph-name="nikhahitleftthai" unicode="&#xf711;" 
d="M-564 1056q0 27 10.5 51t28.5 42t42 28t51 10t50.5 -10t41.5 -28t28.5 -42t10.5 -51t-10.5 -51t-28.5 -42t-41.5 -28t-50.5 -10t-51 10t-42 28t-28.5 42t-10.5 51zM-472 1056q0 -17 11.5 -28.5t28.5 -11.5q16 0 27.5 11.5t11.5 28.5q0 16 -11.5 28t-27.5 12
q-17 0 -28.5 -12t-11.5 -28z" />
    <glyph glyph-name="nikhahitleftthai" unicode="&#x2122;" 
d="M-564 1056q0 27 10.5 51t28.5 42t42 28t51 10t50.5 -10t41.5 -28t28.5 -42t10.5 -51t-10.5 -51t-28.5 -42t-41.5 -28t-50.5 -10t-51 10t-42 28t-28.5 42t-10.5 51zM-472 1056q0 -17 11.5 -28.5t28.5 -11.5q16 0 27.5 11.5t11.5 28.5q0 16 -11.5 28t-27.5 12
q-17 0 -28.5 -12t-11.5 -28z" />
    <glyph glyph-name="maitaikhuleftthai" 
d="M-263 1235q-2 -63 -31 -98t-77 -35h-220q-5 0 -12.5 -1.5t-14 -4.5t-11.5 -7t-5 -10v-35q0 -8 13 -19.5t35 -11.5q20 0 33.5 10t13.5 23h77q0 -15 14 -24t34 -9q21 0 34 10.5t13 22.5h86v-10q0 -24 -11.5 -44.5t-29.5 -35.5t-40.5 -23t-44.5 -8q-38 0 -59.5 12.5
t-32.5 23.5q-12 -11 -38 -23.5t-69 -12.5q-54 0 -86 32.5t-32 84.5v39q0 25 11.5 45t30 34.5t42.5 22t49 7.5h220q7 0 13 14t7 31h88z" />
    <glyph glyph-name="maitaikhuleftthai" unicode="&#xf712;" 
d="M-263 1235q-2 -63 -31 -98t-77 -35h-220q-5 0 -12.5 -1.5t-14 -4.5t-11.5 -7t-5 -10v-35q0 -8 13 -19.5t35 -11.5q20 0 33.5 10t13.5 23h77q0 -15 14 -24t34 -9q21 0 34 10.5t13 22.5h86v-10q0 -24 -11.5 -44.5t-29.5 -35.5t-40.5 -23t-44.5 -8q-38 0 -59.5 12.5
t-32.5 23.5q-12 -11 -38 -23.5t-69 -12.5q-54 0 -86 32.5t-32 84.5v39q0 25 11.5 45t30 34.5t42.5 22t49 7.5h220q7 0 13 14t7 31h88z" />
    <glyph glyph-name="maitaikhuleftthai" unicode="&#x161;" 
d="M-263 1235q-2 -63 -31 -98t-77 -35h-220q-5 0 -12.5 -1.5t-14 -4.5t-11.5 -7t-5 -10v-35q0 -8 13 -19.5t35 -11.5q20 0 33.5 10t13.5 23h77q0 -15 14 -24t34 -9q21 0 34 10.5t13 22.5h86v-10q0 -24 -11.5 -44.5t-29.5 -35.5t-40.5 -23t-44.5 -8q-38 0 -59.5 12.5
t-32.5 23.5q-12 -11 -38 -23.5t-69 -12.5q-54 0 -86 32.5t-32 84.5v39q0 25 11.5 45t30 34.5t42.5 22t49 7.5h220q7 0 13 14t7 31h88z" />
    <glyph glyph-name="maiekupperleftthai" 
d="M-313 1459v-239h-115v239h115z" />
    <glyph glyph-name="maiekupperleftthai" unicode="&#xf713;" 
d="M-313 1459v-239h-115v239h115z" />
    <glyph glyph-name="maiekupperleftthai" unicode="&#x203a;" 
d="M-313 1459v-239h-115v239h115z" />
    <glyph glyph-name="maithoupperleftthai" 
d="M-496 1465q21 0 40.5 -7.5t34.5 -21t24 -32t9 -40.5v-43q25 0 51.5 7.5t48.5 23.5t36 42t14 62h101q-5 -63 -27 -108t-56.5 -73.5t-77.5 -41.5t-90 -13h-101v150h-67v95h60z" />
    <glyph glyph-name="maithoupperleftthai" unicode="&#xf714;" 
d="M-496 1465q21 0 40.5 -7.5t34.5 -21t24 -32t9 -40.5v-43q25 0 51.5 7.5t48.5 23.5t36 42t14 62h101q-5 -63 -27 -108t-56.5 -73.5t-77.5 -41.5t-90 -13h-101v150h-67v95h60z" />
    <glyph glyph-name="maithoupperleftthai" unicode="&#x153;" 
d="M-496 1465q21 0 40.5 -7.5t34.5 -21t24 -32t9 -40.5v-43q25 0 51.5 7.5t48.5 23.5t36 42t14 62h101q-5 -63 -27 -108t-56.5 -73.5t-77.5 -41.5t-90 -13h-101v150h-67v95h60z" />
    <glyph glyph-name="maitriupperleftthai" 
d="M-448 1478q11 0 23.5 -3t24 -8t20 -12t11.5 -15q3 8 11.5 15t19.5 12t23 8t23 3q52 0 86.5 -33t34.5 -111q17 32 23 64t8 67h97q-5 -53 -17.5 -97t-37.5 -76t-65 -51t-99 -21l-1 149q0 5 -10.5 10.5t-20.5 5.5q-8 0 -18.5 -5.5t-10.5 -10.5v-69h-91v69q0 5 -10.5 10.5
t-20.5 5.5q-9 0 -19.5 -5.5t-10.5 -10.5v-149h-92v137q0 57 32.5 89t86.5 32z" />
    <glyph glyph-name="maitriupperleftthai" unicode="&#xf715;" 
d="M-448 1478q11 0 23.5 -3t24 -8t20 -12t11.5 -15q3 8 11.5 15t19.5 12t23 8t23 3q52 0 86.5 -33t34.5 -111q17 32 23 64t8 67h97q-5 -53 -17.5 -97t-37.5 -76t-65 -51t-99 -21l-1 149q0 5 -10.5 10.5t-20.5 5.5q-8 0 -18.5 -5.5t-10.5 -10.5v-69h-91v69q0 5 -10.5 10.5
t-20.5 5.5q-9 0 -19.5 -5.5t-10.5 -10.5v-149h-92v137q0 57 32.5 89t86.5 32z" />
    <glyph glyph-name="maichattawaupperleftthai" 
d="M-311 1498v-85h88v-109h-87v-84h-119v84h-88v109h88v85h118z" />
    <glyph glyph-name="maichattawaupperleftthai" unicode="&#xf716;" 
d="M-311 1498v-85h88v-109h-87v-84h-119v84h-88v109h88v85h118z" />
    <glyph glyph-name="maichattawaupperleftthai" unicode="&#x17e;" 
d="M-311 1498v-85h88v-109h-87v-84h-119v84h-88v109h88v85h118z" />
    <glyph glyph-name="thanthakhatupperleftthai" 
d="M-480 1332q1 34 17.5 59t44.5 47.5t67 44.5t85 49l56 -97q-42 -25 -71 -41.5t-48 -28t-27.5 -19t-8.5 -14.5q0 -17 17 -17h38v-115h-38q-27 0 -51 10t-42 27.5t-28.5 41t-10.5 49.5v4z" />
    <glyph glyph-name="thanthakhatupperleftthai" unicode="&#xf717;" 
d="M-480 1332q1 34 17.5 59t44.5 47.5t67 44.5t85 49l56 -97q-42 -25 -71 -41.5t-48 -28t-27.5 -19t-8.5 -14.5q0 -17 17 -17h38v-115h-38q-27 0 -51 10t-42 27.5t-28.5 41t-10.5 49.5v4z" />
    <glyph glyph-name="thanthakhatupperleftthai" unicode="&#x178;" 
d="M-480 1332q1 34 17.5 59t44.5 47.5t67 44.5t85 49l56 -97q-42 -25 -71 -41.5t-48 -28t-27.5 -19t-8.5 -14.5q0 -17 17 -17h38v-115h-38q-27 0 -51 10t-42 27.5t-28.5 41t-10.5 49.5v4z" />
    <glyph glyph-name="uni00A0" unicode="&#xa0;" horiz-adv-x="620" 
 />
    <glyph glyph-name="uni00A0" unicode="&#xe00;" horiz-adv-x="620" 
 />
    <glyph glyph-name="kokaithai" unicode="&#xa1;" horiz-adv-x="821" 
d="M126 454h31q15 0 26.5 10.5t11.5 27.5q0 15 -10.5 26.5t-27.5 11.5h-61q3 59 29 110.5t68 90t96 60.5t114 22q63 0 119 -24t98 -66t66 -98t24 -120v-505h-122v505q0 38 -14.5 72t-40 59.5t-59.5 40t-72 14.5q-42 0 -81 -21.5t-66 -53.5q29 -23 44.5 -55.5t15.5 -68.5
q0 -42 -18 -77.5t-51 -55.5v-359h-120v454z" />
    <glyph glyph-name="kokaithai" unicode="&#xe01;" horiz-adv-x="821" 
d="M126 454h31q15 0 26.5 10.5t11.5 27.5q0 15 -10.5 26.5t-27.5 11.5h-61q3 59 29 110.5t68 90t96 60.5t114 22q63 0 119 -24t98 -66t66 -98t24 -120v-505h-122v505q0 38 -14.5 72t-40 59.5t-59.5 40t-72 14.5q-42 0 -81 -21.5t-66 -53.5q29 -23 44.5 -55.5t15.5 -68.5
q0 -42 -18 -77.5t-51 -55.5v-359h-120v454z" />
    <glyph glyph-name="khokhaithai" unicode="&#xa2;" horiz-adv-x="742" 
d="M110 805h86q39 0 73 -14.5t58.5 -40t39 -59t14.5 -70.5q0 -33 -11.5 -63t-31.5 -54t-47.5 -41t-58.5 -23v-183q0 -29 11 -53.5t29.5 -43.5t43 -29.5t52.5 -10.5t53 10.5t44 29.5t29.5 43.5t10.5 53.5v548h122v-555q0 -53 -20 -100t-55.5 -82t-82.5 -55.5t-101 -20.5
q-53 0 -100 20.5t-82 55.5t-55.5 82t-20.5 100v309h86q25 0 44 18t19 44q0 25 -18.5 44t-44.5 19h-86v121z" />
    <glyph glyph-name="khokhaithai" unicode="&#xe02;" horiz-adv-x="742" 
d="M110 805h86q39 0 73 -14.5t58.5 -40t39 -59t14.5 -70.5q0 -33 -11.5 -63t-31.5 -54t-47.5 -41t-58.5 -23v-183q0 -29 11 -53.5t29.5 -43.5t43 -29.5t52.5 -10.5t53 10.5t44 29.5t29.5 43.5t10.5 53.5v548h122v-555q0 -53 -20 -100t-55.5 -82t-82.5 -55.5t-101 -20.5
q-53 0 -100 20.5t-82 55.5t-55.5 82t-20.5 100v309h86q25 0 44 18t19 44q0 25 -18.5 44t-44.5 19h-86v121z" />
    <glyph glyph-name="khokhuatthai" unicode="&#xa3;" horiz-adv-x="774" 
d="M158 805q0 -26 12.5 -40t32.5 -14t32 15t12 39q85 -19 125 -68.5t40 -115.5q0 -33 -11 -63t-31 -54t-47 -41t-59 -23v-183q0 -29 10.5 -53.5t29 -43.5t43 -29.5t53.5 -10.5q28 0 53 10.5t43.5 29.5t29.5 43.5t11 53.5v548h122v-555q0 -53 -20.5 -100t-55.5 -82t-82 -55.5
t-101 -20.5t-101 20.5t-82 55.5t-55 82t-20 100v308h86q24 0 43 18.5t19 44.5q0 8 -2.5 17t-6.5 16q-18 -9 -38 -14.5t-40 -5.5q-38 0 -68.5 13t-51.5 36t-32 54.5t-11 67.5h118z" />
    <glyph glyph-name="khokhuatthai" unicode="&#xe03;" horiz-adv-x="774" 
d="M158 805q0 -26 12.5 -40t32.5 -14t32 15t12 39q85 -19 125 -68.5t40 -115.5q0 -33 -11 -63t-31 -54t-47 -41t-59 -23v-183q0 -29 10.5 -53.5t29 -43.5t43 -29.5t53.5 -10.5q28 0 53 10.5t43.5 29.5t29.5 43.5t11 53.5v548h122v-555q0 -53 -20.5 -100t-55.5 -82t-82 -55.5
t-101 -20.5t-101 20.5t-82 55.5t-55 82t-20 100v308h86q24 0 43 18.5t19 44.5q0 8 -2.5 17t-6.5 16q-18 -9 -38 -14.5t-40 -5.5q-38 0 -68.5 13t-51.5 36t-32 54.5t-11 67.5h118z" />
    <glyph glyph-name="khokhwaithai" unicode="&#xa4;" horiz-adv-x="861" 
d="M116 0v496q0 66 24.5 123.5t67.5 100.5t100.5 68t123.5 25t124 -25t101 -68t68 -100.5t25 -123.5l1 -496h-122l-1 496q0 40 -15.5 75.5t-42 62t-62.5 42t-76 15.5t-75.5 -15.5t-62 -42t-42 -62t-15.5 -75.5v-94q39 29 85 46.5t100 17.5h41v-122h-40q-38 0 -72 -14.5
t-59.5 -39.5t-40 -59t-14.5 -72l1 -159h-122z" />
    <glyph glyph-name="khokhwaithai" unicode="&#xe04;" horiz-adv-x="861" 
d="M116 0v496q0 66 24.5 123.5t67.5 100.5t100.5 68t123.5 25t124 -25t101 -68t68 -100.5t25 -123.5l1 -496h-122l-1 496q0 40 -15.5 75.5t-42 62t-62.5 42t-76 15.5t-75.5 -15.5t-62 -42t-42 -62t-15.5 -75.5v-94q39 29 85 46.5t100 17.5h41v-122h-40q-38 0 -72 -14.5
t-59.5 -39.5t-40 -59t-14.5 -72l1 -159h-122z" />
    <glyph glyph-name="khokhonthai" unicode="&#xa5;" horiz-adv-x="867" 
d="M463 466v-122h-40q-38 0 -72 -14.5t-59 -39.5t-39.5 -59t-14.5 -72v-159h-122l-1 624q0 39 15 73.5t41 60t60.5 40.5t73.5 15q36 0 68.5 -13t58.5 -37q26 24 60 37t70 13q39 0 73 -15t60 -40.5t41 -60t15 -73.5l1 -624h-122l-1 624q0 28 -19.5 47.5t-47.5 19.5
q-29 0 -48.5 -19.5t-19.5 -47.5v-47h-122v47q0 28 -19.5 47.5t-47.5 19.5q-29 0 -48.5 -19.5t-19.5 -47.5v-222q40 30 84 46t101 18h41z" />
    <glyph glyph-name="khokhonthai" unicode="&#xe05;" horiz-adv-x="867" 
d="M463 466v-122h-40q-38 0 -72 -14.5t-59 -39.5t-39.5 -59t-14.5 -72v-159h-122l-1 624q0 39 15 73.5t41 60t60.5 40.5t73.5 15q36 0 68.5 -13t58.5 -37q26 24 60 37t70 13q39 0 73 -15t60 -40.5t41 -60t15 -73.5l1 -624h-122l-1 624q0 28 -19.5 47.5t-47.5 19.5
q-29 0 -48.5 -19.5t-19.5 -47.5v-47h-122v47q0 28 -19.5 47.5t-47.5 19.5q-29 0 -48.5 -19.5t-19.5 -47.5v-222q40 30 84 46t101 18h41z" />
    <glyph glyph-name="khorakhangthai" unicode="&#xa6;" horiz-adv-x="855" 
d="M735 805v-558q0 -80 -18 -129.5t-46 -77.5t-62.5 -38t-67.5 -10q-55 0 -101.5 25t-89.5 57q-20 -36 -57 -59t-82 -23q-33 0 -62.5 12.5t-51 34t-34 51t-12.5 62.5q0 25 8.5 49.5t23.5 45t35.5 35.5t45.5 22q-5 13 -8.5 32t-5.5 44v178h86q24 0 43 18.5t19 44.5
q0 19 -9 33q-17 -9 -37 -14.5t-41 -5.5q-29 0 -57.5 10t-51.5 31t-37.5 53.5t-14.5 76.5h119q0 -23 11 -38.5t31 -15.5q26 0 35 16.5t9 37.5q87 -20 126 -70t39 -114q0 -33 -11 -63t-31 -54t-47 -41t-59 -23v-44q0 -37 13.5 -72t35.5 -66.5t50.5 -57.5t58.5 -45.5t59 -30
t52 -10.5q13 0 26 4t23.5 18t17 40.5t6.5 70.5v558h121zM162 152q0 -20 14.5 -34.5t34.5 -14.5t34.5 14.5t14.5 34.5t-14.5 34.5t-34.5 14.5t-34.5 -14.5t-14.5 -34.5z" />
    <glyph glyph-name="khorakhangthai" unicode="&#xe06;" horiz-adv-x="855" 
d="M735 805v-558q0 -80 -18 -129.5t-46 -77.5t-62.5 -38t-67.5 -10q-55 0 -101.5 25t-89.5 57q-20 -36 -57 -59t-82 -23q-33 0 -62.5 12.5t-51 34t-34 51t-12.5 62.5q0 25 8.5 49.5t23.5 45t35.5 35.5t45.5 22q-5 13 -8.5 32t-5.5 44v178h86q24 0 43 18.5t19 44.5
q0 19 -9 33q-17 -9 -37 -14.5t-41 -5.5q-29 0 -57.5 10t-51.5 31t-37.5 53.5t-14.5 76.5h119q0 -23 11 -38.5t31 -15.5q26 0 35 16.5t9 37.5q87 -20 126 -70t39 -114q0 -33 -11 -63t-31 -54t-47 -41t-59 -23v-44q0 -37 13.5 -72t35.5 -66.5t50.5 -57.5t58.5 -45.5t59 -30
t52 -10.5q13 0 26 4t23.5 18t17 40.5t6.5 70.5v558h121zM162 152q0 -20 14.5 -34.5t34.5 -14.5t34.5 14.5t14.5 34.5t-14.5 34.5t-34.5 14.5t-34.5 -14.5t-14.5 -34.5z" />
    <glyph glyph-name="ngonguthai" unicode="&#xa7;" horiz-adv-x="678" 
d="M341 805h62q33 0 62 -12.5t50.5 -34t34 -50.5t12.5 -62l1 -646h-169q-71 0 -131.5 30.5t-104.5 84.5t-68.5 128.5t-24.5 162.5v62h122v-62q0 -62 15.5 -114t43 -90t65 -59t82.5 -21h47v525q0 15 -11 26t-26 11h-62v121z" />
    <glyph glyph-name="ngonguthai" unicode="&#xe07;" horiz-adv-x="678" 
d="M341 805h62q33 0 62 -12.5t50.5 -34t34 -50.5t12.5 -62l1 -646h-169q-71 0 -131.5 30.5t-104.5 84.5t-68.5 128.5t-24.5 162.5v62h122v-62q0 -62 15.5 -114t43 -90t65 -59t82.5 -21h47v525q0 15 -11 26t-26 11h-62v121z" />
    <glyph glyph-name="chochanthai" unicode="&#xa8;" horiz-adv-x="730" 
d="M275 466h31q103 0 186 -65v130q0 33 -13 62.5t-35 51t-51.5 34.5t-62.5 13t-61.5 -11.5t-50.5 -32.5t-35 -51t-15 -67h-123q0 67 23 120t62 89t91 55t109 19q58 0 110 -22t90.5 -60.5t61 -90t22.5 -109.5l1 -531h-122l-1 158q0 38 -15 72t-40.5 59.5t-59.5 40t-71 14.5
h-31v122z" />
    <glyph glyph-name="chochanthai" unicode="&#xe08;" horiz-adv-x="730" 
d="M275 466h31q103 0 186 -65v130q0 33 -13 62.5t-35 51t-51.5 34.5t-62.5 13t-61.5 -11.5t-50.5 -32.5t-35 -51t-15 -67h-123q0 67 23 120t62 89t91 55t109 19q58 0 110 -22t90.5 -60.5t61 -90t22.5 -109.5l1 -531h-122l-1 158q0 38 -15 72t-40.5 59.5t-59.5 40t-71 14.5
h-31v122z" />
    <glyph glyph-name="chochingthai" unicode="&#xa9;" horiz-adv-x="855" 
d="M105 380h123v-132q0 -63 29.5 -98.5t81.5 -35.5q22 0 49 14t55 37t54 52.5t46.5 60.5t33 61t12.5 54v112q0 39 -14 73t-38.5 59t-57.5 39.5t-72 14.5q-34 0 -64 -10.5t-54 -30.5t-40.5 -50.5t-22.5 -69.5h-120q0 67 25 120t66.5 89t96 55t113.5 19q63 0 119 -24t97 -66
t65 -98t24 -120v-122q0 -19 -4 -37t-12 -42q54 -18 84 -59.5t30 -92.5q0 -33 -12.5 -62.5t-34 -51t-51 -34t-62.5 -12.5q-36 0 -71 17.5t-63 59.5q-47 -38 -87 -58t-89 -20q-53 0 -96 18.5t-74 52t-48 81t-17 105.5v132zM597 152q0 -22 15.5 -38t37.5 -16q23 0 38.5 16
t15.5 38q0 23 -15.5 38.5t-38.5 15.5q-22 0 -37.5 -15.5t-15.5 -38.5z" />
    <glyph glyph-name="chochingthai" unicode="&#xe09;" horiz-adv-x="855" 
d="M105 380h123v-132q0 -63 29.5 -98.5t81.5 -35.5q22 0 49 14t55 37t54 52.5t46.5 60.5t33 61t12.5 54v112q0 39 -14 73t-38.5 59t-57.5 39.5t-72 14.5q-34 0 -64 -10.5t-54 -30.5t-40.5 -50.5t-22.5 -69.5h-120q0 67 25 120t66.5 89t96 55t113.5 19q63 0 119 -24t97 -66
t65 -98t24 -120v-122q0 -19 -4 -37t-12 -42q54 -18 84 -59.5t30 -92.5q0 -33 -12.5 -62.5t-34 -51t-51 -34t-62.5 -12.5q-36 0 -71 17.5t-63 59.5q-47 -38 -87 -58t-89 -20q-53 0 -96 18.5t-74 52t-48 81t-17 105.5v132zM597 152q0 -22 15.5 -38t37.5 -16q23 0 38.5 16
t15.5 38q0 23 -15.5 38.5t-38.5 15.5q-22 0 -37.5 -15.5t-15.5 -38.5z" />
    <glyph glyph-name="chochangthai" unicode="&#xaa;" horiz-adv-x="732" 
d="M110 805q55 -1 82.5 -1h29.5q29 -4 54.5 -17t46 -32.5t34.5 -44.5t20 -53q27 2 50 14.5t40.5 32t27.5 44.5t10 53v56h122v-62q0 -58 -24 -109.5t-69 -88.5q42 -38 67.5 -89.5t25.5 -108.5v-148q0 -53 -20.5 -100t-56 -82.5t-82.5 -56t-100 -20.5t-100 20.5t-82 56
t-55.5 82.5t-20.5 100v308h85q29 0 46.5 18.5t17.5 43.5t-18.5 44t-45.5 19h-85v121zM232 257q0 -29 11 -55.5t29.5 -46t43.5 -31t52 -11.5q28 0 53 11.5t43.5 31t29.5 46t11 55.5v137q0 29 -11 55t-29.5 45.5t-43.5 31t-53 11.5h-8q-20 -38 -53 -63t-75 -33v-184z" />
    <glyph glyph-name="chochangthai" unicode="&#xe0a;" horiz-adv-x="732" 
d="M110 805q55 -1 82.5 -1h29.5q29 -4 54.5 -17t46 -32.5t34.5 -44.5t20 -53q27 2 50 14.5t40.5 32t27.5 44.5t10 53v56h122v-62q0 -58 -24 -109.5t-69 -88.5q42 -38 67.5 -89.5t25.5 -108.5v-148q0 -53 -20.5 -100t-56 -82.5t-82.5 -56t-100 -20.5t-100 20.5t-82 56
t-55.5 82.5t-20.5 100v308h85q29 0 46.5 18.5t17.5 43.5t-18.5 44t-45.5 19h-85v121zM232 257q0 -29 11 -55.5t29.5 -46t43.5 -31t52 -11.5q28 0 53 11.5t43.5 31t29.5 46t11 55.5v137q0 29 -11 55t-29.5 45.5t-43.5 31t-53 11.5h-8q-20 -38 -53 -63t-75 -33v-184z" />
    <glyph glyph-name="sosothai" unicode="&#xab;" horiz-adv-x="764" 
d="M537 857h122v-62q0 -58 -24.5 -109.5t-69.5 -88.5q45 -37 69.5 -87.5t24.5 -110.5v-148q0 -53 -20.5 -100t-56 -82.5t-82.5 -56t-100 -20.5q-54 0 -101 20.5t-82 56t-55 82.5t-20 100v308h85q26 0 44.5 18t18.5 44q0 9 -2.5 17.5t-6.5 15.5q-17 -9 -37 -14.5t-42 -5.5
q-35 0 -64.5 12.5t-51 35t-34 54t-12.5 69.5h119q0 -23 10 -38.5t33 -15.5q26 0 35 16t9 38q38 -5 63 -18t43 -30h-1q47 -44 57 -100q27 2 50.5 14.5t41 32t27.5 44.5t10 53v56zM264 257q0 -29 10.5 -53.5t29 -43t43 -29t53.5 -10.5q28 0 53 10.5t43.5 29t29.5 43t11 53.5
v137q0 29 -11 55t-30 45.5t-43.5 31t-52.5 11.5h-9q-19 -38 -52 -63t-75 -33v-184z" />
    <glyph glyph-name="sosothai" unicode="&#xe0b;" horiz-adv-x="764" 
d="M537 857h122v-62q0 -58 -24.5 -109.5t-69.5 -88.5q45 -37 69.5 -87.5t24.5 -110.5v-148q0 -53 -20.5 -100t-56 -82.5t-82.5 -56t-100 -20.5q-54 0 -101 20.5t-82 56t-55 82.5t-20 100v308h85q26 0 44.5 18t18.5 44q0 9 -2.5 17.5t-6.5 15.5q-17 -9 -37 -14.5t-42 -5.5
q-35 0 -64.5 12.5t-51 35t-34 54t-12.5 69.5h119q0 -23 10 -38.5t33 -15.5q26 0 35 16t9 38q38 -5 63 -18t43 -30h-1q47 -44 57 -100q27 2 50.5 14.5t41 32t27.5 44.5t10 53v56zM264 257q0 -29 10.5 -53.5t29 -43t43 -29t53.5 -10.5q28 0 53 10.5t43.5 29t29.5 43t11 53.5
v137q0 29 -11 55t-30 45.5t-43.5 31t-52.5 11.5h-9q-19 -38 -52 -63t-75 -33v-184z" />
    <glyph glyph-name="chochoethai" unicode="&#xac;" horiz-adv-x="1194" 
d="M344 122v-122h-60q-33 0 -62 12.5t-51 34t-34.5 51t-12.5 62.5v294h32q17 0 26 11.5t9 25.5t-9 25.5t-26 13.5h-61q5 61 31 113t67.5 89.5t95 59t113.5 21.5q64 0 120 -24t98 -66t66 -98t24 -120v-162q5 -31 19 -63.5t31 -61.5q7 -12 19.5 -29.5t28.5 -34t35 -28
t39 -11.5q22 0 36 5.5t21.5 22t10 47t2.5 80.5v535h122v-535q0 -56 -5 -106t-24.5 -88.5t-58 -61t-104.5 -22.5q-75 0 -144 60q-22 -26 -54 -43t-70 -17q-33 0 -62 12.5t-50.5 34t-34 51t-12.5 62.5q0 30 10 56.5t28.5 48t44 35.5t55.5 18q-2 10 -3.5 17t-1.5 13v165
q0 39 -14.5 72.5t-40 59t-59.5 40t-72 14.5q-42 0 -82 -21.5t-67 -53.5q29 -23 45.5 -55t16.5 -69q0 -40 -18.5 -74.5t-51.5 -57.5v-200q0 -16 11 -27t27 -11h61zM560 152q0 -22 15.5 -38t38.5 -16t38.5 16t15.5 38t-15.5 38t-38.5 16t-38.5 -16t-15.5 -38z" />
    <glyph glyph-name="chochoethai" unicode="&#xe0c;" horiz-adv-x="1194" 
d="M344 122v-122h-60q-33 0 -62 12.5t-51 34t-34.5 51t-12.5 62.5v294h32q17 0 26 11.5t9 25.5t-9 25.5t-26 13.5h-61q5 61 31 113t67.5 89.5t95 59t113.5 21.5q64 0 120 -24t98 -66t66 -98t24 -120v-162q5 -31 19 -63.5t31 -61.5q7 -12 19.5 -29.5t28.5 -34t35 -28
t39 -11.5q22 0 36 5.5t21.5 22t10 47t2.5 80.5v535h122v-535q0 -56 -5 -106t-24.5 -88.5t-58 -61t-104.5 -22.5q-75 0 -144 60q-22 -26 -54 -43t-70 -17q-33 0 -62 12.5t-50.5 34t-34 51t-12.5 62.5q0 30 10 56.5t28.5 48t44 35.5t55.5 18q-2 10 -3.5 17t-1.5 13v165
q0 39 -14.5 72.5t-40 59t-59.5 40t-72 14.5q-42 0 -82 -21.5t-67 -53.5q29 -23 45.5 -55t16.5 -69q0 -40 -18.5 -74.5t-51.5 -57.5v-200q0 -16 11 -27t27 -11h61zM560 152q0 -22 15.5 -38t38.5 -16t38.5 16t15.5 38t-15.5 38t-38.5 16t-38.5 -16t-15.5 -38z" />
    <glyph glyph-name="yoyingthai" unicode="&#xad;" horiz-adv-x="1197" 
d="M335 124v-124h-61q-34 0 -63.5 12.5t-51.5 34.5t-35 51.5t-13 63.5v305h33q18 0 26.5 11.5t8.5 25.5t-9 26t-26 14h-64q6 62 32.5 115t68.5 91.5t96.5 60.5t116.5 22q65 0 122 -24.5t99 -67t66.5 -99.5t24.5 -122v-293q3 -23 14 -43.5t27.5 -35.5t37.5 -23.5t44 -8.5
q25 0 47.5 9.5t39.5 26t27 38.5t11 48v587h123v-876q0 -50 -19 -95t-52.5 -79t-78.5 -54t-97 -20q-41 0 -80 13t-72 40t-58 69.5t-38 102.5h125q16 -45 49.5 -73.5t72.5 -28.5q25 0 47.5 9.5t39.5 26.5t27 39t11 48v79q-29 -15 -60.5 -24.5t-63.5 -9.5q-51 0 -95.5 19
t-78 52.5t-53 78.5t-21.5 97v281q0 39 -15 73.5t-40.5 60t-59.5 40.5t-73 15q-43 0 -83 -21.5t-68 -54.5q29 -23 45.5 -56t16.5 -70q0 -38 -18.5 -73.5t-51.5 -59.5v-212q0 -16 11 -27t26 -11h63z" />
    <glyph glyph-name="yoyingthai" unicode="&#xe0d;" horiz-adv-x="1197" 
d="M335 124v-124h-61q-34 0 -63.5 12.5t-51.5 34.5t-35 51.5t-13 63.5v305h33q18 0 26.5 11.5t8.5 25.5t-9 26t-26 14h-64q6 62 32.5 115t68.5 91.5t96.5 60.5t116.5 22q65 0 122 -24.5t99 -67t66.5 -99.5t24.5 -122v-293q3 -23 14 -43.5t27.5 -35.5t37.5 -23.5t44 -8.5
q25 0 47.5 9.5t39.5 26t27 38.5t11 48v587h123v-876q0 -50 -19 -95t-52.5 -79t-78.5 -54t-97 -20q-41 0 -80 13t-72 40t-58 69.5t-38 102.5h125q16 -45 49.5 -73.5t72.5 -28.5q25 0 47.5 9.5t39.5 26.5t27 39t11 48v79q-29 -15 -60.5 -24.5t-63.5 -9.5q-51 0 -95.5 19
t-78 52.5t-53 78.5t-21.5 97v281q0 39 -15 73.5t-40.5 60t-59.5 40.5t-73 15q-43 0 -83 -21.5t-68 -54.5q29 -23 45.5 -56t16.5 -70q0 -38 -18.5 -73.5t-51.5 -59.5v-212q0 -16 11 -27t26 -11h63z" />
    <glyph glyph-name="yoyingthai" unicode="&#xde;" horiz-adv-x="1197" 
d="M335 124v-124h-61q-34 0 -63.5 12.5t-51.5 34.5t-35 51.5t-13 63.5v305h33q18 0 26.5 11.5t8.5 25.5t-9 26t-26 14h-64q6 62 32.5 115t68.5 91.5t96.5 60.5t116.5 22q65 0 122 -24.5t99 -67t66.5 -99.5t24.5 -122v-293q3 -23 14 -43.5t27.5 -35.5t37.5 -23.5t44 -8.5
q25 0 47.5 9.5t39.5 26t27 38.5t11 48v587h123v-876q0 -50 -19 -95t-52.5 -79t-78.5 -54t-97 -20q-41 0 -80 13t-72 40t-58 69.5t-38 102.5h125q16 -45 49.5 -73.5t72.5 -28.5q25 0 47.5 9.5t39.5 26.5t27 39t11 48v79q-29 -15 -60.5 -24.5t-63.5 -9.5q-51 0 -95.5 19
t-78 52.5t-53 78.5t-21.5 97v281q0 39 -15 73.5t-40.5 60t-59.5 40.5t-73 15q-43 0 -83 -21.5t-68 -54.5q29 -23 45.5 -56t16.5 -70q0 -38 -18.5 -73.5t-51.5 -59.5v-212q0 -16 11 -27t26 -11h63z" />
    <glyph glyph-name="dochadathai" unicode="&#xae;" horiz-adv-x="813" 
d="M51 122h60q15 0 26.5 11t11.5 28q0 88 -0.5 169.5t-0.5 169.5q0 11 -11.5 20.5t-25.5 9.5h-61q5 61 32.5 113t71 89.5t99.5 59t118 21.5q65 0 123.5 -25t102.5 -67t70 -98t26 -118v-755h-125q-16 23 -34.5 36.5t-49.5 13.5t-49.5 -13.5t-34.5 -36.5h-129q12 37 33.5 69
t49.5 54.5t61 35.5t69 13q41 0 87 -17v600q0 37 -16 71t-43.5 59.5t-64 40.5t-76.5 15q-22 0 -45 -6t-44.5 -16t-40 -23.5t-31.5 -29.5q26 -20 41 -49.5t19 -61.5v-345q0 -49 -28.5 -91t-77.5 -60h1q-14 -5 -27 -7t-26 -2h-61v122z" />
    <glyph glyph-name="dochadathai" unicode="&#xe0e;" horiz-adv-x="813" 
d="M51 122h60q15 0 26.5 11t11.5 28q0 88 -0.5 169.5t-0.5 169.5q0 11 -11.5 20.5t-25.5 9.5h-61q5 61 32.5 113t71 89.5t99.5 59t118 21.5q65 0 123.5 -25t102.5 -67t70 -98t26 -118v-755h-125q-16 23 -34.5 36.5t-49.5 13.5t-49.5 -13.5t-34.5 -36.5h-129q12 37 33.5 69
t49.5 54.5t61 35.5t69 13q41 0 87 -17v600q0 37 -16 71t-43.5 59.5t-64 40.5t-76.5 15q-22 0 -45 -6t-44.5 -16t-40 -23.5t-31.5 -29.5q26 -20 41 -49.5t19 -61.5v-345q0 -49 -28.5 -91t-77.5 -60h1q-14 -5 -27 -7t-26 -2h-61v122z" />
    <glyph glyph-name="topatakthai" unicode="&#xaf;" horiz-adv-x="815" 
d="M53 122h60q15 0 26 10.5t11 27.5v340q0 11 -11.5 20.5t-25.5 9.5h-63q6 60 33.5 112t71 90t99.5 59.5t119 21.5q65 0 123.5 -25t102.5 -67t70 -98t26 -118v-755h-117q-7 22 -16.5 36t-29.5 14t-29.5 -14.5t-15.5 -35.5h-100q-6 22 -16 36t-30 14q-21 0 -30 -14.5
t-14 -35.5h-121q4 36 18.5 67t36.5 54.5t49.5 36.5t57.5 13q26 0 52 -9t46 -25q22 16 47.5 25t51.5 9q10 0 19 -1t19 -4v589q0 37 -16 71t-43.5 59.5t-64 40.5t-76.5 15q-23 0 -46 -5.5t-44.5 -15.5t-40 -24t-31.5 -30q26 -20 43.5 -48.5t17.5 -62.5v-345q0 -35 -12 -64.5
t-33.5 -50.5t-50.5 -33t-63 -12h-60v122z" />
    <glyph glyph-name="topatakthai" unicode="&#xe0f;" horiz-adv-x="815" 
d="M53 122h60q15 0 26 10.5t11 27.5v340q0 11 -11.5 20.5t-25.5 9.5h-63q6 60 33.5 112t71 90t99.5 59.5t119 21.5q65 0 123.5 -25t102.5 -67t70 -98t26 -118v-755h-117q-7 22 -16.5 36t-29.5 14t-29.5 -14.5t-15.5 -35.5h-100q-6 22 -16 36t-30 14q-21 0 -30 -14.5
t-14 -35.5h-121q4 36 18.5 67t36.5 54.5t49.5 36.5t57.5 13q26 0 52 -9t46 -25q22 16 47.5 25t51.5 9q10 0 19 -1t19 -4v589q0 37 -16 71t-43.5 59.5t-64 40.5t-76.5 15q-23 0 -46 -5.5t-44.5 -15.5t-40 -24t-31.5 -30q26 -20 43.5 -48.5t17.5 -62.5v-345q0 -35 -12 -64.5
t-33.5 -50.5t-50.5 -33t-63 -12h-60v122z" />
    <glyph glyph-name="thothanthai" unicode="&#xb0;" horiz-adv-x="773" 
d="M113 722q45 45 102 68t135 23q63 0 118.5 -19t98.5 -51l75 74l86 -87l-159 -158q-36 57 -94 87t-128 32q-49 0 -80 -13t-56 -36q-5 -5 -5 -9q0 -7 13 -8q46 -6 77 -10.5t56 -10.5t49.5 -15t56.5 -24q40 -21 64 -49t36.5 -59t16 -62.5t3.5 -58.5l1 -336h-122l-1 111
q-1 35 -16.5 66.5t-42 55.5t-62 39.5t-76.5 18.5v121q58 -4 108 -19.5t88 -43.5q-2 45 -19 71.5t-45 41t-64.5 21.5t-76.5 13q-27 4 -58.5 11t-58 20.5t-44 36.5t-17.5 60q0 16 4.5 31.5t10.5 28t13 22.5t13 16zM578 -57v-193h-117q-6 22 -17 36.5t-24 14.5t-23.5 -14.5
t-15.5 -36.5h-111q-6 22 -17 36.5t-24 14.5t-23.5 -14.5t-15.5 -36.5h-120q5 36 19 67.5t35 55t48 36.5t57 13q52 0 95 -34q43 34 96 34q28 0 36 -4v25h122z" />
    <glyph glyph-name="thothanthai" unicode="&#xe10;" horiz-adv-x="773" 
d="M113 722q45 45 102 68t135 23q63 0 118.5 -19t98.5 -51l75 74l86 -87l-159 -158q-36 57 -94 87t-128 32q-49 0 -80 -13t-56 -36q-5 -5 -5 -9q0 -7 13 -8q46 -6 77 -10.5t56 -10.5t49.5 -15t56.5 -24q40 -21 64 -49t36.5 -59t16 -62.5t3.5 -58.5l1 -336h-122l-1 111
q-1 35 -16.5 66.5t-42 55.5t-62 39.5t-76.5 18.5v121q58 -4 108 -19.5t88 -43.5q-2 45 -19 71.5t-45 41t-64.5 21.5t-76.5 13q-27 4 -58.5 11t-58 20.5t-44 36.5t-17.5 60q0 16 4.5 31.5t10.5 28t13 22.5t13 16zM578 -57v-193h-117q-6 22 -17 36.5t-24 14.5t-23.5 -14.5
t-15.5 -36.5h-111q-6 22 -17 36.5t-24 14.5t-23.5 -14.5t-15.5 -36.5h-120q5 36 19 67.5t35 55t48 36.5t57 13q52 0 95 -34q43 34 96 34q28 0 36 -4v25h122z" />
    <glyph glyph-name="thonangmonthothai" unicode="&#xb1;" horiz-adv-x="892" 
d="M156 0v559h85q25 2 43 19.5t18 41.5q0 18 -10 34q-17 -9 -35 -14.5t-41 -5.5q-30 0 -56.5 9t-47.5 29t-36 53t-21 80h119q5 -22 16.5 -36t25.5 -14q13 0 25 13.5t20 36.5q26 -5 44 -11t31.5 -14.5t24.5 -19t24 -25.5q42 35 86 55.5t86 22.5q61 0 102 -20t66 -54.5
t35.5 -81t10.5 -100.5l1 -557h-122l-1 557q0 20 -4 43.5t-13.5 43.5t-26.5 33.5t-43 13.5q-23 0 -59.5 -22t-78.5 -64q-6 -60 -46 -104.5t-100 -60.5l1 -440h-123z" />
    <glyph glyph-name="thonangmonthothai" unicode="&#xe11;" horiz-adv-x="892" 
d="M156 0v559h85q25 2 43 19.5t18 41.5q0 18 -10 34q-17 -9 -35 -14.5t-41 -5.5q-30 0 -56.5 9t-47.5 29t-36 53t-21 80h119q5 -22 16.5 -36t25.5 -14q13 0 25 13.5t20 36.5q26 -5 44 -11t31.5 -14.5t24.5 -19t24 -25.5q42 35 86 55.5t86 22.5q61 0 102 -20t66 -54.5
t35.5 -81t10.5 -100.5l1 -557h-122l-1 557q0 20 -4 43.5t-13.5 43.5t-26.5 33.5t-43 13.5q-23 0 -59.5 -22t-78.5 -64q-6 -60 -46 -104.5t-100 -60.5l1 -440h-123z" />
    <glyph glyph-name="thophuthaothai" unicode="&#xb2;" horiz-adv-x="1256" 
d="M385 579v37q0 32 -19.5 53.5t-48.5 21.5q-32 0 -53.5 -22t-21.5 -53v-425q0 -32 15.5 -53.5t47.5 -21.5q29 0 44.5 21.5t15.5 53.5l-1 77q-1 29 -12.5 50.5t-46.5 27.5v120q43 -4 76.5 -21t56.5 -43.5t35.5 -60.5t12.5 -72v-78q0 -42 -13 -78t-37 -62.5t-57.5 -41.5
t-73.5 -15q-41 0 -74.5 15.5t-58.5 42t-38.5 62.5t-13.5 77v425q0 41 15.5 77t42 62.5t62.5 42t77 15.5q38 0 69.5 -14t58.5 -40q55 54 130 54q40 0 76 -15.5t62 -42t41.5 -62.5t15.5 -77v-221q3 -22 15 -51.5t29.5 -60.5t39.5 -61t45 -54t46 -38.5t42 -14.5q14 0 20.5 8
t6.5 31v651h122v-651q0 -32 -9 -61t-27 -51.5t-46 -36t-67 -13.5q-34 0 -72 18t-76 50q-23 -32 -57 -50t-72 -18q-33 0 -62.5 12.5t-51 34.5t-34 51.5t-12.5 62.5q0 51 29.5 92t78.5 58l11 3q-8 22 -13 41t-7 38v231q0 31 -22 53t-52 22q-29 0 -48.5 -21.5t-19.5 -53.5v-37
h-122zM657 154q1 -24 15.5 -39.5t37.5 -15.5t38.5 15.5t15.5 38.5q0 21 -15.5 37t-38.5 16q-22 0 -37.5 -16t-15.5 -36z" />
    <glyph glyph-name="thophuthaothai" unicode="&#xe12;" horiz-adv-x="1256" 
d="M385 579v37q0 32 -19.5 53.5t-48.5 21.5q-32 0 -53.5 -22t-21.5 -53v-425q0 -32 15.5 -53.5t47.5 -21.5q29 0 44.5 21.5t15.5 53.5l-1 77q-1 29 -12.5 50.5t-46.5 27.5v120q43 -4 76.5 -21t56.5 -43.5t35.5 -60.5t12.5 -72v-78q0 -42 -13 -78t-37 -62.5t-57.5 -41.5
t-73.5 -15q-41 0 -74.5 15.5t-58.5 42t-38.5 62.5t-13.5 77v425q0 41 15.5 77t42 62.5t62.5 42t77 15.5q38 0 69.5 -14t58.5 -40q55 54 130 54q40 0 76 -15.5t62 -42t41.5 -62.5t15.5 -77v-221q3 -22 15 -51.5t29.5 -60.5t39.5 -61t45 -54t46 -38.5t42 -14.5q14 0 20.5 8
t6.5 31v651h122v-651q0 -32 -9 -61t-27 -51.5t-46 -36t-67 -13.5q-34 0 -72 18t-76 50q-23 -32 -57 -50t-72 -18q-33 0 -62.5 12.5t-51 34.5t-34 51.5t-12.5 62.5q0 51 29.5 92t78.5 58l11 3q-8 22 -13 41t-7 38v231q0 31 -22 53t-52 22q-29 0 -48.5 -21.5t-19.5 -53.5v-37
h-122zM657 154q1 -24 15.5 -39.5t37.5 -15.5t38.5 15.5t15.5 38.5q0 21 -15.5 37t-38.5 16q-22 0 -37.5 -16t-15.5 -36z" />
    <glyph glyph-name="nonenthai" unicode="&#xb3;" horiz-adv-x="1219" 
d="M344 122v-122h-60q-33 0 -62 12.5t-51 34t-34.5 51t-12.5 62.5v294h32q17 0 26 11.5t9 25.5t-9 25.5t-26 13.5h-61q5 61 31 113t67.5 89.5t95 59t113.5 21.5q64 0 120 -24t98 -66t66 -98t24 -120v-364q3 -16 10 -21t16 -5q19 0 43 15.5t48 40t47 56t40.5 63.5t28.5 61.5
t11 51.5v402h121v-401q0 -43 -21 -98q27 -4 49 -19t37.5 -36.5t24.5 -47t9 -50.5q0 -33 -13 -62.5t-34.5 -51.5t-50.5 -34.5t-62 -12.5q-40 0 -74 18.5t-57 49.5q-38 -33 -75 -50.5t-72 -17.5q-32 0 -59 10t-47 31t-31 55t-11 82v335q0 39 -14.5 72.5t-40 59t-59.5 40
t-72 14.5q-42 0 -82 -21.5t-67 -53.5q29 -23 45.5 -55t16.5 -69q0 -40 -18.5 -74.5t-51.5 -57.5v-200q0 -16 11 -27t27 -11h61zM961 154q1 -24 15.5 -39.5t37.5 -15.5t38.5 15.5t15.5 38.5q0 21 -15.5 37t-38.5 16q-22 0 -37.5 -16t-15.5 -36z" />
    <glyph glyph-name="nonenthai" unicode="&#xe13;" horiz-adv-x="1219" 
d="M344 122v-122h-60q-33 0 -62 12.5t-51 34t-34.5 51t-12.5 62.5v294h32q17 0 26 11.5t9 25.5t-9 25.5t-26 13.5h-61q5 61 31 113t67.5 89.5t95 59t113.5 21.5q64 0 120 -24t98 -66t66 -98t24 -120v-364q3 -16 10 -21t16 -5q19 0 43 15.5t48 40t47 56t40.5 63.5t28.5 61.5
t11 51.5v402h121v-401q0 -43 -21 -98q27 -4 49 -19t37.5 -36.5t24.5 -47t9 -50.5q0 -33 -13 -62.5t-34.5 -51.5t-50.5 -34.5t-62 -12.5q-40 0 -74 18.5t-57 49.5q-38 -33 -75 -50.5t-72 -17.5q-32 0 -59 10t-47 31t-31 55t-11 82v335q0 39 -14.5 72.5t-40 59t-59.5 40
t-72 14.5q-42 0 -82 -21.5t-67 -53.5q29 -23 45.5 -55t16.5 -69q0 -40 -18.5 -74.5t-51.5 -57.5v-200q0 -16 11 -27t27 -11h61zM961 154q1 -24 15.5 -39.5t37.5 -15.5t38.5 15.5t15.5 38.5q0 21 -15.5 37t-38.5 16q-22 0 -37.5 -16t-15.5 -36z" />
    <glyph glyph-name="dodekthai" unicode="&#xb4;" horiz-adv-x="846" 
d="M308 466q44 -4 81.5 -21t64.5 -43.5t42.5 -60.5t15.5 -72v-80q0 -41 -16.5 -76.5t-44 -62.5t-64.5 -42.5t-79 -15.5q-41 0 -78 15.5t-65 42.5t-44 62.5t-16 76.5v307q0 66 25 123.5t68 100.5t100.5 68t123.5 25t124 -25t101 -68t68 -100.5t25 -123.5l1 -496h-122l-1 496
q0 40 -15.5 75.5t-42 62t-62.5 42t-76 15.5t-75.5 -15.5t-62 -42t-42 -62t-15.5 -75.5v-307q0 -15 6.5 -28.5t18 -24t26 -16.5t30.5 -6q33 0 57 22.5t24 52.5v79q0 27 -21.5 49t-59.5 29v120z" />
    <glyph glyph-name="dodekthai" unicode="&#xe14;" horiz-adv-x="846" 
d="M308 466q44 -4 81.5 -21t64.5 -43.5t42.5 -60.5t15.5 -72v-80q0 -41 -16.5 -76.5t-44 -62.5t-64.5 -42.5t-79 -15.5q-41 0 -78 15.5t-65 42.5t-44 62.5t-16 76.5v307q0 66 25 123.5t68 100.5t100.5 68t123.5 25t124 -25t101 -68t68 -100.5t25 -123.5l1 -496h-122l-1 496
q0 40 -15.5 75.5t-42 62t-62.5 42t-76 15.5t-75.5 -15.5t-62 -42t-42 -62t-15.5 -75.5v-307q0 -15 6.5 -28.5t18 -24t26 -16.5t30.5 -6q33 0 57 22.5t24 52.5v79q0 27 -21.5 49t-59.5 29v120z" />
    <glyph glyph-name="totaothai" unicode="&#xb5;" horiz-adv-x="877" 
d="M639 0v616q0 31 -20.5 53t-50.5 22q-29 0 -50 -21.5t-21 -53.5v-37h-122v37q0 32 -21 53.5t-50 21.5q-31 0 -51.5 -22t-20.5 -53v-427q0 -15 6.5 -28.5t18 -24t26 -16.5t30.5 -6t31.5 6t26.5 16.5t18 24t7 28.5v79q0 27 -22.5 49t-60.5 29v120q45 -4 82.5 -21.5t64.5 -44
t42 -60.5t15 -71v-80q0 -41 -16.5 -76.5t-44 -62.5t-64.5 -42.5t-79 -15.5q-41 0 -78 15.5t-64.5 42.5t-44 62.5t-16.5 76.5v427q0 41 15.5 77t42 62.5t62.5 42t77 15.5q72 0 127 -55q55 55 131 55q40 0 76 -15.5t62.5 -42t42 -62.5t15.5 -77v-616h-122z" />
    <glyph glyph-name="totaothai" unicode="&#xe15;" horiz-adv-x="877" 
d="M639 0v616q0 31 -20.5 53t-50.5 22q-29 0 -50 -21.5t-21 -53.5v-37h-122v37q0 32 -21 53.5t-50 21.5q-31 0 -51.5 -22t-20.5 -53v-427q0 -15 6.5 -28.5t18 -24t26 -16.5t30.5 -6t31.5 6t26.5 16.5t18 24t7 28.5v79q0 27 -22.5 49t-60.5 29v120q45 -4 82.5 -21.5t64.5 -44
t42 -60.5t15 -71v-80q0 -41 -16.5 -76.5t-44 -62.5t-64.5 -42.5t-79 -15.5q-41 0 -78 15.5t-64.5 42.5t-44 62.5t-16.5 76.5v427q0 41 15.5 77t42 62.5t62.5 42t77 15.5q72 0 127 -55q55 55 131 55q40 0 76 -15.5t62.5 -42t42 -62.5t15.5 -77v-616h-122z" />
    <glyph glyph-name="thothungthai" unicode="&#xb6;" horiz-adv-x="828" 
d="M710 0h-122v505q0 39 -14.5 72.5t-40 59t-59.5 40t-72 14.5q-42 0 -82 -21.5t-67 -53.5q29 -23 45.5 -55t16.5 -69q0 -40 -18.5 -74.5t-51.5 -57.5v-200q0 -16 11 -27t27 -11h61v-122h-60q-33 0 -62 12.5t-51 34t-34.5 51t-12.5 62.5v294h32q17 0 26 11.5t9 25.5t-9 25.5
t-26 13.5h-61q5 61 31 113t67.5 89.5t95 59t113.5 21.5q64 0 120 -24t98 -66t66 -98t24 -120v-505z" />
    <glyph glyph-name="thothungthai" unicode="&#xe16;" horiz-adv-x="828" 
d="M710 0h-122v505q0 39 -14.5 72.5t-40 59t-59.5 40t-72 14.5q-42 0 -82 -21.5t-67 -53.5q29 -23 45.5 -55t16.5 -69q0 -40 -18.5 -74.5t-51.5 -57.5v-200q0 -16 11 -27t27 -11h61v-122h-60q-33 0 -62 12.5t-51 34t-34.5 51t-12.5 62.5v294h32q17 0 26 11.5t9 25.5t-9 25.5
t-26 13.5h-61q5 61 31 113t67.5 89.5t95 59t113.5 21.5q64 0 120 -24t98 -66t66 -98t24 -120v-505z" />
    <glyph glyph-name="thothahanthai" unicode="&#xb7;" horiz-adv-x="847" 
d="M111 805h122v-189q26 33 56 66t64.5 60.5t73 46.5t80.5 24h13q50 0 88.5 -18t64.5 -51.5t39.5 -80.5t13.5 -105v-558h-121l-1 558q0 19 -4 42.5t-13.5 43.5t-26.5 33.5t-43 13.5q-24 0 -54.5 -18t-62 -46.5t-61.5 -64.5t-53.5 -73t-38 -71t-14.5 -58v-360h-122v805z" />
    <glyph glyph-name="thothahanthai" unicode="&#x2219;" horiz-adv-x="847" 
d="M111 805h122v-189q26 33 56 66t64.5 60.5t73 46.5t80.5 24h13q50 0 88.5 -18t64.5 -51.5t39.5 -80.5t13.5 -105v-558h-121l-1 558q0 19 -4 42.5t-13.5 43.5t-26.5 33.5t-43 13.5q-24 0 -54.5 -18t-62 -46.5t-61.5 -64.5t-53.5 -73t-38 -71t-14.5 -58v-360h-122v805z" />
    <glyph glyph-name="thothahanthai" unicode="&#xe17;" horiz-adv-x="847" 
d="M111 805h122v-189q26 33 56 66t64.5 60.5t73 46.5t80.5 24h13q50 0 88.5 -18t64.5 -51.5t39.5 -80.5t13.5 -105v-558h-121l-1 558q0 19 -4 42.5t-13.5 43.5t-26.5 33.5t-43 13.5q-24 0 -54.5 -18t-62 -46.5t-61.5 -64.5t-53.5 -73t-38 -71t-14.5 -58v-360h-122v805z" />
    <glyph glyph-name="thothongthai" unicode="&#xb8;" horiz-adv-x="800" 
d="M644 817l86 -83l-145 -147q-40 51 -86 77.5t-119 26.5q-48 0 -82 -10t-56.5 -24t-33 -30.5t-10.5 -29.5q0 -21 22 -34.5t57 -22.5t79 -15.5t88.5 -13.5t85 -17.5t68.5 -27.5q29 -18 49 -42.5t33 -52.5t18.5 -56.5t5.5 -55.5q0 -57 -20 -106t-56 -85t-86.5 -56t-111.5 -20
q-86 0 -144.5 22.5t-95 57.5t-52.5 78.5t-16 85.5v251q-24 24 -35.5 52.5t-11.5 58.5q0 55 29 95.5t73.5 67t98.5 39.5t104 13q118 0 203 -58zM243 236q0 -57 49.5 -89.5t137.5 -32.5q32 0 60 10t48.5 28.5t32.5 45.5t12 62q0 42 -15.5 67t-41.5 39t-60.5 19.5t-72 9
t-76.5 8.5t-74 17v-184z" />
    <glyph glyph-name="thothongthai" unicode="&#xe18;" horiz-adv-x="800" 
d="M644 817l86 -83l-145 -147q-40 51 -86 77.5t-119 26.5q-48 0 -82 -10t-56.5 -24t-33 -30.5t-10.5 -29.5q0 -21 22 -34.5t57 -22.5t79 -15.5t88.5 -13.5t85 -17.5t68.5 -27.5q29 -18 49 -42.5t33 -52.5t18.5 -56.5t5.5 -55.5q0 -57 -20 -106t-56 -85t-86.5 -56t-111.5 -20
q-86 0 -144.5 22.5t-95 57.5t-52.5 78.5t-16 85.5v251q-24 24 -35.5 52.5t-11.5 58.5q0 55 29 95.5t73.5 67t98.5 39.5t104 13q118 0 203 -58zM243 236q0 -57 49.5 -89.5t137.5 -32.5q32 0 60 10t48.5 28.5t32.5 45.5t12 62q0 42 -15.5 67t-41.5 39t-60.5 19.5t-72 9
t-76.5 8.5t-74 17v-184z" />
    <glyph glyph-name="nonuthai" unicode="&#xb9;" horiz-adv-x="875" 
d="M736 805v-422q-3 -32 -6 -48.5t-8 -30.5l5 -2q48 -17 78 -58t30 -92q0 -33 -13 -62.5t-34.5 -51t-50.5 -34t-62 -12.5q-45 0 -82 22t-58 62q-48 -35 -95 -55.5t-87 -27.5l-23 -1q-30 0 -66.5 9t-68.5 36t-53.5 77.5t-21.5 133.5v557h123v-557q0 -50 10.5 -77.5t24.5 -40
t29 -14.5t23 -2q27 0 58 14.5t61 35.5t56.5 45t45.5 44q27 32 43.5 66t19.5 76v410h122zM622 152q0 -23 15.5 -38.5t37.5 -15.5q23 0 38.5 15.5t15.5 38.5q0 22 -15.5 38t-38.5 16q-22 0 -37.5 -16t-15.5 -38z" />
    <glyph glyph-name="nonuthai" unicode="&#xe19;" horiz-adv-x="875" 
d="M736 805v-422q-3 -32 -6 -48.5t-8 -30.5l5 -2q48 -17 78 -58t30 -92q0 -33 -13 -62.5t-34.5 -51t-50.5 -34t-62 -12.5q-45 0 -82 22t-58 62q-48 -35 -95 -55.5t-87 -27.5l-23 -1q-30 0 -66.5 9t-68.5 36t-53.5 77.5t-21.5 133.5v557h123v-557q0 -50 10.5 -77.5t24.5 -40
t29 -14.5t23 -2q27 0 58 14.5t61 35.5t56.5 45t45.5 44q27 32 43.5 66t19.5 76v410h122zM622 152q0 -23 15.5 -38.5t37.5 -15.5q23 0 38.5 15.5t15.5 38.5q0 22 -15.5 38t-38.5 16q-22 0 -37.5 -16t-15.5 -38z" />
    <glyph glyph-name="bobaimaithai" unicode="&#xba;" horiz-adv-x="846" 
d="M731 805v-505q0 -64 -24 -120t-66 -98t-98 -66t-120 -24t-120 24t-98 66t-66 98t-24 120v505h122v-506q0 -38 14.5 -72t40 -59t59.5 -39.5t72 -14.5t72 14.5t59.5 39.5t40 59t14.5 72v506h122z" />
    <glyph glyph-name="bobaimaithai" unicode="&#xe1a;" horiz-adv-x="846" 
d="M731 805v-505q0 -64 -24 -120t-66 -98t-98 -66t-120 -24t-120 24t-98 66t-66 98t-24 120v505h122v-506q0 -38 14.5 -72t40 -59t59.5 -39.5t72 -14.5t72 14.5t59.5 39.5t40 59t14.5 72v506h122z" />
    <glyph glyph-name="poplathai" unicode="&#xbb;" horiz-adv-x="846" 
d="M731 1035v-735q0 -64 -24 -120t-66 -98t-98 -66t-120 -24t-120 24t-98 66t-66 98t-24 120v505h122v-506q0 -38 14.5 -72t40 -59t59.5 -39.5t72 -14.5t72 14.5t59.5 39.5t40 59t14.5 72v736h122z" />
    <glyph glyph-name="poplathai" unicode="&#xe1b;" horiz-adv-x="846" 
d="M731 1035v-735q0 -64 -24 -120t-66 -98t-98 -66t-120 -24t-120 24t-98 66t-66 98t-24 120v505h122v-506q0 -38 14.5 -72t40 -59t59.5 -39.5t72 -14.5t72 14.5t59.5 39.5t40 59t14.5 72v736h122z" />
    <glyph glyph-name="phophungthai" unicode="&#xbc;" horiz-adv-x="895" 
d="M780 805v-616q0 -41 -15.5 -77t-42 -62.5t-62.5 -42t-76 -15.5t-75.5 14.5t-61.5 39.5q-27 -25 -62.5 -39.5t-72.5 -14.5q-41 0 -77 15.5t-62.5 42t-42 62.5t-15.5 77v457q0 33 13 61.5t34.5 50.5t50.5 34.5t62 12.5h61v-121h-62q-15 0 -26 -11t-11 -27v-457
q0 -31 22 -53t53 -22q30 0 52.5 22t22.5 53v269h122v-269q0 -31 22 -53t53 -22t53 22t22 53v616h121z" />
    <glyph glyph-name="phophungthai" unicode="&#xe1c;" horiz-adv-x="895" 
d="M780 805v-616q0 -41 -15.5 -77t-42 -62.5t-62.5 -42t-76 -15.5t-75.5 14.5t-61.5 39.5q-27 -25 -62.5 -39.5t-72.5 -14.5q-41 0 -77 15.5t-62.5 42t-42 62.5t-15.5 77v457q0 33 13 61.5t34.5 50.5t50.5 34.5t62 12.5h61v-121h-62q-15 0 -26 -11t-11 -27v-457
q0 -31 22 -53t53 -22q30 0 52.5 22t22.5 53v269h122v-269q0 -31 22 -53t53 -22t53 22t22 53v616h121z" />
    <glyph glyph-name="fofathai" unicode="&#xbd;" horiz-adv-x="895" 
d="M780 1035v-846q0 -41 -15.5 -77t-42 -62.5t-62.5 -42t-77 -15.5q-39 0 -74 14t-61 40q-26 -26 -62 -40t-74 -14q-41 0 -77 15.5t-62.5 42t-42 62.5t-15.5 77v457q0 33 13 61.5t34.5 50.5t50.5 34.5t62 12.5h61v-121h-62q-15 0 -26 -11t-11 -27v-457q0 -31 22 -53t53 -22
q30 0 52.5 22t22.5 53v269h121v-269q0 -31 22 -53t54 -22q31 0 53 22t22 53v846h121z" />
    <glyph glyph-name="fofathai" unicode="&#xe1d;" horiz-adv-x="895" 
d="M780 1035v-846q0 -41 -15.5 -77t-42 -62.5t-62.5 -42t-77 -15.5q-39 0 -74 14t-61 40q-26 -26 -62 -40t-74 -14q-41 0 -77 15.5t-62.5 42t-42 62.5t-15.5 77v457q0 33 13 61.5t34.5 50.5t50.5 34.5t62 12.5h61v-121h-62q-15 0 -26 -11t-11 -27v-457q0 -31 22 -53t53 -22
q30 0 52.5 22t22.5 53v269h121v-269q0 -31 22 -53t54 -22q31 0 53 22t22 53v846h121z" />
    <glyph glyph-name="phophanthai" unicode="&#xbe;" horiz-adv-x="895" 
d="M780 805v-616q0 -41 -15.5 -77t-42 -62.5t-62.5 -42t-76 -15.5q-82 0 -136 54q-26 -26 -61.5 -40t-74.5 -14q-41 0 -77 15.5t-62.5 42t-42 62.5t-15.5 77v616h122v-616q0 -31 22 -53t53 -22q30 0 52.5 22t22.5 53v616h122v-616q0 -31 22 -53t53 -22t53 22t22 53v616h121z
" />
    <glyph glyph-name="phophanthai" unicode="&#xe1e;" horiz-adv-x="895" 
d="M780 805v-616q0 -41 -15.5 -77t-42 -62.5t-62.5 -42t-76 -15.5q-82 0 -136 54q-26 -26 -61.5 -40t-74.5 -14q-41 0 -77 15.5t-62.5 42t-42 62.5t-15.5 77v616h122v-616q0 -31 22 -53t53 -22q30 0 52.5 22t22.5 53v616h122v-616q0 -31 22 -53t53 -22t53 22t22 53v616h121z
" />
    <glyph glyph-name="fofanthai" unicode="&#xbf;" horiz-adv-x="895" 
d="M780 1035v-846q0 -41 -15.5 -77t-42 -62.5t-62.5 -42t-76 -15.5q-82 0 -136 54q-26 -26 -61.5 -40t-74.5 -14q-41 0 -77 15.5t-62.5 42t-42 62.5t-15.5 77v616h122v-616q0 -31 22 -53t53 -22q30 0 52.5 22t22.5 53v616h122v-616q0 -31 22 -53t53 -22t53 22t22 53v846h121
z" />
    <glyph glyph-name="fofanthai" unicode="&#xe1f;" horiz-adv-x="895" 
d="M780 1035v-846q0 -41 -15.5 -77t-42 -62.5t-62.5 -42t-76 -15.5q-82 0 -136 54q-26 -26 -61.5 -40t-74.5 -14q-41 0 -77 15.5t-62.5 42t-42 62.5t-15.5 77v616h122v-616q0 -31 22 -53t53 -22q30 0 52.5 22t22.5 53v616h122v-616q0 -31 22 -53t53 -22t53 22t22 53v846h121
z" />
    <glyph glyph-name="phosamphaothai" unicode="&#xc0;" horiz-adv-x="820" 
d="M113 124q16 0 27 11t11 27v333q0 11 -12 20.5t-26 9.5h-62q4 62 32 115t72.5 91.5t102 60t120.5 21.5q66 0 125 -25t104 -68t71 -99.5t26 -120.5v-500h-124v501q0 37 -16.5 71.5t-44.5 60t-64.5 41t-76.5 15.5q-23 0 -47 -6t-45.5 -16t-40.5 -24t-32 -30
q27 -20 44.5 -51.5t17.5 -73.5v-326q-1 -33 -14 -62t-34.5 -50.5t-50.5 -35t-62 -14.5h-63v124h62z" />
    <glyph glyph-name="phosamphaothai" unicode="&#xe20;" horiz-adv-x="820" 
d="M113 124q16 0 27 11t11 27v333q0 11 -12 20.5t-26 9.5h-62q4 62 32 115t72.5 91.5t102 60t120.5 21.5q66 0 125 -25t104 -68t71 -99.5t26 -120.5v-500h-124v501q0 37 -16.5 71.5t-44.5 60t-64.5 41t-76.5 15.5q-23 0 -47 -6t-45.5 -16t-40.5 -24t-32 -30
q27 -20 44.5 -51.5t17.5 -73.5v-326q-1 -33 -14 -62t-34.5 -50.5t-50.5 -35t-62 -14.5h-63v124h62z" />
    <glyph glyph-name="momathai" unicode="&#xc1;" horiz-adv-x="906" 
d="M786 805v-554q0 -84 -22 -135t-54.5 -78.5t-69.5 -36.5t-67 -9q-55 0 -107.5 24.5t-101.5 59.5q-21 -35 -59 -59.5t-83 -24.5q-34 0 -63.5 12.5t-51.5 34.5t-34.5 51.5t-12.5 64.5q0 51 29.5 93t84.5 62q-5 16 -8.5 35t-5.5 41v419h125v-403q4 -38 19 -78t43 -68
q18 -20 45 -44.5t58 -45.5t63 -35.5t60 -14.5q9 0 24 2t29.5 15t25 40t10.5 78v554h124zM167 155q0 -23 16 -39.5t39 -16.5q22 0 39 16.5t17 39.5t-16.5 39t-39.5 16q-22 0 -38.5 -16t-16.5 -39z" />
    <glyph glyph-name="momathai" unicode="&#xe21;" horiz-adv-x="906" 
d="M786 805v-554q0 -84 -22 -135t-54.5 -78.5t-69.5 -36.5t-67 -9q-55 0 -107.5 24.5t-101.5 59.5q-21 -35 -59 -59.5t-83 -24.5q-34 0 -63.5 12.5t-51.5 34.5t-34.5 51.5t-12.5 64.5q0 51 29.5 93t84.5 62q-5 16 -8.5 35t-5.5 41v419h125v-403q4 -38 19 -78t43 -68
q18 -20 45 -44.5t58 -45.5t63 -35.5t60 -14.5q9 0 24 2t29.5 15t25 40t10.5 78v554h124zM167 155q0 -23 16 -39.5t39 -16.5q22 0 39 16.5t17 39.5t-16.5 39t-39.5 16q-22 0 -38.5 -16t-16.5 -39z" />
    <glyph glyph-name="yoyakthai" unicode="&#xc2;" horiz-adv-x="830" 
d="M715 805v-551q0 -47 -16 -93.5t-52.5 -83.5t-95.5 -60.5t-145 -24.5h-4q-81 0 -140 22t-97 59.5t-56.5 86t-18.5 101.5q0 109 70 179q-33 32 -51.5 71t-18.5 84q0 43 17.5 81.5t46.5 67t68 45t81 16.5h92v-123h-92q-37 0 -63 -25t-26 -62q0 -32 22 -55t54 -30h105v-124
q-51 0 -85.5 -9.5t-56 -26t-30.5 -39.5t-9 -50q0 -14 5 -38.5t24 -48t56.5 -41t103.5 -17.5h4q64 1 101 17.5t55.5 39t23 45t4.5 36.5v551h124z" />
    <glyph glyph-name="yoyakthai" unicode="&#xe22;" horiz-adv-x="830" 
d="M715 805v-551q0 -47 -16 -93.5t-52.5 -83.5t-95.5 -60.5t-145 -24.5h-4q-81 0 -140 22t-97 59.5t-56.5 86t-18.5 101.5q0 109 70 179q-33 32 -51.5 71t-18.5 84q0 43 17.5 81.5t46.5 67t68 45t81 16.5h92v-123h-92q-37 0 -63 -25t-26 -62q0 -32 22 -55t54 -30h105v-124
q-51 0 -85.5 -9.5t-56 -26t-30.5 -39.5t-9 -50q0 -14 5 -38.5t24 -48t56.5 -41t103.5 -17.5h4q64 1 101 17.5t55.5 39t23 45t4.5 36.5v551h124z" />
    <glyph glyph-name="roruathai" unicode="&#xc3;" horiz-adv-x="761" 
d="M686 730l-147 -145q-15 18 -32.5 36.5t-38.5 33.5t-45.5 24.5t-54.5 9.5q-26 0 -54 -6.5t-52 -20t-39.5 -35t-15.5 -51.5q0 -17 22.5 -33.5t53 -30.5t62.5 -25.5t51 -18.5q27 -10 58.5 -21t63 -24t60.5 -30.5t51.5 -39.5t36 -51t13.5 -66q0 -53 -24.5 -98t-64.5 -77.5
t-91.5 -50.5t-105.5 -18q-74 0 -129.5 22.5t-94.5 57.5t-61 77t-28 81h124q5 -16 17.5 -35.5t35 -37t56 -29.5t80.5 -12q41 0 71.5 10.5t50.5 27t30 38t10 43.5t-20 39.5t-49.5 30.5t-62.5 23t-59 18q-41 16 -88.5 32.5t-89.5 41.5t-71 62t-32 93q0 53 24.5 97t64 75.5
t91 48.5t105.5 17q97 0 174 -51l54 56z" />
    <glyph glyph-name="roruathai" unicode="&#xe23;" horiz-adv-x="761" 
d="M686 730l-147 -145q-15 18 -32.5 36.5t-38.5 33.5t-45.5 24.5t-54.5 9.5q-26 0 -54 -6.5t-52 -20t-39.5 -35t-15.5 -51.5q0 -17 22.5 -33.5t53 -30.5t62.5 -25.5t51 -18.5q27 -10 58.5 -21t63 -24t60.5 -30.5t51.5 -39.5t36 -51t13.5 -66q0 -53 -24.5 -98t-64.5 -77.5
t-91.5 -50.5t-105.5 -18q-74 0 -129.5 22.5t-94.5 57.5t-61 77t-28 81h124q5 -16 17.5 -35.5t35 -37t56 -29.5t80.5 -12q41 0 71.5 10.5t50.5 27t30 38t10 43.5t-20 39.5t-49.5 30.5t-62.5 23t-59 18q-41 16 -88.5 32.5t-89.5 41.5t-71 62t-32 93q0 53 24.5 97t64 75.5
t91 48.5t105.5 17q97 0 174 -51l54 56z" />
    <glyph glyph-name="ruthai" unicode="&#xc4;" horiz-adv-x="815" 
d="M339 0h-61q-33 0 -63 12.5t-52.5 34.5t-35.5 51.5t-13 63.5v285h33q18 0 27 10.5t9 24.5t-9 26.5t-27 15.5h-62q5 62 31.5 115t68.5 91.5t96.5 60.5t115.5 22q65 0 122 -24.5t99.5 -67t67 -99.5t24.5 -122v-702h-123v702q0 39 -15 73.5t-41 60t-60.5 40.5t-73.5 15
q-42 0 -82.5 -21.5t-67.5 -54.5q29 -23 45.5 -56.5t16.5 -69.5q0 -40 -19 -75t-52 -60v-190q0 -16 11 -27t27 -11h63v-124z" />
    <glyph glyph-name="ruthai" unicode="&#xe24;" horiz-adv-x="815" 
d="M339 0h-61q-33 0 -63 12.5t-52.5 34.5t-35.5 51.5t-13 63.5v285h33q18 0 27 10.5t9 24.5t-9 26.5t-27 15.5h-62q5 62 31.5 115t68.5 91.5t96.5 60.5t115.5 22q65 0 122 -24.5t99.5 -67t67 -99.5t24.5 -122v-702h-123v702q0 39 -15 73.5t-41 60t-60.5 40.5t-73.5 15
q-42 0 -82.5 -21.5t-67.5 -54.5q29 -23 45.5 -56.5t16.5 -69.5q0 -40 -19 -75t-52 -60v-190q0 -16 11 -27t27 -11h63v-124z" />
    <glyph glyph-name="lolingthai" unicode="&#xc5;" horiz-adv-x="827" 
d="M411 0h-77q-49 0 -92.5 18t-75.5 49.5t-51 74t-19 91.5t18.5 92t51 74t75.5 49t92 18h255v53q0 39 -15 70.5t-40.5 53.5t-60.5 34t-74 12q-34 0 -65.5 -10t-57 -30.5t-43 -50t-23.5 -68.5h-124q0 66 26.5 118.5t70.5 89t100.5 56t115.5 19.5q65 0 122 -21.5t99.5 -60.5
t67 -93t24.5 -119v-519h-122v342h-256q-23 0 -44 -8.5t-36.5 -23t-24.5 -34.5t-9 -43t9 -43t24.5 -34.5t36.5 -23t44 -8.5h78v-124z" />
    <glyph glyph-name="lolingthai" unicode="&#xe25;" horiz-adv-x="827" 
d="M411 0h-77q-49 0 -92.5 18t-75.5 49.5t-51 74t-19 91.5t18.5 92t51 74t75.5 49t92 18h255v53q0 39 -15 70.5t-40.5 53.5t-60.5 34t-74 12q-34 0 -65.5 -10t-57 -30.5t-43 -50t-23.5 -68.5h-124q0 66 26.5 118.5t70.5 89t100.5 56t115.5 19.5q65 0 122 -21.5t99.5 -60.5
t67 -93t24.5 -119v-519h-122v342h-256q-23 0 -44 -8.5t-36.5 -23t-24.5 -34.5t-9 -43t9 -43t24.5 -34.5t36.5 -23t44 -8.5h78v-124z" />
    <glyph glyph-name="luthai" unicode="&#xc6;" horiz-adv-x="818" 
d="M51 124h61q16 0 26.5 11t10.5 28v332q0 11 -11.5 20t-25.5 9h-62q4 62 32 115t72.5 91.5t102 60.5t120.5 22q66 0 125.5 -25t104 -68t70.5 -100t26 -120v-702h-124v702q0 37 -16.5 71.5t-44.5 60.5t-64.5 41.5t-76.5 15.5q-23 0 -47 -6t-45.5 -16t-40.5 -24t-32 -30
q26 -20 44 -47.5t18 -70.5v-333q-1 -33 -14 -62t-34.5 -51t-50.5 -35t-62 -14h-62v124z" />
    <glyph glyph-name="luthai" unicode="&#xe26;" horiz-adv-x="818" 
d="M51 124h61q16 0 26.5 11t10.5 28v332q0 11 -11.5 20t-25.5 9h-62q4 62 32 115t72.5 91.5t102 60.5t120.5 22q66 0 125.5 -25t104 -68t70.5 -100t26 -120v-702h-124v702q0 37 -16.5 71.5t-44.5 60.5t-64.5 41.5t-76.5 15.5q-23 0 -47 -6t-45.5 -16t-40.5 -24t-32 -30
q26 -20 44 -47.5t18 -70.5v-333q-1 -33 -14 -62t-34.5 -51t-50.5 -35t-62 -14h-62v124z" />
    <glyph glyph-name="wowaenthai" unicode="&#xc7;" horiz-adv-x="727" 
d="M318 124h70q24 0 44.5 9t36 24.5t24.5 36t9 43.5v289q0 34 -13 63.5t-35 52t-51.5 35.5t-63.5 13q-33 0 -62.5 -10.5t-52 -31t-36 -50t-15.5 -68.5h-123q0 69 23 122t63 88.5t92 54t111 18.5t111.5 -22.5t91.5 -61.5t62 -91.5t23 -112.5v-288q-1 -49 -19.5 -91.5t-50 -74
t-74.5 -50.5t-93 -21h-72v124z" />
    <glyph glyph-name="wowaenthai" unicode="&#xe27;" horiz-adv-x="727" 
d="M318 124h70q24 0 44.5 9t36 24.5t24.5 36t9 43.5v289q0 34 -13 63.5t-35 52t-51.5 35.5t-63.5 13q-33 0 -62.5 -10.5t-52 -31t-36 -50t-15.5 -68.5h-123q0 69 23 122t63 88.5t92 54t111 18.5t111.5 -22.5t91.5 -61.5t62 -91.5t23 -112.5v-288q-1 -49 -19.5 -91.5t-50 -74
t-74.5 -50.5t-93 -21h-72v124z" />
    <glyph glyph-name="sosalathai" unicode="&#xc8;" horiz-adv-x="857" 
d="M110 0v500q1 63 25.5 119.5t66.5 99.5t98.5 68.5t122.5 25.5q92 0 174 -55q13 19 13 40v59h126v-59q0 -71 -51 -128q25 -38 38 -81t13 -89l1 -500h-124l-1 500q0 38 -15 72t-40.5 59.5t-60 41t-73.5 16.5q-37 0 -69.5 -15t-58 -40.5t-41.5 -60.5t-19 -74v-96
q40 30 88.5 46.5t99.5 16.5h42v-124h-42q-39 0 -73.5 -15t-60 -40.5t-40 -60t-14.5 -73.5l1 -153h-126z" />
    <glyph glyph-name="sosalathai" unicode="&#xe28;" horiz-adv-x="857" 
d="M110 0v500q1 63 25.5 119.5t66.5 99.5t98.5 68.5t122.5 25.5q92 0 174 -55q13 19 13 40v59h126v-59q0 -71 -51 -128q25 -38 38 -81t13 -89l1 -500h-124l-1 500q0 38 -15 72t-40.5 59.5t-60 41t-73.5 16.5q-37 0 -69.5 -15t-58 -40.5t-41.5 -60.5t-19 -74v-96
q40 30 88.5 46.5t99.5 16.5h42v-124h-42q-39 0 -73.5 -15t-60 -40.5t-40 -60t-14.5 -73.5l1 -153h-126z" />
    <glyph glyph-name="sorusithai" unicode="&#xc9;" horiz-adv-x="856" 
d="M741 813v-508q0 -65 -24.5 -122t-67 -99.5t-99.5 -67t-122 -24.5t-122 24.5t-99.5 67t-67 99.5t-24.5 122v508h124v-508q0 -39 15 -73t40.5 -59.5t60 -40.5t73.5 -15t73 15t60 40.5t41 59.5t15 73v35q-33 -11 -64 -11q-39 0 -73 14.5t-59.5 40t-40 59.5t-14.5 73v37h124
v-37q0 -26 18.5 -45t44.5 -19t45 19t19 45v297h124z" />
    <glyph glyph-name="sorusithai" unicode="&#xe29;" horiz-adv-x="856" 
d="M741 813v-508q0 -65 -24.5 -122t-67 -99.5t-99.5 -67t-122 -24.5t-122 24.5t-99.5 67t-67 99.5t-24.5 122v508h124v-508q0 -39 15 -73t40.5 -59.5t60 -40.5t73.5 -15t73 15t60 40.5t41 59.5t15 73v35q-33 -11 -64 -11q-39 0 -73 14.5t-59.5 40t-40 59.5t-14.5 73v37h124
v-37q0 -26 18.5 -45t44.5 -19t45 19t19 45v297h124z" />
    <glyph glyph-name="sosuathai" unicode="&#xca;" horiz-adv-x="833" 
d="M712 867v-58q0 -36 -13 -69t-37 -59q50 -80 50 -170l1 -511h-124v342h-256q-23 0 -43.5 -8.5t-36 -23t-24.5 -34.5t-9 -43t9 -43t24.5 -34.5t36 -23t43.5 -8.5h78v-124h-76q-49 0 -92.5 18t-75.5 49.5t-51 74t-19 91.5q0 50 18.5 92.5t51 74t75.5 49t92 17.5h254v45
q0 38 -14.5 72t-40 59.5t-60 41t-74.5 16.5q-34 0 -65 -11t-56.5 -33t-43.5 -53.5t-26 -72.5h-123q8 63 35.5 117t69.5 93.5t95.5 61.5t113.5 22q92 0 174 -55q14 20 14 40v58h125z" />
    <glyph glyph-name="sosuathai" unicode="&#xe2a;" horiz-adv-x="833" 
d="M712 867v-58q0 -36 -13 -69t-37 -59q50 -80 50 -170l1 -511h-124v342h-256q-23 0 -43.5 -8.5t-36 -23t-24.5 -34.5t-9 -43t9 -43t24.5 -34.5t36 -23t43.5 -8.5h78v-124h-76q-49 0 -92.5 18t-75.5 49.5t-51 74t-19 91.5q0 50 18.5 92.5t51 74t75.5 49t92 17.5h254v45
q0 38 -14.5 72t-40 59.5t-60 41t-74.5 16.5q-34 0 -65 -11t-56.5 -33t-43.5 -53.5t-26 -72.5h-123q8 63 35.5 117t69.5 93.5t95.5 61.5t113.5 22q92 0 174 -55q14 20 14 40v58h125z" />
    <glyph glyph-name="hohipthai" unicode="&#xcb;" horiz-adv-x="866" 
d="M121 805h123v-315q39 34 87 61.5t99 44.5q-10 21 -10 55t13 63.5t35 51.5t51.5 34.5t62.5 12.5q34 0 64 -12.5t52 -34.5t34.5 -51.5t12.5 -63.5q0 -62 -42 -108q42 -57 42 -159l1 -384h-124l-1 384q0 34 -6 55t-17 33t-27.5 16t-38.5 4q-24 0 -54 -8.5t-62 -23.5t-63 -36
t-55 -46t-39 -53t-15 -57l1 -268h-124v805zM527 651q0 -23 16 -38.5t39 -15.5t39.5 15.5t16.5 38.5q0 22 -16.5 37.5t-39.5 15.5t-39 -15.5t-16 -37.5z" />
    <glyph glyph-name="hohipthai" unicode="&#xe2b;" horiz-adv-x="866" 
d="M121 805h123v-315q39 34 87 61.5t99 44.5q-10 21 -10 55t13 63.5t35 51.5t51.5 34.5t62.5 12.5q34 0 64 -12.5t52 -34.5t34.5 -51.5t12.5 -63.5q0 -62 -42 -108q42 -57 42 -159l1 -384h-124l-1 384q0 34 -6 55t-17 33t-27.5 16t-38.5 4q-24 0 -54 -8.5t-62 -23.5t-63 -36
t-55 -46t-39 -53t-15 -57l1 -268h-124v805zM527 651q0 -23 16 -38.5t39 -15.5t39.5 15.5t16.5 38.5q0 22 -16.5 37.5t-39.5 15.5t-39 -15.5t-16 -37.5z" />
    <glyph glyph-name="lochulathai" unicode="&#xcc;" horiz-adv-x="906" 
d="M791 857v-76q0 -38 -14.5 -74t-40.5 -64q26 -27 40.5 -63t14.5 -74v-313q0 -42 -15.5 -78.5t-42.5 -63.5t-63.5 -43t-78.5 -16q-38 0 -73.5 15t-64.5 41q-28 -26 -64 -41t-74 -15q-41 0 -77.5 16t-63.5 43t-43 63.5t-16 78.5v612h124v-612q0 -31 22.5 -53.5t53.5 -22.5
t53.5 22.5t22.5 53.5v265h125v-265q0 -31 22 -53.5t53 -22.5q32 0 54 22.5t22 53.5v313q0 31 -21 52.5t-53 23.5h-76v124h74q32 0 54 22t22 53v76h124z" />
    <glyph glyph-name="lochulathai" unicode="&#xe2c;" horiz-adv-x="906" 
d="M791 857v-76q0 -38 -14.5 -74t-40.5 -64q26 -27 40.5 -63t14.5 -74v-313q0 -42 -15.5 -78.5t-42.5 -63.5t-63.5 -43t-78.5 -16q-38 0 -73.5 15t-64.5 41q-28 -26 -64 -41t-74 -15q-41 0 -77.5 16t-63.5 43t-43 63.5t-16 78.5v612h124v-612q0 -31 22.5 -53.5t53.5 -22.5
t53.5 22.5t22.5 53.5v265h125v-265q0 -31 22 -53.5t53 -22.5q32 0 54 22.5t22 53.5v313q0 31 -21 52.5t-53 23.5h-76v124h74q32 0 54 22t22 53v76h124z" />
    <glyph glyph-name="oangthai" unicode="&#xcd;" horiz-adv-x="825" 
d="M85 540q0 57 26.5 107t70.5 86.5t100.5 58t116.5 21.5q64 0 121 -24.5t99 -67t66.5 -99.5t24.5 -122v-203q0 -62 -23 -117.5t-63.5 -97t-95.5 -66t-119 -24.5q-71 0 -128.5 17.5t-99 52t-64 85.5t-22.5 119q0 75 44 126.5t131 57.5h119v-124h-118q-22 0 -35 -12.5
t-17 -50.5q1 -77 53 -111.5t137 -34.5q37 0 69 13.5t55.5 37.5t37.5 57t15 72v203q0 39 -14.5 73.5t-40 60t-59.5 40.5t-73 15q-54 0 -91 -16.5t-59.5 -39.5t-32 -49t-9.5 -44h-122z" />
    <glyph glyph-name="oangthai" unicode="&#xe2d;" horiz-adv-x="825" 
d="M85 540q0 57 26.5 107t70.5 86.5t100.5 58t116.5 21.5q64 0 121 -24.5t99 -67t66.5 -99.5t24.5 -122v-203q0 -62 -23 -117.5t-63.5 -97t-95.5 -66t-119 -24.5q-71 0 -128.5 17.5t-99 52t-64 85.5t-22.5 119q0 75 44 126.5t131 57.5h119v-124h-118q-22 0 -35 -12.5
t-17 -50.5q1 -77 53 -111.5t137 -34.5q37 0 69 13.5t55.5 37.5t37.5 57t15 72v203q0 39 -14.5 73.5t-40 60t-59.5 40.5t-73 15q-54 0 -91 -16.5t-59.5 -39.5t-32 -49t-9.5 -44h-122z" />
    <glyph glyph-name="honokhukthai" unicode="&#xce;" horiz-adv-x="825" 
d="M85 540q0 57 26.5 107t70.5 86.5t100.5 58t116.5 21.5q48 0 92 -14t81 -39q13 19 13 38v59h125v-59q0 -76 -50 -127q24 -37 37 -80t13 -91v-203q0 -62 -23 -117.5t-63.5 -97t-95.5 -66t-119 -24.5q-71 0 -128.5 17.5t-99 52t-64 85.5t-22.5 119q0 75 44 126.5t131 57.5
h119v-124h-118q-22 0 -35 -12.5t-17 -50.5q1 -77 53 -111.5t137 -34.5q37 0 69 13.5t55.5 37.5t37.5 57t15 72v203q0 39 -14.5 73.5t-40 60t-59.5 40.5t-73 15q-54 0 -91 -16.5t-59.5 -39.5t-32 -49t-9.5 -44h-122z" />
    <glyph glyph-name="honokhukthai" unicode="&#xe2e;" horiz-adv-x="825" 
d="M85 540q0 57 26.5 107t70.5 86.5t100.5 58t116.5 21.5q48 0 92 -14t81 -39q13 19 13 38v59h125v-59q0 -76 -50 -127q24 -37 37 -80t13 -91v-203q0 -62 -23 -117.5t-63.5 -97t-95.5 -66t-119 -24.5q-71 0 -128.5 17.5t-99 52t-64 85.5t-22.5 119q0 75 44 126.5t131 57.5
h119v-124h-118q-22 0 -35 -12.5t-17 -50.5q1 -77 53 -111.5t137 -34.5q37 0 69 13.5t55.5 37.5t37.5 57t15 72v203q0 39 -14.5 73.5t-40 60t-59.5 40.5t-73 15q-54 0 -91 -16.5t-59.5 -39.5t-32 -49t-9.5 -44h-122z" />
    <glyph glyph-name="paiyannoithai" unicode="&#xcf;" horiz-adv-x="706" 
d="M585 805v-805h-124v472q-38 -22 -70.5 -31.5t-64.5 -9.5h-79q-39 0 -73 15.5t-59.5 41.5t-40 61t-14.5 74q0 38 14.5 72.5t40 60.5t59.5 41.5t73 15.5h37v-124h-37q-26 0 -44.5 -20t-18.5 -46t18.5 -47t44.5 -21h79q28 0 52.5 10.5t43 29.5t29 43.5t10.5 53.5v113h124z
" />
    <glyph glyph-name="paiyannoithai" unicode="&#xe2f;" horiz-adv-x="706" 
d="M585 805v-805h-124v472q-38 -22 -70.5 -31.5t-64.5 -9.5h-79q-39 0 -73 15.5t-59.5 41.5t-40 61t-14.5 74q0 38 14.5 72.5t40 60.5t59.5 41.5t73 15.5h37v-124h-37q-26 0 -44.5 -20t-18.5 -46t18.5 -47t44.5 -21h79q28 0 52.5 10.5t43 29.5t29 43.5t10.5 53.5v113h124z
" />
    <glyph glyph-name="saraathai" unicode="&#xd0;" horiz-adv-x="549" 
d="M214 712v-64q0 -15 11 -26t27 -11h212v-124h-212q-34 0 -63.5 12.5t-51.5 34.5t-34.5 51.5t-12.5 63.5v63h124zM214 321v-64q0 -15 11 -26t27 -11h212v-124h-212q-34 0 -63.5 12.5t-51.5 34.5t-34.5 51.5t-12.5 63.5v63h124z" />
    <glyph glyph-name="saraathai" unicode="&#xe30;" horiz-adv-x="549" 
d="M214 712v-64q0 -15 11 -26t27 -11h212v-124h-212q-34 0 -63.5 12.5t-51.5 34.5t-34.5 51.5t-12.5 63.5v63h124zM214 321v-64q0 -15 11 -26t27 -11h212v-124h-212q-34 0 -63.5 12.5t-51.5 34.5t-34.5 51.5t-12.5 63.5v63h124z" />
    <glyph glyph-name="maihanakatthai" unicode="&#xd1;" 
d="M-296 1151q-5 -18 -7.5 -29t-2.5 -21q0 -29 17 -44.5t46 -15.5h325v-111h-325q-36 0 -67.5 13t-55.5 36.5t-37.5 55t-13.5 67.5q0 9 2 20.5t8 28.5h111z" />
    <glyph glyph-name="maihanakatthai" unicode="&#xe31;" 
d="M-296 1151q-5 -18 -7.5 -29t-2.5 -21q0 -29 17 -44.5t46 -15.5h325v-111h-325q-36 0 -67.5 13t-55.5 36.5t-37.5 55t-13.5 67.5q0 9 2 20.5t8 28.5h111z" />
    <glyph glyph-name="saraaathai" unicode="&#xd2;" horiz-adv-x="659" 
d="M422 0l-1 565q0 26 -9.5 48.5t-26.5 39.5t-39.5 26.5t-48.5 9.5t-48 -9.5t-39 -26.5t-26.5 -39.5t-9.5 -48.5v-60h-124v60q0 51 19.5 96t53 79t78.5 53.5t96 19.5t96 -19.5t78.5 -53.5t53 -79t19.5 -96v-565h-122z" />
    <glyph glyph-name="saraaathai" unicode="&#xe32;" horiz-adv-x="659" 
d="M422 0l-1 565q0 26 -9.5 48.5t-26.5 39.5t-39.5 26.5t-48.5 9.5t-48 -9.5t-39 -26.5t-26.5 -39.5t-9.5 -48.5v-60h-124v60q0 51 19.5 96t53 79t78.5 53.5t96 19.5t96 -19.5t78.5 -53.5t53 -79t19.5 -96v-565h-122z" />
    <glyph glyph-name="saraamthai" unicode="&#xd3;" horiz-adv-x="659" 
d="M-320 1037q0 30 11.5 55.5t31 45t45 30.5t54.5 11q28 0 54 -11t45.5 -30.5t31 -45t11.5 -55.5q0 -29 -11.5 -55t-31 -45.5t-45.5 -30.5t-54 -11q-29 0 -54.5 11t-45 30.5t-31 45.5t-11.5 55zM-229 1036q0 -21 14 -35.5t35 -14.5t35.5 14.5t14.5 35.5t-14.5 35.5
t-35.5 14.5q-22 0 -35.5 -14.5t-13.5 -35.5zM422 0l-1 565q0 26 -9.5 48.5t-26.5 39.5t-39.5 26.5t-48.5 9.5t-48 -9.5t-39 -26.5t-26.5 -39.5t-9.5 -48.5v-60h-124v60q0 51 19.5 96t53 79t78.5 53.5t96 19.5t96 -19.5t78.5 -53.5t53 -79t19.5 -96v-565h-122z" />
    <glyph glyph-name="saraamthai" unicode="&#xe33;" horiz-adv-x="659" 
d="M-320 1037q0 30 11.5 55.5t31 45t45 30.5t54.5 11q28 0 54 -11t45.5 -30.5t31 -45t11.5 -55.5q0 -29 -11.5 -55t-31 -45.5t-45.5 -30.5t-54 -11q-29 0 -54.5 11t-45 30.5t-31 45.5t-11.5 55zM-229 1036q0 -21 14 -35.5t35 -14.5t35.5 14.5t14.5 35.5t-14.5 35.5
t-35.5 14.5q-22 0 -35.5 -14.5t-13.5 -35.5zM422 0l-1 565q0 26 -9.5 48.5t-26.5 39.5t-39.5 26.5t-48.5 9.5t-48 -9.5t-39 -26.5t-26.5 -39.5t-9.5 -48.5v-60h-124v60q0 51 19.5 96t53 79t78.5 53.5t96 19.5t96 -19.5t78.5 -53.5t53 -79t19.5 -96v-565h-122z" />
    <glyph glyph-name="saraithai" unicode="&#xd4;" 
d="M-629 1053h516v-123h-516v123z" />
    <glyph glyph-name="saraithai" unicode="&#xe34;" 
d="M-629 1053h516v-123h-516v123z" />
    <glyph glyph-name="saraiithai" unicode="&#xd5;" 
d="M-113 1155v-63q0 -34 -12.5 -63.5t-34.5 -51.5t-51.5 -34.5t-62.5 -12.5h-355v123h355q16 0 27 11.5t11 27.5l-1 63h124z" />
    <glyph glyph-name="saraiithai" unicode="&#xe35;" 
d="M-113 1155v-63q0 -34 -12.5 -63.5t-34.5 -51.5t-51.5 -34.5t-62.5 -12.5h-355v123h355q16 0 27 11.5t11 27.5l-1 63h124z" />
    <glyph glyph-name="sarauethai" unicode="&#xd6;" 
d="M-629 1053h327v2q0 25 9.5 47.5t26.5 39t39 26t48 9.5q25 0 48 -10t39.5 -26.5t26.5 -39.5t10 -48q0 -26 -10 -48.5t-26.5 -39t-39.5 -26.5t-48 -10h-450v124zM-183 1008q20 0 32.5 12.5t12.5 32.5q0 18 -12.5 31.5t-32.5 13.5q-21 0 -32 -13.5t-11 -31.5
q0 -20 11.5 -32.5t31.5 -12.5z" />
    <glyph glyph-name="sarauethai" unicode="&#xe36;" 
d="M-629 1053h327v2q0 25 9.5 47.5t26.5 39t39 26t48 9.5q25 0 48 -10t39.5 -26.5t26.5 -39.5t10 -48q0 -26 -10 -48.5t-26.5 -39t-39.5 -26.5t-48 -10h-450v124zM-183 1008q20 0 32.5 12.5t12.5 32.5q0 18 -12.5 31.5t-32.5 13.5q-21 0 -32 -13.5t-11 -31.5
q0 -20 11.5 -32.5t31.5 -12.5z" />
    <glyph glyph-name="saraueethai" unicode="&#xd7;" 
d="M-113 1155v-66q0 -33 -12.5 -62t-33.5 -50.5t-50 -34t-62 -12.5h-358v123h200v102h122v-102h36q15 0 26 10t11 26v66h121z" />
    <glyph glyph-name="saraueethai" unicode="&#xe37;" 
d="M-113 1155v-66q0 -33 -12.5 -62t-33.5 -50.5t-50 -34t-62 -12.5h-358v123h200v102h122v-102h36q15 0 26 10t11 26v66h121z" />
    <glyph glyph-name="sarauthai" unicode="&#xd8;" 
d="M-220 -100q19 0 38 -10t34 -25.5t24.5 -35.5t9.5 -41v-166h-122v155h-72v123h88z" />
    <glyph glyph-name="sarauthai" unicode="&#xe38;" 
d="M-220 -100q19 0 38 -10t34 -25.5t24.5 -35.5t9.5 -41v-166h-122v155h-72v123h88z" />
    <glyph glyph-name="sarauuthai" unicode="&#xd9;" 
d="M-114 -100v-108q0 -36 -14 -68.5t-38 -57t-56.5 -38.5t-69.5 -14q-35 0 -66.5 13t-56 36t-39.5 54.5t-16 69.5h-39v113h71q40 0 66 -26t26 -74v-11q2 -21 17 -36t37 -15q23 0 39 15.5t16 38.5v108h123z" />
    <glyph glyph-name="sarauuthai" unicode="&#xe39;" 
d="M-114 -100v-108q0 -36 -14 -68.5t-38 -57t-56.5 -38.5t-69.5 -14q-35 0 -66.5 13t-56 36t-39.5 54.5t-16 69.5h-39v113h71q40 0 66 -26t26 -74v-11q2 -21 17 -36t37 -15q23 0 39 15.5t16 38.5v108h123z" />
    <glyph glyph-name="phinthuthai" unicode="&#xda;" 
d="M-243 -158q0 27 20 46.5t47 19.5q28 0 47 -19.5t19 -46.5q0 -29 -19 -48t-47 -19q-27 0 -47 19t-20 48z" />
    <glyph glyph-name="phinthuthai" unicode="&#xe3a;" 
d="M-243 -158q0 27 20 46.5t47 19.5q28 0 47 -19.5t19 -46.5q0 -29 -19 -48t-47 -19q-27 0 -47 19t-20 48z" />
    <glyph glyph-name="nptp3p" unicode="&#xdb;" 
 />
    <glyph glyph-name="nptp3p" unicode="&#xe3b;" 
 />
    <glyph glyph-name="nptp3u" unicode="&#xdc;" 
 />
    <glyph glyph-name="nptp3u" unicode="&#xe3c;" 
 />
    <glyph glyph-name="nptp3c" unicode="&#xdd;" 
 />
    <glyph glyph-name="nptp3c" unicode="&#xe3d;" 
 />
    <glyph glyph-name="nptp3r" unicode="&#xe3e;" 
 />
    <glyph glyph-name="bahtthai" unicode="&#xdf;" horiz-adv-x="845" 
d="M447 1000v-91q50 -5 93.5 -26.5t75.5 -55.5t50.5 -79t18.5 -97q0 -100 -72 -176q54 -37 88 -94t34 -123q0 -54 -20.5 -101.5t-56 -82t-83.5 -54.5t-102 -20h-25v-90h-122v90h-51q-34 0 -64 13t-52.5 35t-35.5 52t-13 64v581q0 34 13 64t35 52.5t52 35.5t64 13h51v90h122z
M447 393v-269h25q28 0 53.5 10t44.5 28t30 42.5t11 53.5q0 28 -11 53t-30 43t-44.5 28.5t-53.5 10.5h-25zM326 124v269h-92v-229q0 -17 11.5 -28.5t28.5 -11.5h52zM234 517h91v269h-51q-17 0 -28.5 -12t-11.5 -29v-228zM561 651q0 25 -9 47.5t-24 40t-36 29.5t-45 16v-265
q24 4 45 15.5t36 29t24 39.5t9 48z" />
    <glyph glyph-name="bahtthai" unicode="&#xe3f;" horiz-adv-x="845" 
d="M447 1000v-91q50 -5 93.5 -26.5t75.5 -55.5t50.5 -79t18.5 -97q0 -100 -72 -176q54 -37 88 -94t34 -123q0 -54 -20.5 -101.5t-56 -82t-83.5 -54.5t-102 -20h-25v-90h-122v90h-51q-34 0 -64 13t-52.5 35t-35.5 52t-13 64v581q0 34 13 64t35 52.5t52 35.5t64 13h51v90h122z
M447 393v-269h25q28 0 53.5 10t44.5 28t30 42.5t11 53.5q0 28 -11 53t-30 43t-44.5 28.5t-53.5 10.5h-25zM326 124v269h-92v-229q0 -17 11.5 -28.5t28.5 -11.5h52zM234 517h91v269h-51q-17 0 -28.5 -12t-11.5 -29v-228zM561 651q0 25 -9 47.5t-24 40t-36 29.5t-45 16v-265
q24 4 45 15.5t36 29t24 39.5t9 48z" />
    <glyph glyph-name="saraethai" unicode="&#xe0;" horiz-adv-x="342" 
d="M231 805v-805h-120v805h120z" />
    <glyph glyph-name="saraethai" unicode="&#xe40;" horiz-adv-x="342" 
d="M231 805v-805h-120v805h120z" />
    <glyph glyph-name="saraaethai" unicode="&#xe1;" horiz-adv-x="603" 
d="M497 805v-805h-121v805h121zM227 805v-805h-121v805h121z" />
    <glyph glyph-name="saraaethai" unicode="&#xe41;" horiz-adv-x="603" 
d="M497 805v-805h-121v805h121zM227 805v-805h-121v805h121z" />
    <glyph glyph-name="saraothai" unicode="&#xe2;" horiz-adv-x="343" 
d="M393 1300v-121h-223q-16 0 -27 -11.5t-11 -28.5t11.5 -29.5t26.5 -25.5v1q13 -12 26.5 -25t24 -30t17.5 -40t7 -54l1 -936h-121l-1 936q0 26 -13 39.5t-29 26.5h1q-14 10 -27 21t-23.5 26.5t-16.5 37t-6 52.5q0 33 12.5 62.5t34 51t51 34.5t62.5 13h223z" />
    <glyph glyph-name="saraothai" unicode="&#xe42;" horiz-adv-x="343" 
d="M393 1300v-121h-223q-16 0 -27 -11.5t-11 -28.5t11.5 -29.5t26.5 -25.5v1q13 -12 26.5 -25t24 -30t17.5 -40t7 -54l1 -936h-121l-1 936q0 26 -13 39.5t-29 26.5h1q-14 10 -27 21t-23.5 26.5t-16.5 37t-6 52.5q0 33 12.5 62.5t34 51t51 34.5t62.5 13h223z" />
    <glyph glyph-name="saraaimaimuanthai" unicode="&#xe3;" horiz-adv-x="339" 
d="M5 1093q0 42 15 81t41.5 68.5t63 47.5t80.5 18q46 0 83.5 -18.5t64.5 -50t41.5 -73.5t14.5 -90q0 -60 -28.5 -113t-79.5 -86h1q-15 -12 -26.5 -19.5t-19.5 -13t-12 -11t-4 -14.5l1 -819h-122l-1 822q0 30 10 53t25.5 40t34 30t35.5 24l11 9q23 19 38 43.5t15 54.5
q0 45 -22 77.5t-60 32.5q-18 0 -32 -10.5t-24.5 -28t-16 -39t-5.5 -43.5h-122v28z" />
    <glyph glyph-name="saraaimaimuanthai" unicode="&#xe43;" horiz-adv-x="339" 
d="M5 1093q0 42 15 81t41.5 68.5t63 47.5t80.5 18q46 0 83.5 -18.5t64.5 -50t41.5 -73.5t14.5 -90q0 -60 -28.5 -113t-79.5 -86h1q-15 -12 -26.5 -19.5t-19.5 -13t-12 -11t-4 -14.5l1 -819h-122l-1 822q0 30 10 53t25.5 40t34 30t35.5 24l11 9q23 19 38 43.5t15 54.5
q0 45 -22 77.5t-60 32.5q-18 0 -32 -10.5t-24.5 -28t-16 -39t-5.5 -43.5h-122v28z" />
    <glyph glyph-name="saraaimaimalaithai" unicode="&#xe4;" horiz-adv-x="332" 
d="M362 1300v-170q0 -143 -110 -193q-12 -6 -14 -20.5t-2 -37.5v-879h-121l-1 879q0 18 1.5 40.5t9.5 46t26 44.5t51 36q8 4 16 10t14 20h-55q-33 0 -62.5 13t-51.5 35t-35 51.5t-13 62.5v62h122v-62q0 -17 11.5 -29t28.5 -12h63v103h122z" />
    <glyph glyph-name="saraaimaimalaithai" unicode="&#xe44;" horiz-adv-x="332" 
d="M362 1300v-170q0 -143 -110 -193q-12 -6 -14 -20.5t-2 -37.5v-879h-121l-1 879q0 18 1.5 40.5t9.5 46t26 44.5t51 36q8 4 16 10t14 20h-55q-33 0 -62.5 13t-51.5 35t-35 51.5t-13 62.5v62h122v-62q0 -17 11.5 -29t28.5 -12h63v103h122z" />
    <glyph glyph-name="lakkhangyaothai" unicode="&#xe5;" horiz-adv-x="651" 
d="M415 -198v767q0 25 -9.5 47.5t-26 39t-39 26t-47.5 9.5q-26 0 -48 -9.5t-38.5 -26t-26 -39t-9.5 -47.5v-59h-121v59q0 50 19 94.5t52 77.5t77 52.5t95 19.5q50 0 94.5 -19.5t77.5 -52.5t52 -77.5t19 -94.5v-767h-121z" />
    <glyph glyph-name="lakkhangyaothai" unicode="&#xe45;" horiz-adv-x="651" 
d="M415 -198v767q0 25 -9.5 47.5t-26 39t-39 26t-47.5 9.5q-26 0 -48 -9.5t-38.5 -26t-26 -39t-9.5 -47.5v-59h-121v59q0 50 19 94.5t52 77.5t77 52.5t95 19.5q50 0 94.5 -19.5t77.5 -52.5t52 -77.5t19 -94.5v-767h-121z" />
    <glyph glyph-name="maiyamokthai" unicode="&#xe6;" horiz-adv-x="756" 
d="M241 813q61 0 111 -41q47 41 112 41q36 0 67 -13.5t54.5 -37t37 -54.5t13.5 -67v-838h-123v838q0 20 -14.5 35t-34.5 15t-35 -15t-15 -35v-68h-123v68q0 20 -14.5 35t-35.5 15q-20 0 -34.5 -15t-14.5 -35v-130q0 -20 22 -34.5t54 -16.5v-122q-41 1 -77 15t-63 37
t-42.5 54t-15.5 67v130q0 36 13.5 67t37 54.5t54.5 37t66 13.5z" />
    <glyph glyph-name="maiyamokthai" unicode="&#xe46;" horiz-adv-x="756" 
d="M241 813q61 0 111 -41q47 41 112 41q36 0 67 -13.5t54.5 -37t37 -54.5t13.5 -67v-838h-123v838q0 20 -14.5 35t-34.5 15t-35 -15t-15 -35v-68h-123v68q0 20 -14.5 35t-35.5 15q-20 0 -34.5 -15t-14.5 -35v-130q0 -20 22 -34.5t54 -16.5v-122q-41 1 -77 15t-63 37
t-42.5 54t-15.5 67v130q0 36 13.5 67t37 54.5t54.5 37t66 13.5z" />
    <glyph glyph-name="maitaikhuthai" unicode="&#xe7;" horiz-adv-x="-1" 
d="M-141 1235q-3 -63 -31.5 -98t-76.5 -35h-220q-5 0 -12.5 -1.5t-14 -4.5t-11.5 -7t-5 -10v-35q0 -8 13 -19.5t35 -11.5q20 0 33.5 10t13.5 23h77q0 -15 14 -24t34 -9q21 0 34 10.5t13 22.5h85v-10q0 -24 -11.5 -44.5t-29.5 -35.5t-40 -23t-44 -8q-38 0 -59.5 12.5
t-32.5 23.5q-12 -11 -38 -23.5t-69 -12.5q-54 0 -86 32.5t-32 84.5v39q0 25 11.5 45t30 34.5t42.5 22t49 7.5h219q7 0 13 14t7 31h89z" />
    <glyph glyph-name="maitaikhuthai" unicode="&#xe47;" horiz-adv-x="-1" 
d="M-141 1235q-3 -63 -31.5 -98t-76.5 -35h-220q-5 0 -12.5 -1.5t-14 -4.5t-11.5 -7t-5 -10v-35q0 -8 13 -19.5t35 -11.5q20 0 33.5 10t13.5 23h77q0 -15 14 -24t34 -9q21 0 34 10.5t13 22.5h85v-10q0 -24 -11.5 -44.5t-29.5 -35.5t-40 -23t-44 -8q-38 0 -59.5 12.5
t-32.5 23.5q-12 -11 -38 -23.5t-69 -12.5q-54 0 -86 32.5t-32 84.5v39q0 25 11.5 45t30 34.5t42.5 22t49 7.5h219q7 0 13 14t7 31h89z" />
    <glyph glyph-name="maiekthai" unicode="&#xe8;" 
d="M-129 1459v-239h-115v239h115z" />
    <glyph glyph-name="maiekthai" unicode="&#xe48;" 
d="M-129 1459v-239h-115v239h115z" />
    <glyph glyph-name="maithothai" unicode="&#xe9;" 
d="M-355 1465q21 0 40.5 -7.5t34 -21t23.5 -32t9 -40.5v-43q25 0 51.5 7.5t48.5 23.5t36.5 42t14.5 62h100q-5 -63 -27 -108t-56 -73.5t-77.5 -41.5t-90.5 -13h-100v150h-67v95h60z" />
    <glyph glyph-name="maithothai" unicode="&#xe49;" 
d="M-355 1465q21 0 40.5 -7.5t34 -21t23.5 -32t9 -40.5v-43q25 0 51.5 7.5t48.5 23.5t36.5 42t14.5 62h100q-5 -63 -27 -108t-56 -73.5t-77.5 -41.5t-90.5 -13h-100v150h-67v95h60z" />
    <glyph glyph-name="maitrithai" unicode="&#xea;" 
d="M-326 1478q10 0 22.5 -3t24 -8t20 -12t11.5 -15q3 8 11.5 15t19.5 12t23.5 8t23.5 3q52 0 86.5 -33t34.5 -111q17 32 23 64t8 67h96q-5 -53 -17.5 -97t-37.5 -76t-65 -51t-99 -21v149q0 5 -10.5 10.5t-20.5 5.5q-9 0 -19.5 -5.5t-10.5 -10.5v-69h-90l-1 69q0 5 -10 10.5
t-20 5.5q-9 0 -19.5 -5.5t-10.5 -10.5v-149h-92v137q0 57 32.5 89t86.5 32z" />
    <glyph glyph-name="maitrithai" unicode="&#xe4a;" 
d="M-326 1478q10 0 22.5 -3t24 -8t20 -12t11.5 -15q3 8 11.5 15t19.5 12t23.5 8t23.5 3q52 0 86.5 -33t34.5 -111q17 32 23 64t8 67h96q-5 -53 -17.5 -97t-37.5 -76t-65 -51t-99 -21v149q0 5 -10.5 10.5t-20.5 5.5q-9 0 -19.5 -5.5t-10.5 -10.5v-69h-90l-1 69q0 5 -10 10.5
t-20 5.5q-9 0 -19.5 -5.5t-10.5 -10.5v-149h-92v137q0 57 32.5 89t86.5 32z" />
    <glyph glyph-name="maichattawathai" unicode="&#xeb;" 
d="M-127 1498v-85h88v-109h-88v-84h-119v84h-87v109h87v85h119z" />
    <glyph glyph-name="maichattawathai" unicode="&#xe4b;" 
d="M-127 1498v-85h88v-109h-88v-84h-119v84h-87v109h87v85h119z" />
    <glyph glyph-name="thanthakhatthai" unicode="&#xec;" 
d="M-294 1332q0 32 16 57t44.5 47t67.5 43.5t85 47.5l56 -97l-96 -55q-5 -3 -15 -8t-19.5 -11.5t-17 -13t-7.5 -12.5q0 -15 17 -15h38v-115h-38q-27 0 -51 10t-42 27.5t-28 41t-10 49.5v4z" />
    <glyph glyph-name="thanthakhatthai" unicode="&#xe4c;" 
d="M-294 1332q0 32 16 57t44.5 47t67.5 43.5t85 47.5l56 -97l-96 -55q-5 -3 -15 -8t-19.5 -11.5t-17 -13t-7.5 -12.5q0 -15 17 -15h38v-115h-38q-27 0 -51 10t-42 27.5t-28 41t-10 49.5v4z" />
    <glyph glyph-name="nikhahitthai" unicode="&#xed;" 
d="M-320 1037q0 30 11.5 55.5t31 45t45 30.5t54.5 11q28 0 54 -11t45.5 -30.5t31 -45t11.5 -55.5q0 -29 -11.5 -55t-31 -45.5t-45.5 -30.5t-54 -11q-29 0 -54.5 11t-45 30.5t-31 45.5t-11.5 55zM-229 1036q0 -21 14 -35.5t35 -14.5t35.5 14.5t14.5 35.5t-14.5 35.5
t-35.5 14.5q-22 0 -35.5 -14.5t-13.5 -35.5z" />
    <glyph glyph-name="nikhahitthai" unicode="&#xe4d;" 
d="M-320 1037q0 30 11.5 55.5t31 45t45 30.5t54.5 11q28 0 54 -11t45.5 -30.5t31 -45t11.5 -55.5q0 -29 -11.5 -55t-31 -45.5t-45.5 -30.5t-54 -11q-29 0 -54.5 11t-45 30.5t-31 45.5t-11.5 55zM-229 1036q0 -21 14 -35.5t35 -14.5t35.5 14.5t14.5 35.5t-14.5 35.5
t-35.5 14.5q-22 0 -35.5 -14.5t-13.5 -35.5z" />
    <glyph glyph-name="yamakkanthai" unicode="&#xee;" 
d="M-43 1251q-24 10 -29 10q-20 0 -30 -15t-10 -34q0 -9 4 -16l-79 -79q-14 11 -20 12t-14 1q-15 0 -25.5 -11t-10.5 -27q0 -20 13.5 -29t30.5 -9q3 0 7 1t13 6q3 -2 8 -6.5t11 -10t12 -11.5l10 -10v1q3 -2 9 -8t13 -13.5t13.5 -14l8.5 -8.5q-33 -26 -58 -36.5t-54 -10.5
q-33 0 -62 12.5t-50.5 34t-34 50.5t-12.5 62q0 32 11.5 60.5t32 50.5t47.5 35t59 15q5 28 19.5 51.5t35.5 41t47 27.5t55 10q14 0 38 -7t53 -19z" />
    <glyph glyph-name="yamakkanthai" unicode="&#xe4e;" 
d="M-43 1251q-24 10 -29 10q-20 0 -30 -15t-10 -34q0 -9 4 -16l-79 -79q-14 11 -20 12t-14 1q-15 0 -25.5 -11t-10.5 -27q0 -20 13.5 -29t30.5 -9q3 0 7 1t13 6q3 -2 8 -6.5t11 -10t12 -11.5l10 -10v1q3 -2 9 -8t13 -13.5t13.5 -14l8.5 -8.5q-33 -26 -58 -36.5t-54 -10.5
q-33 0 -62 12.5t-50.5 34t-34 50.5t-12.5 62q0 32 11.5 60.5t32 50.5t47.5 35t59 15q5 28 19.5 51.5t35.5 41t47 27.5t55 10q14 0 38 -7t53 -19z" />
    <glyph glyph-name="fongmanthai" unicode="&#xef;" horiz-adv-x="895" 
d="M90 414q0 74 28 139t77 113.5t114 76.5t139 28q73 0 138 -28t114 -76.5t77 -113.5t28 -139t-28 -139t-77 -113.5t-114 -76.5t-138 -28q-74 0 -139 28t-114 76.5t-77 113.5t-28 139zM189 414q0 -54 20.5 -101t55.5 -82t82.5 -55.5t100.5 -20.5t100 20.5t82 55.5t55.5 82
t20.5 101q0 53 -20.5 100t-55.5 82t-82 55.5t-100 20.5t-100.5 -20.5t-82.5 -55.5t-55.5 -82t-20.5 -100zM289 414q0 33 12.5 62t34 50.5t50.5 34t62 12.5t62 -12.5t50.5 -34t34 -50.5t12.5 -62t-12.5 -62.5t-34 -51t-50.5 -34t-62 -12.5t-62 12.5t-50.5 34t-34 51
t-12.5 62.5zM382 414q0 -28 20 -48t46 -20t45.5 20t19.5 48q0 27 -19.5 47.5t-45.5 20.5t-46 -20.5t-20 -47.5z" />
    <glyph glyph-name="fongmanthai" unicode="&#xe4f;" horiz-adv-x="895" 
d="M90 414q0 74 28 139t77 113.5t114 76.5t139 28q73 0 138 -28t114 -76.5t77 -113.5t28 -139t-28 -139t-77 -113.5t-114 -76.5t-138 -28q-74 0 -139 28t-114 76.5t-77 113.5t-28 139zM189 414q0 -54 20.5 -101t55.5 -82t82.5 -55.5t100.5 -20.5t100 20.5t82 55.5t55.5 82
t20.5 101q0 53 -20.5 100t-55.5 82t-82 55.5t-100 20.5t-100.5 -20.5t-82.5 -55.5t-55.5 -82t-20.5 -100zM289 414q0 33 12.5 62t34 50.5t50.5 34t62 12.5t62 -12.5t50.5 -34t34 -50.5t12.5 -62t-12.5 -62.5t-34 -51t-50.5 -34t-62 -12.5t-62 12.5t-50.5 34t-34 51
t-12.5 62.5zM382 414q0 -28 20 -48t46 -20t45.5 20t19.5 48q0 27 -19.5 47.5t-45.5 20.5t-46 -20.5t-20 -47.5z" />
    <glyph glyph-name="zerothai" unicode="&#xf0;" horiz-adv-x="775" 
d="M80 309q0 64 24.5 121t66.5 100t97.5 68t118.5 25t119 -25t98 -68t66.5 -100t24.5 -121t-24.5 -121t-66.5 -100t-98 -68t-119 -25t-118.5 25t-97.5 68t-66.5 100t-24.5 121zM201 309q0 -39 15 -73.5t40.5 -61t59 -41.5t71.5 -15q37 0 71 15t59.5 41.5t40.5 61t15 73.5
t-15 74.5t-40.5 61.5t-59.5 41.5t-71 15.5q-38 0 -71.5 -15.5t-59 -41.5t-40.5 -61.5t-15 -74.5z" />
    <glyph glyph-name="zerothai" unicode="&#xe50;" horiz-adv-x="775" 
d="M80 309q0 64 24.5 121t66.5 100t97.5 68t118.5 25t119 -25t98 -68t66.5 -100t24.5 -121t-24.5 -121t-66.5 -100t-98 -68t-119 -25t-118.5 25t-97.5 68t-66.5 100t-24.5 121zM201 309q0 -39 15 -73.5t40.5 -61t59 -41.5t71.5 -15q37 0 71 15t59.5 41.5t40.5 61t15 73.5
t-15 74.5t-40.5 61.5t-59.5 41.5t-71 15.5q-38 0 -71.5 -15.5t-59 -41.5t-40.5 -61.5t-15 -74.5z" />
    <glyph glyph-name="onethai" unicode="&#xf1;" horiz-adv-x="789" 
d="M184 122h211q37 1 70.5 16t58.5 40t39.5 58t14.5 71q0 48 -17.5 84t-45.5 60.5t-64 37t-73 12.5q-24 0 -53.5 -6.5t-56 -20.5t-44.5 -35.5t-18 -52.5t21 -48.5t44 -17.5q20 0 36.5 15t16.5 48q0 4 -0.5 7.5t-0.5 7.5h120q1 -6 1 -12.5v-12.5q0 -36 -12.5 -68.5
t-35.5 -56.5t-54.5 -38t-69.5 -14q-39 0 -73.5 16t-59.5 42.5t-39.5 61t-14.5 72.5q0 54 26 97.5t68 74t94 47t105 16.5q68 0 126.5 -24.5t102 -67t68 -100.5t24.5 -124q0 -63 -24 -118.5t-65 -97.5t-96 -66.5t-118 -24.5h-212v122z" />
    <glyph glyph-name="onethai" unicode="&#xe51;" horiz-adv-x="789" 
d="M184 122h211q37 1 70.5 16t58.5 40t39.5 58t14.5 71q0 48 -17.5 84t-45.5 60.5t-64 37t-73 12.5q-24 0 -53.5 -6.5t-56 -20.5t-44.5 -35.5t-18 -52.5t21 -48.5t44 -17.5q20 0 36.5 15t16.5 48q0 4 -0.5 7.5t-0.5 7.5h120q1 -6 1 -12.5v-12.5q0 -36 -12.5 -68.5
t-35.5 -56.5t-54.5 -38t-69.5 -14q-39 0 -73.5 16t-59.5 42.5t-39.5 61t-14.5 72.5q0 54 26 97.5t68 74t94 47t105 16.5q68 0 126.5 -24.5t102 -67t68 -100.5t24.5 -124q0 -63 -24 -118.5t-65 -97.5t-96 -66.5t-118 -24.5h-212v122z" />
    <glyph glyph-name="twothai" unicode="&#xf2;" horiz-adv-x="800" 
d="M454 368v-121h-52q-27 0 -52.5 10t-45 28t-32 43t-13.5 54v98q0 29 11.5 55t31 45.5t45.5 31t55 11.5q44 0 82 -26q38 26 83 26q29 0 55 -11.5t45.5 -31t31 -45.5t11.5 -55v-221q0 -54 -20 -101t-55 -82.5t-82 -55.5t-101 -20h-98q-54 0 -101 20t-82 55.5t-55.5 82.5
t-20.5 101v546h122v-546q0 -29 10.5 -53.5t29 -43.5t43 -29.5t53.5 -10.5h98q28 0 53 10.5t44 29.5t29.5 43.5t10.5 53.5v218q0 9 -10 17t-19 8t-19 -8t-10 -17v-37h-91v37q0 9 -10 17t-19 8t-19.5 -8t-10.5 -17v-88q0 -8 6.5 -14t15.5 -7h52z" />
    <glyph glyph-name="twothai" unicode="&#xe52;" horiz-adv-x="800" 
d="M454 368v-121h-52q-27 0 -52.5 10t-45 28t-32 43t-13.5 54v98q0 29 11.5 55t31 45.5t45.5 31t55 11.5q44 0 82 -26q38 26 83 26q29 0 55 -11.5t45.5 -31t31 -45.5t11.5 -55v-221q0 -54 -20 -101t-55 -82.5t-82 -55.5t-101 -20h-98q-54 0 -101 20t-82 55.5t-55.5 82.5
t-20.5 101v546h122v-546q0 -29 10.5 -53.5t29 -43.5t43 -29.5t53.5 -10.5h98q28 0 53 10.5t44 29.5t29.5 43.5t10.5 53.5v218q0 9 -10 17t-19 8t-19 -8t-10 -17v-37h-91v37q0 9 -10 17t-19 8t-19.5 -8t-10.5 -17v-88q0 -8 6.5 -14t15.5 -7h52z" />
    <glyph glyph-name="threethai" unicode="&#xf3;" horiz-adv-x="797" 
d="M338 0v443q-2 24 -20 41t-42 17q-26 0 -44.5 -18.5t-18.5 -44.5v-259q0 -26 18.5 -44t44.5 -18h7v-122h-7h-12.5t-9.5 1h2q-35 4 -65 20t-52.5 40t-35.5 55.5t-13 67.5v259q0 38 14.5 71.5t40 59t59.5 40t72 14.5q69 0 122 -47q53 47 124 47q38 0 71.5 -14.5t58.5 -40
t39.5 -59t14.5 -71.5l1 -438h-122l-1 438q0 26 -18 44.5t-44 18.5t-43.5 -17t-18.5 -43l1 -441h-123z" />
    <glyph glyph-name="threethai" unicode="&#xe53;" horiz-adv-x="797" 
d="M338 0v443q-2 24 -20 41t-42 17q-26 0 -44.5 -18.5t-18.5 -44.5v-259q0 -26 18.5 -44t44.5 -18h7v-122h-7h-12.5t-9.5 1h2q-35 4 -65 20t-52.5 40t-35.5 55.5t-13 67.5v259q0 38 14.5 71.5t40 59t59.5 40t72 14.5q69 0 122 -47q53 47 124 47q38 0 71.5 -14.5t58.5 -40
t39.5 -59t14.5 -71.5l1 -438h-122l-1 438q0 26 -18 44.5t-44 18.5t-43.5 -17t-18.5 -43l1 -441h-123z" />
    <glyph glyph-name="fourthai" unicode="&#xf4;" horiz-adv-x="756" 
d="M646 368v-121h-67q-8 0 -14 -6.5t-6 -15.5v-103h117v-122h-337q-53 0 -100 20t-82.5 55t-56 82t-20.5 101v102q0 54 20.5 101t55.5 82t82 55.5t100 20.5h214q9 0 15.5 6t6.5 15v165h122v-165q0 -29 -11.5 -55t-31 -45.5t-46 -31t-55.5 -11.5h-214q-28 0 -52.5 -11
t-43 -29.5t-29.5 -43.5t-11 -53v-102q0 -29 11 -53.5t29.5 -43t43 -29t52.5 -10.5h99v103q0 29 11 55t30.5 45.5t45 31t55.5 11.5h67z" />
    <glyph glyph-name="fourthai" unicode="&#xe54;" horiz-adv-x="756" 
d="M646 368v-121h-67q-8 0 -14 -6.5t-6 -15.5v-103h117v-122h-337q-53 0 -100 20t-82.5 55t-56 82t-20.5 101v102q0 54 20.5 101t55.5 82t82 55.5t100 20.5h214q9 0 15.5 6t6.5 15v165h122v-165q0 -29 -11.5 -55t-31 -45.5t-46 -31t-55.5 -11.5h-214q-28 0 -52.5 -11
t-43 -29.5t-29.5 -43.5t-11 -53v-102q0 -29 11 -53.5t29.5 -43t43 -29t52.5 -10.5h99v103q0 29 11 55t30.5 45.5t45 31t55.5 11.5h67z" />
    <glyph glyph-name="fivethai" unicode="&#xf5;" horiz-adv-x="755" 
d="M695 805v-165q0 -29 -11.5 -55t-31 -45.5t-46 -31t-55.5 -11.5h-214q-28 0 -52.5 -11t-43 -29.5t-29.5 -43.5t-11 -53v-102q0 -29 11 -53.5t29.5 -43t43 -29t52.5 -10.5h99v103q0 29 11 55t30.5 45.5t45 31t55.5 11.5h67v-121h-67q-8 0 -14 -6.5t-6 -15.5v-103h117v-122
h-337q-53 0 -100 20t-82 55t-55.5 82t-20.5 101v102q0 46 15 88t42 75.5t64 57t81 32.5q-1 5 -1 10.5v11.5q0 27 10 51t28 42t42 28.5t52 10.5q27 0 51.5 -10.5t42.5 -28.5t28.5 -42t10.5 -51q0 -15 -1 -16h6q9 0 15.5 6t6.5 15v165h122zM368 635q0 -20 14.5 -32t34.5 -14
q17 0 29.5 15.5t12.5 30.5q0 19 -13 32t-33 13q-19 0 -32 -13t-13 -32z" />
    <glyph glyph-name="fivethai" unicode="&#xe55;" horiz-adv-x="755" 
d="M695 805v-165q0 -29 -11.5 -55t-31 -45.5t-46 -31t-55.5 -11.5h-214q-28 0 -52.5 -11t-43 -29.5t-29.5 -43.5t-11 -53v-102q0 -29 11 -53.5t29.5 -43t43 -29t52.5 -10.5h99v103q0 29 11 55t30.5 45.5t45 31t55.5 11.5h67v-121h-67q-8 0 -14 -6.5t-6 -15.5v-103h117v-122
h-337q-53 0 -100 20t-82 55t-55.5 82t-20.5 101v102q0 46 15 88t42 75.5t64 57t81 32.5q-1 5 -1 10.5v11.5q0 27 10 51t28 42t42 28.5t52 10.5q27 0 51.5 -10.5t42.5 -28.5t28.5 -42t10.5 -51q0 -15 -1 -16h6q9 0 15.5 6t6.5 15v165h122zM368 635q0 -20 14.5 -32t34.5 -14
q17 0 29.5 15.5t12.5 30.5q0 19 -13 32t-33 13q-19 0 -32 -13t-13 -32z" />
    <glyph glyph-name="sixthai" unicode="&#xf6;" horiz-adv-x="770" 
d="M315 368v-121h-73q-8 0 -14.5 -6.5t-6.5 -14.5v-10q0 -20 7.5 -37t20.5 -29.5t30 -20t37 -7.5h120q28 0 53 10.5t43.5 29t29.5 43t11 53.5v102q0 28 -11 53t-29.5 43.5t-43.5 29.5t-53 11h-213q-30 0 -56 11.5t-45.5 31t-30.5 45.5t-11 55v165h121v-165q0 -9 6.5 -15
t15.5 -6h213q54 0 101 -20.5t82 -55.5t55.5 -82t20.5 -101v-102q0 -54 -20 -101t-55 -82t-82 -55t-101 -20h-120q-45 0 -84.5 17t-69.5 46t-47 68.5t-17 84.5v10q0 30 11.5 55.5t31 45t45.5 30.5t55 11h73z" />
    <glyph glyph-name="sixthai" unicode="&#xe56;" horiz-adv-x="770" 
d="M315 368v-121h-73q-8 0 -14.5 -6.5t-6.5 -14.5v-10q0 -20 7.5 -37t20.5 -29.5t30 -20t37 -7.5h120q28 0 53 10.5t43.5 29t29.5 43t11 53.5v102q0 28 -11 53t-29.5 43.5t-43.5 29.5t-53 11h-213q-30 0 -56 11.5t-45.5 31t-30.5 45.5t-11 55v165h121v-165q0 -9 6.5 -15
t15.5 -6h213q54 0 101 -20.5t82 -55.5t55.5 -82t20.5 -101v-102q0 -54 -20 -101t-55 -82t-82 -55t-101 -20h-120q-45 0 -84.5 17t-69.5 46t-47 68.5t-17 84.5v10q0 30 11.5 55.5t31 45t45.5 30.5t55 11h73z" />
    <glyph glyph-name="seventhai" unicode="&#xf7;" horiz-adv-x="797" 
d="M338 295v146q-2 25 -20 43t-42 18q-26 0 -44.5 -18.5t-18.5 -44.5v-260q0 -26 18.5 -44t44.5 -18h40v-122h-42.5t-18.5 1q-33 5 -63 21.5t-52.5 41t-36 55.5t-13.5 65v260q0 38 14.5 71.5t40 58.5t59 39.5t72.5 14.5q69 0 122 -47q53 47 124 47q29 0 62 -11v193h122v-805
h-121l-1 439q0 26 -18 44.5t-44 18.5t-43.5 -17t-18.5 -42v-148h-122z" />
    <glyph glyph-name="seventhai" unicode="&#xe57;" horiz-adv-x="797" 
d="M338 295v146q-2 25 -20 43t-42 18q-26 0 -44.5 -18.5t-18.5 -44.5v-260q0 -26 18.5 -44t44.5 -18h40v-122h-42.5t-18.5 1q-33 5 -63 21.5t-52.5 41t-36 55.5t-13.5 65v260q0 38 14.5 71.5t40 58.5t59 39.5t72.5 14.5q69 0 122 -47q53 47 124 47q29 0 62 -11v193h122v-805
h-121l-1 439q0 26 -18 44.5t-44 18.5t-43.5 -17t-18.5 -42v-148h-122z" />
    <glyph glyph-name="eightthai" unicode="&#xf8;" horiz-adv-x="756" 
d="M316 200h125v-25q0 -24 17 -41t40 -17t40 17t17 41v16q0 21 -14 38t-43 22v121q40 -5 73 -21t56.5 -40t36.5 -55t13 -65v-16q0 -38 -14 -70.5t-38.5 -57t-57 -38.5t-69.5 -14q-33 0 -64 11.5t-56 34.5q-49 -46 -119 -46q-37 0 -69.5 14t-57 38.5t-38.5 57t-14 70.5v185
q0 54 20.5 101t55.5 82t82 55.5t100 20.5h216q8 0 14.5 6t6.5 15v165h121v-165q0 -30 -11 -56t-30.5 -45.5t-45 -30.5t-55.5 -11h-216q-28 0 -52.5 -11t-43 -29.5t-29.5 -43.5t-11 -53v-185q0 -24 17 -41t40 -17t40 17t17 41v25z" />
    <glyph glyph-name="eightthai" unicode="&#xe58;" horiz-adv-x="756" 
d="M316 200h125v-25q0 -24 17 -41t40 -17t40 17t17 41v16q0 21 -14 38t-43 22v121q40 -5 73 -21t56.5 -40t36.5 -55t13 -65v-16q0 -38 -14 -70.5t-38.5 -57t-57 -38.5t-69.5 -14q-33 0 -64 11.5t-56 34.5q-49 -46 -119 -46q-37 0 -69.5 14t-57 38.5t-38.5 57t-14 70.5v185
q0 54 20.5 101t55.5 82t82 55.5t100 20.5h216q8 0 14.5 6t6.5 15v165h121v-165q0 -30 -11 -56t-30.5 -45.5t-45 -30.5t-55.5 -11h-216q-28 0 -52.5 -11t-43 -29.5t-29.5 -43.5t-11 -53v-185q0 -24 17 -41t40 -17t40 17t17 41v25z" />
    <glyph glyph-name="ninethai" unicode="&#xf9;" horiz-adv-x="766" 
d="M376 0v416q-1 36 -25.5 61t-61.5 25q-18 0 -34 -7t-28 -19t-19 -28.5t-7 -34.5v-207q0 -18 7 -34.5t19 -28.5t28 -19t34 -7h17v-122h-17h-11.5t-9.5 1h2q-40 4 -74.5 22t-60 46t-40.5 64.5t-15 77.5v207q0 43 16.5 81.5t44.5 67t66 45t82 16.5q73 0 132 -48q48 48 115 48
q9 0 18 -1t20 -4v187h122v-437h-122v98q0 15 -11 25.5t-27 10.5q-15 0 -26.5 -10.5t-11.5 -25.5l1 -466h-123z" />
    <glyph glyph-name="ninethai" unicode="&#xe59;" horiz-adv-x="766" 
d="M376 0v416q-1 36 -25.5 61t-61.5 25q-18 0 -34 -7t-28 -19t-19 -28.5t-7 -34.5v-207q0 -18 7 -34.5t19 -28.5t28 -19t34 -7h17v-122h-17h-11.5t-9.5 1h2q-40 4 -74.5 22t-60 46t-40.5 64.5t-15 77.5v207q0 43 16.5 81.5t44.5 67t66 45t82 16.5q73 0 132 -48q48 48 115 48
q9 0 18 -1t20 -4v187h122v-437h-122v98q0 15 -11 25.5t-27 10.5q-15 0 -26.5 -10.5t-11.5 -25.5l1 -466h-123z" />
    <glyph glyph-name="angkhankhuthai" unicode="&#xfa;" horiz-adv-x="934" 
d="M475 805h190q33 0 62 -12.5t50.5 -34.5t34 -50.5t12.5 -61.5v-471q0 -36 -12 -68t-34.5 -56.5t-55 -41t-72.5 -20.5v121q31 5 41.5 23.5t10.5 41.5v471q0 16 -11 27t-26 11h-68v-509q0 -36 -12 -68t-34.5 -56.5t-55 -41t-73.5 -20.5v121q32 5 42.5 23.5t10.5 41.5v300
q-62 -38 -134 -38h-77q-38 0 -71.5 14.5t-58.5 39.5t-39.5 58.5t-14.5 71.5t14.5 71.5t39.5 58.5t58.5 39.5t71.5 14.5h37v-121h-37q-26 0 -43.5 -18.5t-17.5 -44.5t17.5 -44t43.5 -18h77q27 0 51.5 10.5t43 28.5t29 42.5t10.5 52.5v112z" />
    <glyph glyph-name="angkhankhuthai" unicode="&#xe5a;" horiz-adv-x="934" 
d="M475 805h190q33 0 62 -12.5t50.5 -34.5t34 -50.5t12.5 -61.5v-471q0 -36 -12 -68t-34.5 -56.5t-55 -41t-72.5 -20.5v121q31 5 41.5 23.5t10.5 41.5v471q0 16 -11 27t-26 11h-68v-509q0 -36 -12 -68t-34.5 -56.5t-55 -41t-73.5 -20.5v121q32 5 42.5 23.5t10.5 41.5v300
q-62 -38 -134 -38h-77q-38 0 -71.5 14.5t-58.5 39.5t-39.5 58.5t-14.5 71.5t14.5 71.5t39.5 58.5t58.5 39.5t71.5 14.5h37v-121h-37q-26 0 -43.5 -18.5t-17.5 -44.5t17.5 -44t43.5 -18h77q27 0 51.5 10.5t43 28.5t29 42.5t10.5 52.5v112z" />
    <glyph glyph-name="khomutthai" unicode="&#xfb;" horiz-adv-x="2147" 
d="M100 412q0 46 17.5 92.5t48.5 83.5t74 60t93 23q34 0 62.5 -13t49 -35t32 -50.5t11.5 -59.5q0 -60 -39.5 -102.5t-117.5 -48.5v92q40 6 54 24l-1 -1q11 14 11 37q0 28 -17.5 46t-47.5 18q-29 0 -54 -15.5t-43 -39.5t-28.5 -53.5t-10.5 -57.5q0 -38 16 -71t42 -57.5
t60.5 -38.5t71.5 -14t71.5 14t61.5 38t43 56.5t16 69.5v144q0 20 12.5 37.5t31.5 30.5t42 20.5t45 7.5q19 0 41.5 -7.5t41.5 -21t31.5 -31t12.5 -36.5l-1 -271q0 -2 4.5 -4.5t10.5 -5.5t13 -5t12 -2q12 0 27 7t15 10v234q0 19 12.5 36t31 30t40.5 20.5t41 7.5t41.5 -7.5
t41.5 -20.5t31.5 -30t12.5 -36v-196q0 -1 4.5 -4t10.5 -6t13 -5.5t12 -2.5t12 2.5t13 5.5t10.5 6t4.5 4v158q0 20 12.5 37t31.5 30t41 20t41 7q20 0 42.5 -7t41 -20t31 -30t12.5 -37v-121q0 -1 4.5 -3.5t11 -5.5t13.5 -5t12 -2q12 0 26 7t14 9v82q0 20 12.5 37.5t31.5 30
t41 20t41 7.5q20 0 42.5 -7.5t42 -20t32 -30t12.5 -37.5v-13q0 -6 4 -6h207v-90h-207q-39 0 -65 27t-27 66v3q0 1 -4.5 4t-11 6.5t-13.5 6t-12 2.5t-12 -2.5t-13.5 -6t-11 -6.5t-4.5 -4v-80q0 -20 -12.5 -37.5t-31 -30t-40.5 -20t-41 -7.5q-20 0 -42 7.5t-41 20t-31 30
t-12 37.5v119q0 1 -4.5 3.5t-10.5 5.5t-13.5 5t-13.5 2q-5 0 -12 -2t-13 -5t-10.5 -5.5t-4.5 -3.5v-156q0 -20 -12 -37.5t-31 -31t-41 -21t-42 -7.5t-41.5 7.5t-40.5 21t-31 31t-12 37.5v194q0 1 -4.5 3.5t-10.5 5.5t-13.5 5.5t-13.5 2.5q-5 0 -11.5 -2.5t-12.5 -5.5
t-10.5 -5.5t-4.5 -3.5v-233q0 -20 -12.5 -37.5t-31.5 -30t-41.5 -20t-42.5 -7.5q-19 0 -41 7.5t-40.5 20t-31 30t-12.5 37.5v271q0 1 -4.5 3.5t-10.5 5.5t-13 5.5t-13 2.5q-12 0 -26 -7t-14 -10v-132q0 -57 -23 -106t-62 -86t-90 -58t-108 -21t-108.5 21.5t-90.5 58.5
t-62 87t-23 107z" />
    <glyph glyph-name="khomutthai" unicode="&#xe5b;" horiz-adv-x="2147" 
d="M100 412q0 46 17.5 92.5t48.5 83.5t74 60t93 23q34 0 62.5 -13t49 -35t32 -50.5t11.5 -59.5q0 -60 -39.5 -102.5t-117.5 -48.5v92q40 6 54 24l-1 -1q11 14 11 37q0 28 -17.5 46t-47.5 18q-29 0 -54 -15.5t-43 -39.5t-28.5 -53.5t-10.5 -57.5q0 -38 16 -71t42 -57.5
t60.5 -38.5t71.5 -14t71.5 14t61.5 38t43 56.5t16 69.5v144q0 20 12.5 37.5t31.5 30.5t42 20.5t45 7.5q19 0 41.5 -7.5t41.5 -21t31.5 -31t12.5 -36.5l-1 -271q0 -2 4.5 -4.5t10.5 -5.5t13 -5t12 -2q12 0 27 7t15 10v234q0 19 12.5 36t31 30t40.5 20.5t41 7.5t41.5 -7.5
t41.5 -20.5t31.5 -30t12.5 -36v-196q0 -1 4.5 -4t10.5 -6t13 -5.5t12 -2.5t12 2.5t13 5.5t10.5 6t4.5 4v158q0 20 12.5 37t31.5 30t41 20t41 7q20 0 42.5 -7t41 -20t31 -30t12.5 -37v-121q0 -1 4.5 -3.5t11 -5.5t13.5 -5t12 -2q12 0 26 7t14 9v82q0 20 12.5 37.5t31.5 30
t41 20t41 7.5q20 0 42.5 -7.5t42 -20t32 -30t12.5 -37.5v-13q0 -6 4 -6h207v-90h-207q-39 0 -65 27t-27 66v3q0 1 -4.5 4t-11 6.5t-13.5 6t-12 2.5t-12 -2.5t-13.5 -6t-11 -6.5t-4.5 -4v-80q0 -20 -12.5 -37.5t-31 -30t-40.5 -20t-41 -7.5q-20 0 -42 7.5t-41 20t-31 30
t-12 37.5v119q0 1 -4.5 3.5t-10.5 5.5t-13.5 5t-13.5 2q-5 0 -12 -2t-13 -5t-10.5 -5.5t-4.5 -3.5v-156q0 -20 -12 -37.5t-31 -31t-41 -21t-42 -7.5t-41.5 7.5t-40.5 21t-31 31t-12 37.5v194q0 1 -4.5 3.5t-10.5 5.5t-13.5 5.5t-13.5 2.5q-5 0 -11.5 -2.5t-12.5 -5.5
t-10.5 -5.5t-4.5 -3.5v-233q0 -20 -12.5 -37.5t-31.5 -30t-41.5 -20t-42.5 -7.5q-19 0 -41 7.5t-40.5 20t-31 30t-12.5 37.5v271q0 1 -4.5 3.5t-10.5 5.5t-13 5.5t-13 2.5q-12 0 -26 -7t-14 -10v-132q0 -57 -23 -106t-62 -86t-90 -58t-108 -21t-108.5 21.5t-90.5 58.5
t-62 87t-23 107z" />
    <glyph glyph-name="saraulowthai" unicode="&#xfc;" 
d="M-229 -320q19 0 38 -10t34 -25.5t24.5 -35.5t9.5 -41v-166h-122v155h-72v123h88z" />
    <glyph glyph-name="saraulowthai" unicode="&#xf718;" 
d="M-229 -320q19 0 38 -10t34 -25.5t24.5 -35.5t9.5 -41v-166h-122v155h-72v123h88z" />
    <glyph glyph-name="sarauulowthai" unicode="&#xfd;" 
d="M-123 -320v-108q0 -36 -14 -68.5t-38 -57t-56.5 -38.5t-69.5 -14q-35 0 -66.5 13t-56 36t-39.5 54.5t-16 69.5h-39v113h71q40 0 66 -26t26 -74v-11q2 -21 17 -36t37 -15q23 0 39 15.5t16 38.5v108h123z" />
    <glyph glyph-name="sarauulowthai" unicode="&#xf719;" 
d="M-123 -320v-108q0 -36 -14 -68.5t-38 -57t-56.5 -38.5t-69.5 -14q-35 0 -66.5 13t-56 36t-39.5 54.5t-16 69.5h-39v113h71q40 0 66 -26t26 -74v-11q2 -21 17 -36t37 -15q23 0 39 15.5t16 38.5v108h123z" />
    <glyph glyph-name="phinthulowthai" unicode="&#xfe;" 
d="M-260 -378q0 27 20 46.5t47 19.5q28 0 47 -19.5t19 -46.5q0 -29 -19 -48t-47 -19q-27 0 -47 19t-20 48z" />
    <glyph glyph-name="phinthulowthai" unicode="&#xf71a;" 
d="M-260 -378q0 27 20 46.5t47 19.5q28 0 47 -19.5t19 -46.5q0 -29 -19 -48t-47 -19q-27 0 -47 19t-20 48z" />
    <glyph glyph-name="verywhale" unicode="&#xff;" horiz-adv-x="1904" 
d="M1041 392q4 -5 12.5 -15.5t17.5 -24t15.5 -29.5t6.5 -32q0 -26 -19.5 -44.5t-48.5 -18.5q-23 0 -53.5 13.5t-58.5 30.5t-48 31.5t-22 16.5q34 43 42 43q3 0 11 -5.5t18.5 -13t22 -15.5t21.5 -14q27 -16 43 -20.5t24 -4.5q5 0 6 1v1q0 7 -10 24t-25 33zM619 674
q3 -14 10 -36.5t20 -46t32.5 -45t46.5 -33.5l-18 -38q-33 17 -54 41l-9 -12l-16 7q-8 5 -15.5 9.5t-15.5 10.5q-2 -4 -5 -9t-4 -9l-17 6q-18 6 -35.5 18.5t-33.5 26.5t-28 27.5t-19 22.5q-15 -8 -23.5 -19t-12.5 -21t-5 -17.5t-1 -8.5v-15l-47 -16v30q1 9 1.5 18t2.5 17
q-20 -24 -27 -44t-7 -21l-40 10q0 1 4.5 14.5t15.5 33t29.5 41t47.5 38.5l13 8l19 -18q7 5 14.5 8t16.5 6l14 4l9 -11q6 -8 14 -20t22 -23q-2 5 -3 9.5t-3 9.5l-3 15l35 21l11 -18q2 -6 8.5 -14.5t15.5 -19.5q-4 9 -4 31q0 9 1 10l1 16l24 3zM554 855q18 2 36 3.5t36 1.5
q103 0 208 -37q69 -24 119 -56.5t86.5 -68t61.5 -72t42.5 -69t30 -60t25.5 -43.5l13 -27q12 -25 23.5 -44.5t26.5 -33t35 -21t49 -7.5t51 13t22 34q0 8 -11.5 19t-38.5 26q-34 19 -49 42.5t-15 48.5q0 19 7.5 35t20.5 27.5t28.5 17.5t32.5 6q23 0 37 -7q27 -11 47 -26
t35.5 -29t28 -23.5t25.5 -9.5q15 0 33 8.5t38 19t41 19.5t41 9q35 0 59 -25t24 -67q0 -25 -8.5 -41.5t-24.5 -29t-38.5 -22.5t-50.5 -22l-22 -9q-31 -13 -52.5 -35.5t-47.5 -54.5q-26 -36 -56.5 -63t-68 -45t-84 -27.5t-104.5 -9.5h-876q-28 0 -61.5 2t-62.5 11t-48.5 27
t-19.5 50q0 29 19.5 48.5t45.5 19.5q1 0 15 -1.5t37.5 -3t54.5 -3t65 -1.5q5 0 27 0.5t51.5 2t63 4t61.5 7t46.5 10.5t18.5 15q0 13 -12 13q-2 0 -5.5 -0.5t-8.5 -1.5q-19 -5 -44.5 -8.5t-55 -5.5t-61.5 -3t-64 -1q-63 0 -115.5 3.5t-80.5 11.5l-12 2q-17 4 -35.5 9.5
t-33.5 16t-25 28.5t-10 47q0 53 40 148q51 124 153.5 204.5t240.5 103.5zM249 355q25 -6 76.5 -9.5t111.5 -3.5t116 3.5t89 13.5q15 3 27 3q37 0 56 -21.5t19 -49.5q0 -25 -13.5 -45t-36.5 -26q-52 -14 -116.5 -23t-161.5 -9q-55 0 -103 2.5t-70 5.5q-3 0 -3 -5v-1
q0 -10 14.5 -15.5t34.5 -8.5t42.5 -3.5t38.5 -0.5h876q160 0 231 81q19 22 36.5 44t35.5 41.5t38.5 35.5t46.5 27l24 10q15 6 30 12.5t27 14t20 15t8 16.5q0 17 -9 24t-14 7q-14 0 -32 -9t-38.5 -19.5t-42 -19t-42.5 -8.5q-29 0 -50 15t-39.5 32.5t-37.5 32.5t-44 15
q-13 0 -20 -8t-7 -18q0 -16 18 -27.5t39 -25t39 -32t18 -49.5q0 -25 -11.5 -45t-30 -34.5t-43 -22.5t-50.5 -8q-45 0 -75 13t-51 33t-35.5 45.5t-27.5 49.5l-13 25q-12 23 -31 67t-55 94t-94.5 98.5t-149.5 80.5q-54 19 -100.5 26t-86.5 7t-72.5 -5.5t-58 -14t-44.5 -17
t-31 -14.5q-32 -16 -62.5 -40t-57.5 -53.5t-49 -63t-35 -66.5q-21 -54 -28 -83t-7 -44q0 -20 13 -26t42 -13zM317 430q0 -11 -7.5 -19t-18.5 -8t-18.5 8t-7.5 19t7.5 18.5t18.5 7.5t18.5 -7.5t7.5 -18.5zM674 430q0 -11 -8 -19t-19 -8t-18.5 8t-7.5 19t7.5 18.5t18.5 7.5
t18.5 -7.5t8.5 -18.5zM648 932q0 -25 -25 -25t-25 25q0 11 7 18.5t18 7.5t18 -7.5t7 -18.5zM648 1019q0 -25 -25 -25t-25 25q0 11 7 18.5t18 7.5t18 -7.5t7 -18.5zM696 1095q0 -25 -25 -25t-25 25t25 25t25 -25zM771 1143q0 -10 -7.5 -17.5t-17.5 -7.5q-11 0 -18.5 7.5
t-7.5 17.5q0 11 7.5 18.5t18.5 7.5q10 0 17.5 -7.5t7.5 -18.5zM856 1161q0 -11 -7.5 -18t-18.5 -7q-25 0 -25 25q0 11 7 18.5t18 7.5t18.5 -7.5t7.5 -18.5zM935 1128q0 -25 -25 -25t-25 25t25 25t25 -25zM550 1095q0 25 25 25q11 0 18.5 -7t7.5 -18t-7.5 -18t-18.5 -7
q-25 0 -25 25zM476 1143q0 11 7 18.5t18 7.5t18 -7.5t7 -18.5q0 -10 -7 -17.5t-18 -7.5t-18 7.5t-7 17.5zM391 1161q0 11 7 18.5t18 7.5t18 -7.5t7 -18.5q0 -25 -25 -25t-25 25zM311 1128q0 25 25 25t25 -25t-25 -25t-25 25z" />
    <glyph glyph-name="lochula.short" horiz-adv-x="906" 
d="M791 857v-76q0 -38 -14.5 -74t-40.5 -64q26 -27 40.5 -63t14.5 -74v-313q0 -42 -15.5 -78.5t-42.5 -63.5t-63.5 -43t-78.5 -16q-38 0 -73.5 15t-64.5 41q-28 -26 -64 -41t-74 -15q-41 0 -77.5 16t-63.5 43t-43 63.5t-16 78.5v612h124v-612q0 -31 22.5 -53.5t53.5 -22.5
t53.5 22.5t22.5 53.5v265h125v-265q0 -31 22 -53.5t53 -22.5q32 0 54 22.5t22 53.5v313q0 31 -21 52.5t-53 23.5h-76v124h74q32 0 54 22t22 53v76h124z" />
    <glyph glyph-name="saraamleft" horiz-adv-x="633" 
d="M35 510v59q0 50 19 94.5t52 77.5t77.5 52.5t95.5 19.5q50 0 94.5 -19.5t77.5 -52.5t52 -77.5t19 -94.5l1 -569h-121l-1 569q0 25 -9.5 47.5t-26 39t-39 26t-47.5 9.5q-26 0 -48 -9.5t-38.5 -26t-26 -39t-9.5 -47.5v-59h-122zM-576 1037q0 30 11.5 55.5t31 45t45.5 30.5
t55 11t54.5 -11t45 -30.5t30.5 -45t11 -55.5q0 -29 -11 -55t-30.5 -45.5t-45 -30.5t-54.5 -11t-55 11t-45.5 30.5t-31 45.5t-11.5 55zM-485 1036q0 -21 14.5 -35.5t35.5 -14.5t35.5 14.5t14.5 35.5t-14.5 35.5t-35.5 14.5t-35.5 -14.5t-14.5 -35.5z" />
    <glyph glyph-name="uni25CC" unicode="&#x25cc;" horiz-adv-x="1046" 
d="M524 138q30 0 52.5 -21t22.5 -52q0 -15 -6.5 -28t-17 -23t-24 -16t-27.5 -6q-31 0 -51.5 22t-20.5 51q0 31 20.5 52t51.5 21zM881 499q32 0 53.5 -21.5t21.5 -50.5q0 -32 -19.5 -54t-55.5 -22q-29 0 -50 22t-21 54q0 29 21 50.5t50 21.5zM164 499q13 0 26.5 -6t23.5 -16
t16.5 -23t6.5 -27q0 -32 -22 -54t-51 -22q-31 0 -52.5 22t-21.5 54q0 29 21.5 50.5t52.5 21.5zM524 858q30 0 52.5 -20.5t22.5 -51.5q0 -15 -6.5 -28t-17 -22.5t-24 -15.5t-27.5 -6q-31 0 -51.5 21.5t-20.5 50.5q0 31 20.5 51.5t51.5 20.5zM271 751q32 0 53.5 -19.5
t21.5 -54.5q0 -32 -21.5 -52.5t-53.5 -20.5q-29 0 -51 20.5t-22 52.5q0 35 22 54.5t51 19.5zM777 751q27 0 49.5 -19.5t22.5 -54.5q0 -32 -20.5 -52.5t-51.5 -20.5q-32 0 -53.5 20.5t-21.5 52.5q0 35 21.5 54.5t53.5 19.5zM777 246q27 0 49.5 -20.5t22.5 -52.5
q0 -31 -20.5 -51.5t-51.5 -20.5q-32 0 -53.5 20.5t-21.5 51.5q0 32 21.5 52.5t53.5 20.5zM271 246q32 0 53.5 -20.5t21.5 -52.5q0 -31 -21.5 -51.5t-53.5 -20.5q-29 0 -51 20.5t-22 51.5q0 32 22 52.5t51 20.5z" />
    <glyph glyph-name="yamakkanleftthai" 
d="M-577 1028q0 32 11.5 60.5t32 50.5t48 35t59.5 15q5 28 19.5 51.5t35.5 41t47 27.5t54 10q14 0 38.5 -7t53.5 -19q-4 -6 -13.5 -21t-19.5 -32t-18.5 -32t-11.5 -21q-20 10 -28 10q-20 0 -30 -15t-10 -34q0 -9 4 -16l-79 -79q-14 11 -20 12t-14 1q-15 0 -26 -11t-11 -27
q0 -20 14 -29t31 -9q3 0 7 1t13 6q3 -2 8 -6.5t11 -10t12 -11.5l10 -10v1q3 -2 9 -8t13 -13.5t13.5 -14l8.5 -8.5q-33 -26 -58.5 -36.5t-54.5 -10.5q-33 0 -62 12.5t-50.5 34t-34 50.5t-12.5 62z" />
    <glyph glyph-name="ZWSP" unicode="&#x200b;" 
 />
    </font>
</defs>
</svg>
